<svg width="132" height="132" viewBox="0 0 132 132" fill="none" xmlns="http://www.w3.org/2000/svg">
<rect width="132" height="132" rx="20" fill="white"/>
<rect width="132" height="132" rx="20" fill="#003F88"/>
<path d="M91.7145 49.5982C90.9237 49.5982 90.2824 48.957 90.2824 48.1662C90.2824 44.7951 87.54 42.0526 84.1689 42.0526H40.2855C36.9144 42.0526 34.1719 44.7952 34.1719 48.1662V76.8893C34.1719 80.2603 36.9145 83.0029 40.2855 83.0029C41.0763 83.0029 41.7175 83.644 41.7175 84.4349C41.7175 87.806 44.4601 90.5485 47.8311 90.5485H91.7143C95.0854 90.5485 97.828 87.806 97.828 84.4349V55.7118C97.8279 52.3407 95.0855 49.5982 91.7145 49.5982ZM93.3232 84.4348C93.3232 84.4348 93.3232 84.4348 93.3232 84.4348C93.3231 85.3233 92.6028 86.0436 91.7144 86.0436H47.8311C46.9425 86.0436 46.2222 85.3233 46.2222 84.4348V83.0028V80.7504V78.498V55.7118C46.2222 54.8231 46.9425 54.1029 47.8311 54.1029H85.7777H88.0301H90.2824H91.7145C92.603 54.1029 93.3233 54.8232 93.3233 55.7118V84.4347C93.3233 84.4347 93.3232 84.4348 93.3232 84.4348ZM38.6766 76.8892V48.1662C38.6766 47.2776 39.3969 46.5573 40.2855 46.5573H84.1689C85.0574 46.5573 85.7777 47.2776 85.7777 48.1662C85.7777 48.957 85.1366 49.5982 84.3457 49.5982H47.8311C44.4601 49.5982 41.7175 52.3408 41.7175 55.7118V77.0662C41.7175 77.857 41.0764 78.498 40.2856 78.498C39.3969 78.498 38.6766 77.7777 38.6766 76.8892Z" fill="white"/>
<path d="M91.7144 90.6009H47.831C44.431 90.6009 41.6649 87.8348 41.6649 84.4348V84.4348C41.6649 83.673 41.0473 83.0554 40.2856 83.0554V83.0554C36.8855 83.0554 34.1194 80.2892 34.1194 76.8892V48.1662C34.1194 44.7662 36.8855 42 40.2856 42H84.169C87.5689 42 90.3351 44.7662 90.3351 48.1662V48.1662C90.3351 48.928 90.9528 49.5456 91.7146 49.5456V49.5456C95.1145 49.5456 97.8807 52.3117 97.8807 55.7118V84.4348C97.8806 87.8348 95.1145 90.6009 91.7144 90.6009ZM40.2856 42.1051C40.2856 42.1051 40.2855 42.105 40.2855 42.105C36.9435 42.1051 34.2245 44.8241 34.2245 48.1662V76.8893C34.2245 80.2313 36.9435 82.9503 40.2856 82.9503V82.9503C41.1055 82.9503 41.7701 83.615 41.7701 84.4349V84.4349C41.7701 87.7768 44.4891 90.4959 47.8311 90.4959H91.7144C95.0565 90.4959 97.7755 87.7769 97.7755 84.4349V55.7118C97.7755 52.3697 95.0567 49.6507 91.7146 49.6507V49.6507C90.8947 49.6507 90.2299 48.9861 90.2299 48.1662V48.1662C90.2299 44.8241 87.5111 42.1052 84.169 42.1052H40.2856C40.2856 42.1052 40.2856 42.1051 40.2856 42.1051V42.1051ZM91.7146 86.0962H47.8311C46.915 86.0962 46.1697 85.3509 46.1697 84.4348V55.7118C46.1697 54.7957 46.915 54.0503 47.8311 54.0503H91.7146C92.6307 54.0503 93.3759 54.7957 93.3759 55.7118V84.4348C93.3758 85.3509 92.6306 86.0962 91.7146 86.0962ZM47.8311 54.1555C46.973 54.1555 46.2749 54.8537 46.2749 55.7118V84.4348C46.2749 85.2929 46.973 85.991 47.8311 85.991H91.7146C92.5726 85.991 93.2708 85.2929 93.2708 84.4348V55.7118C93.2708 54.8536 92.5726 54.1555 91.7146 54.1555H47.8311ZM-nan -nanL41.7701 78.5506H40.2857C39.3696 78.5506 38.6241 77.8053 38.6241 76.8892V48.1662C38.6241 47.2501 39.3695 46.5048 40.2856 46.5048H84.169C85.0851 46.5048 85.8303 47.2501 85.8303 48.1662V48.1662C85.8303 48.9861 85.1657 49.6507 84.3458 49.6507H47.8311C44.4891 49.6507 41.7701 52.3697 41.7701 55.7118V78.5506L-nan -nanL-nan -nanZM40.2856 46.6099C40.2856 46.6098 40.2855 46.6098 40.2855 46.6098C39.4274 46.6098 38.7293 47.3079 38.7293 48.1661V76.8892C38.7293 77.7472 39.4275 78.4454 40.2857 78.4454V78.4454C41.0475 78.4454 41.6651 77.8279 41.6651 77.066V55.7118C41.6651 52.3117 44.4312 49.5456 47.8312 49.5456H84.3459C85.1077 49.5456 85.7253 48.928 85.7253 48.1662V48.1662C85.7253 47.308 85.0272 46.6099 84.1691 46.6099H40.2856C40.2856 46.6099 40.2856 46.6099 40.2856 46.6099V46.6099Z" fill="white"/>
<path d="M86.9098 79.3727L85.4275 77.8903L78.2506 70.7134C77.6223 70.085 76.6037 70.085 75.9754 70.7134C73.7231 72.9657 70.0714 72.9657 67.8192 70.7134L64.2788 67.173C63.6505 66.5446 62.6318 66.5446 62.0036 67.173L50.6787 78.4979L49.8039 79.3727C49.4285 79.7481 49.2776 80.2627 49.3506 80.7503C49.4 81.0788 49.5509 81.3951 49.8039 81.648L50.7141 82.5581C50.9539 82.7979 51.2508 82.9459 51.561 83.0027C51.7531 83.0378 51.9502 83.0378 52.1423 83.0027C52.4526 82.946 52.7494 82.798 52.9893 82.5581L54.7971 80.7503L57.0494 78.4979L62.0035 73.5438C62.6318 72.9154 63.6505 72.9154 64.2787 73.5438L69.2327 78.4979L71.4851 80.7503L73.293 82.5581C73.5328 82.7979 73.8297 82.9459 74.14 83.0027C74.332 83.0378 74.5291 83.0378 74.7212 83.0027C75.0315 82.946 75.3282 82.798 75.5682 82.5581L76.4784 81.648C76.7312 81.395 76.8822 81.0788 76.9315 80.7503C77.0046 80.2627 76.8539 79.7482 76.4784 79.3727L75.6035 78.4979C75.3158 78.2102 75.3159 77.7438 75.6035 77.4561L76.0977 76.9619C76.6583 76.4011 77.5674 76.4011 78.1281 76.9618L79.6643 78.4979L81.9167 80.7503L83.7244 82.5581C83.9511 82.7847 84.2288 82.9292 84.5204 82.9923C84.9026 83.075 85.3088 83.0174 85.6572 82.8192C85.7798 82.7494 85.8953 82.6627 85.9998 82.5582L86.9098 81.6481C87.4998 81.0582 87.5357 80.1241 87.018 79.4921C86.9841 79.451 86.9482 79.4112 86.9098 79.3727Z" fill="white"/>
<path d="M74.4308 83.0818C74.3303 83.0818 74.2294 83.0725 74.1307 83.0545C73.7979 82.9937 73.4955 82.835 73.256 82.5954L64.2416 73.5811C63.9477 73.2871 63.5569 73.1252 63.1412 73.1252C62.7255 73.1252 62.3347 73.2871 62.0408 73.5811L53.0265 82.5954C52.7871 82.835 52.4846 82.9937 52.1519 83.0545C51.9545 83.0905 51.7491 83.0905 51.5516 83.0545C51.2189 82.9937 50.9165 82.835 50.677 82.5954L49.7668 81.6853C49.5137 81.4323 49.3518 81.1117 49.2987 80.7583C49.2208 80.2386 49.3958 79.7068 49.7668 79.3358L61.9665 67.1361C62.2803 66.8223 62.6976 66.6495 63.1413 66.6495C63.5851 66.6495 64.0023 66.8223 64.3161 67.1361L67.8564 70.6765C70.0882 72.9083 73.7066 72.9083 75.9384 70.6765C76.2522 70.3627 76.6694 70.1899 77.1132 70.1899C77.5571 70.1899 77.9742 70.3627 78.288 70.6765L86.9471 79.3358C86.9854 79.3741 87.0231 79.4155 87.0588 79.4588C87.6019 80.1217 87.5539 81.0788 86.9471 81.6854L86.0371 82.5955C85.9322 82.7005 85.8132 82.7911 85.6834 82.865C85.4345 83.0068 85.1508 83.0816 84.8628 83.0816C84.8627 83.0816 84.8627 83.0816 84.8627 83.0816L84.5096 83.0439C84.1977 82.9765 83.9135 82.8215 83.6875 82.5955L78.0912 76.9993C77.5511 76.4591 76.6754 76.4592 76.1352 76.9993C75.5952 77.5395 75.5952 78.4151 76.1353 78.9552L76.5159 79.3359C76.8868 79.7068 77.0617 80.2386 76.9838 80.7584C76.9308 81.1116 76.769 81.4321 76.5159 81.6854L75.6057 82.5955C75.3662 82.8351 75.0638 82.9938 74.7311 83.0546C74.6321 83.0725 74.5312 83.0818 74.4308 83.0818ZM63.1413 73.0201C63.5851 73.0201 64.0023 73.1929 64.3161 73.5067L73.3304 82.5211C73.5548 82.7455 73.8381 82.8942 74.1497 82.951C74.3345 82.9849 74.5272 82.9849 74.712 82.951C75.0236 82.8942 75.3069 82.7455 75.5313 82.5211L76.4415 81.611C76.6785 81.3738 76.83 81.0735 76.8798 80.7426C76.9527 80.2557 76.7889 79.7575 76.4415 79.41L76.0608 79.0294C75.4797 78.4482 75.4797 77.506 76.0608 76.9248C76.642 76.3435 77.5843 76.3435 78.1655 76.9247L83.7618 82.5211C83.9736 82.7328 84.2398 82.878 84.5318 82.9411C84.9038 83.0214 85.3023 82.9608 85.6315 82.7736C85.753 82.7044 85.8646 82.6193 85.9628 82.5211L86.8728 81.611C87.441 81.0428 87.486 80.1462 86.9775 79.5255C86.944 79.4849 86.9088 79.446 86.8728 79.41L78.2136 70.7508C77.9197 70.4568 77.5289 70.2949 77.1132 70.2949C76.6975 70.2949 76.3067 70.4568 76.0128 70.7508C73.7399 73.0236 70.0549 73.0235 67.7821 70.7507L64.2417 67.2104C63.9478 66.9164 63.557 66.7545 63.1413 66.7545C62.7256 66.7545 62.3349 66.9164 62.0409 67.2104L49.8412 79.41C49.4937 79.7575 49.3299 80.2558 49.4029 80.7426C49.4526 81.0736 49.6042 81.374 49.8412 81.611L50.7514 82.5211C50.9758 82.7455 51.2591 82.8942 51.5707 82.951C51.7557 82.9849 51.9482 82.9849 52.1331 82.951C52.4447 82.8942 52.7281 82.7455 52.9524 82.5211L61.9666 73.5067C62.2803 73.1929 62.6976 73.0201 63.1413 73.0201Z" fill="white"/>
<path d="M85.7778 56.9191C85.0763 56.6434 84.3126 56.4919 83.5146 56.4919C80.0918 56.4919 77.3071 59.2766 77.3071 62.6993C77.3071 66.1221 80.0918 68.9067 83.5146 68.9067C84.3127 68.9067 85.0764 68.7552 85.7778 68.4795C86.6388 68.1411 87.4062 67.6157 88.0302 66.9537C89.0785 65.8418 89.7219 64.3444 89.7219 62.6993C89.7219 61.0543 89.0785 59.5568 88.0302 58.4449C87.4062 57.7829 86.6387 57.2574 85.7778 56.9191ZM83.5143 64.4019C82.5741 64.4019 81.8118 63.6396 81.8118 62.6993C81.8118 61.759 82.5741 60.9968 83.5143 60.9968C84.4547 60.9968 85.2171 61.7591 85.2171 62.6993C85.2172 63.6396 84.4548 64.4019 83.5143 64.4019Z" fill="white"/>
<path d="M83.5145 68.9591C80.0626 68.9591 77.2544 66.1509 77.2544 62.6991C77.2544 59.2474 80.0626 56.4392 83.5145 56.4392C84.3012 56.4392 85.0693 56.5842 85.7969 56.8701C86.6501 57.2053 87.4356 57.7374 88.0684 58.4087C89.1686 59.5757 89.7745 61.0993 89.7745 62.6991C89.7745 64.2989 89.1686 65.8226 88.0684 66.9896C87.4358 67.6608 86.6505 68.1928 85.7969 68.5283C85.0694 68.8141 84.3015 68.9591 83.5145 68.9591ZM83.5145 56.5443C80.1207 56.5443 77.3595 59.3053 77.3595 62.6991C77.3595 66.093 80.1207 68.854 83.5145 68.854C84.2882 68.854 85.0432 68.7115 85.7585 68.4303C86.5976 68.1005 87.3698 67.5775 87.9918 66.9175C89.0735 65.77 89.6692 64.272 89.6692 62.6991C89.6692 61.1263 89.0735 59.6282 87.9918 58.4808C87.3697 57.8208 86.5974 57.2976 85.7585 56.968C85.0431 56.6869 84.2882 56.5443 83.5145 56.5443ZM83.5143 64.4545C82.5464 64.4545 81.7592 63.6671 81.7592 62.6993C81.7592 61.7314 82.5464 60.9441 83.5143 60.9441C84.4822 60.9441 85.2696 61.7315 85.2696 62.6993C85.2697 63.6671 84.4822 64.4545 83.5143 64.4545ZM83.5143 61.0492C82.6045 61.0492 81.8643 61.7894 81.8643 62.6991C81.8643 63.609 82.6045 64.3492 83.5143 64.3492C84.4242 64.3492 85.1644 63.6089 85.1644 62.6991C85.1645 61.7894 84.4243 61.0492 83.5143 61.0492Z" fill="white"/>
</svg>
