<svg width="303" height="235" viewBox="0 0 303 235" fill="none" xmlns="http://www.w3.org/2000/svg">
<rect width="303" height="235" rx="20" fill="#003F88"/>
<path d="M151.711 66C128.712 66 110 84.7116 110 107.711C110 117.202 113.11 126.14 118.994 133.559C126.613 143.165 148.769 165.973 149.708 166.94L151.711 169L153.714 166.94C154.654 165.973 176.817 143.16 184.437 133.55C190.316 126.137 193.423 117.202 193.423 107.711C193.423 84.7116 174.711 66 151.711 66ZM180.058 130.079C173.924 137.814 157.451 155.021 151.711 160.973C145.973 155.022 129.505 137.819 123.372 130.087C118.28 123.665 115.588 115.928 115.588 107.711C115.588 87.7926 131.793 71.5877 151.711 71.5877C171.63 71.5877 187.835 87.7926 187.835 107.711C187.835 115.929 185.146 123.663 180.058 130.079Z" fill="white"/>
<path d="M151.711 82.5578C138.097 82.5578 127.021 93.6338 127.021 107.248C127.021 120.863 138.097 131.939 151.711 131.939C165.326 131.939 176.402 120.862 176.402 107.248C176.402 93.634 165.326 82.5578 151.711 82.5578ZM151.711 126.351C141.178 126.351 132.609 117.781 132.609 107.248C132.609 96.7148 141.178 88.1455 151.711 88.1455C162.245 88.1455 170.814 96.7151 170.814 107.248C170.814 117.782 162.245 126.351 151.711 126.351Z" fill="white"/>
</svg>
