<svg width="96" height="41" viewBox="0 0 96 41" fill="none" xmlns="http://www.w3.org/2000/svg">
<path fill-rule="evenodd" clip-rule="evenodd" d="M0 23.15L11.08 30.53L11.92 26.77L1.97 22.02L1.81 8.21L14.36 12.7L13.2 14.72C13.48 15.22 15.23 18.09 15.2 18.38L14.97 20.18L17.12 21.28L16.67 18.38C16.62 18.1 18.39 15.22 18.67 14.72L17.51 12.7L30.05 8.21L29.9 22.02L19.95 26.77L20.79 30.53L31.86 23.15L31.84 5.25L21.14 1.28C20.04 0.88 18.69 0.29 17.48 0L27.73 5.99L15.93 12.2L4.14 5.99L14.39 0C13.17 0.29 11.83 0.88 10.73 1.28L0.03 5.25L0 23.15Z" fill="#003F88"/>
<path fill-rule="evenodd" clip-rule="evenodd" d="M15.9302 40.0599L19.5502 34.6599L17.8502 25.5599L14.2602 23.6699L12.4102 34.7599L15.9302 40.0599Z" fill="#003F88"/>
<path fill-rule="evenodd" clip-rule="evenodd" d="M14.4697 22.5701L17.6597 24.2301L17.3897 22.6901L14.7097 21.3601L14.4697 22.5701Z" fill="#FDC502"/>
<path d="M87.0804 24.1901C86.6404 23.6901 86.3004 23.0801 86.0604 22.3601C85.8204 21.6401 85.6904 20.8301 85.6904 19.9501C85.6904 19.0501 85.8204 18.2601 86.0704 17.5701C86.3304 16.8801 86.6804 16.2901 87.1304 15.8101C88.0704 14.8201 89.3204 14.3201 90.8804 14.3201C92.1504 14.3201 93.1504 14.6201 93.9004 15.2101C94.2104 15.4701 94.4504 15.7501 94.6004 16.0501C94.7504 16.3501 94.8304 16.5801 94.8304 16.7401C94.8304 16.9001 94.8204 17.0301 94.8204 17.1201C94.8104 17.2201 94.7804 17.3101 94.7304 17.4001C94.6104 17.6201 94.3904 17.7301 94.0604 17.7301H93.4404C93.2904 17.7301 93.2004 17.6901 93.1504 17.6101C93.1004 17.5101 93.0604 17.3801 93.0504 17.2201C93.0304 17.0601 92.9804 16.9001 92.9004 16.7601C92.8304 16.6101 92.7104 16.4701 92.5404 16.3401C92.1504 16.0401 91.6304 15.8801 90.9804 15.8801C90.3304 15.8801 89.8104 15.9901 89.4104 16.1901C89.0104 16.3901 88.6804 16.6801 88.4204 17.0401C87.9004 17.7501 87.6304 18.7101 87.6304 19.9101C87.6304 21.1001 87.8704 22.0801 88.3404 22.8301C88.8904 23.6901 89.7004 24.1201 90.7604 24.1201C91.9104 24.1201 92.6204 23.8101 92.8904 23.1901C92.9704 23.0101 93.0104 22.8401 93.0104 22.6701C93.0104 22.5001 92.9904 22.3301 92.9404 22.1601C92.8904 21.9901 92.8104 21.8301 92.6804 21.6801C92.4204 21.3101 92.0104 21.0601 91.4804 20.9301C91.3304 20.8901 91.1904 20.8201 91.0604 20.7101C90.9404 20.6001 90.8804 20.4501 90.8804 20.2601V20.0001C90.8804 19.9101 90.9204 19.8201 91.0004 19.7501C91.0704 19.6801 91.1704 19.6501 91.2804 19.6501H94.6504C94.9204 19.6501 95.0604 19.7701 95.0604 20.0001V20.7901C95.0604 20.8901 95.0204 20.9601 94.9404 21.0201C94.8604 21.0801 94.7704 21.1001 94.6504 21.1001H93.6004C94.1304 21.3501 94.4904 21.7501 94.6804 22.3101C94.7404 22.5201 94.7804 22.7301 94.7804 22.9401C94.7804 23.1601 94.7504 23.3601 94.6904 23.5601C94.6304 23.7601 94.5404 23.9601 94.4104 24.1601C94.2804 24.3601 94.1104 24.5501 93.9004 24.7401C93.6904 24.9401 93.4404 25.1001 93.1304 25.2501C92.4604 25.5801 91.7004 25.7401 90.8504 25.7401C89.9904 25.7401 89.2604 25.6101 88.6404 25.3401C88.0304 25.0801 87.5104 24.6901 87.0804 24.1901Z" fill="#003F88"/>
<path d="M73.8304 22.8301C73.6204 22.3901 73.4604 21.9401 73.3604 21.4501C73.2504 20.9601 73.1904 20.3801 73.1904 19.7201C73.1904 19.0501 73.3204 18.3701 73.5804 17.6901C73.8404 17.0001 74.2004 16.4001 74.6704 15.9001C75.6704 14.8501 76.9604 14.3201 78.5404 14.3201C80.2204 14.3201 81.5404 14.8601 82.5004 15.9401C83.4104 16.9701 83.8604 18.3001 83.8604 19.9501C83.8604 21.5901 83.3604 22.9501 82.3604 24.0601C81.8904 24.5801 81.3304 24.9801 80.6704 25.2901C80.0104 25.5901 79.3404 25.7401 78.6704 25.7401C77.9904 25.7401 77.4104 25.6601 76.9404 25.5201C76.4604 25.3801 76.0304 25.1801 75.6404 24.9301C75.2404 24.6701 74.9004 24.3601 74.5904 24.0101C74.2904 23.6501 74.0404 23.2601 73.8304 22.8301ZM75.1504 19.9001C75.1504 20.4501 75.2204 20.9801 75.3504 21.4701C75.4804 21.9701 75.6804 22.4101 75.9604 22.8001C76.5604 23.6501 77.4204 24.0801 78.5204 24.0801C79.6204 24.0801 80.4804 23.6701 81.0804 22.8601C81.6304 22.1101 81.9104 21.1401 81.9104 19.9501C81.9104 18.8201 81.6304 17.8901 81.0604 17.1601C80.4404 16.3701 79.6004 15.9701 78.5204 15.9701C77.4904 15.9701 76.6704 16.3401 76.0604 17.0801C75.4504 17.8101 75.1504 18.7501 75.1504 19.9001Z" fill="#003F88"/>
<path d="M65.4697 14.96C65.4697 14.83 65.5097 14.73 65.5897 14.63C65.6697 14.54 65.7597 14.5 65.8697 14.5H66.8797C66.9897 14.5 67.0897 14.54 67.1597 14.63C67.2397 14.73 67.2797 14.83 67.2797 14.96V23.95H71.1897C71.3097 23.95 71.4097 23.99 71.4697 24.07C71.5397 24.15 71.5697 24.24 71.5697 24.36V25.15C71.5697 25.26 71.5397 25.36 71.4697 25.44C71.4097 25.52 71.3097 25.56 71.1897 25.56H65.8597C65.7497 25.56 65.6597 25.51 65.5797 25.42C65.5097 25.33 65.4697 25.22 65.4697 25.09V14.96Z" fill="#003F88"/>
<path d="M54.4902 15.12C54.4902 14.83 54.5902 14.64 54.7902 14.55C54.8602 14.52 54.9402 14.5 55.0502 14.5H58.4002C59.3402 14.5 60.1402 14.7 60.8102 15.1C61.6202 15.57 62.0202 16.3 62.0202 17.28C62.0202 17.95 61.8302 18.51 61.4402 18.96C61.1002 19.35 60.6502 19.6 60.1202 19.71V19.74C60.8502 19.77 61.4602 19.98 61.9502 20.38C62.5002 20.84 62.7802 21.46 62.7802 22.24C62.7802 23.37 62.3602 24.23 61.5302 24.8C60.8002 25.3 59.8202 25.56 58.5702 25.56H55.0502C54.8502 25.56 54.7102 25.49 54.6202 25.37C54.5302 25.25 54.4902 25.1 54.4902 24.94V15.12ZM58.5602 24.02C59.6202 24.02 60.3202 23.72 60.6602 23.12C60.7902 22.9 60.8602 22.64 60.8602 22.34C60.8602 22.04 60.8202 21.8 60.7402 21.62C60.6502 21.45 60.5402 21.29 60.4102 21.17C60.2702 21.05 60.1002 20.94 59.9102 20.87C59.7302 20.8 59.5302 20.74 59.3202 20.69C58.9602 20.63 58.6002 20.59 58.2402 20.59C57.7902 20.59 57.3102 20.6 56.8102 20.63L56.2802 20.65L56.2902 24.02H58.5602ZM56.2802 19.2C57.0102 19.2 57.5902 19.19 58.0302 19.16C58.7702 19.12 59.3102 18.95 59.6602 18.66C60.0102 18.38 60.1802 17.98 60.1802 17.46C60.1802 16.95 60.0002 16.58 59.6302 16.36C59.2602 16.13 58.7102 16.02 57.9802 16.02H56.2802V19.2Z" fill="#003F88"/>
<path d="M41.9103 22.8301C41.7003 22.3901 41.5503 21.9401 41.4403 21.4501C41.3303 20.9601 41.2803 20.3801 41.2803 19.7201C41.2803 19.0501 41.4003 18.3701 41.6603 17.6901C41.9203 17.0001 42.2803 16.4001 42.7503 15.9001C43.7503 14.8501 45.0403 14.3201 46.6203 14.3201C48.3003 14.3201 49.6203 14.8601 50.5803 15.9401C51.4903 16.9701 51.9403 18.3001 51.9403 19.9501C51.9403 21.5901 51.4403 22.9501 50.4403 24.0601C49.9703 24.5801 49.4103 24.9801 48.7503 25.2901C48.0903 25.5901 47.4203 25.7401 46.7503 25.7401C46.0703 25.7401 45.5003 25.6601 45.0203 25.5201C44.5403 25.3801 44.1103 25.1801 43.7203 24.9301C43.3203 24.6701 42.9803 24.3601 42.6703 24.0101C42.3703 23.6501 42.1203 23.2601 41.9103 22.8301ZM43.2303 19.9001C43.2303 20.4501 43.3003 20.9801 43.4303 21.4701C43.5603 21.9701 43.7603 22.4101 44.0403 22.8001C44.6403 23.6501 45.5003 24.0801 46.6003 24.0801C47.7003 24.0801 48.5603 23.6701 49.1603 22.8601C49.7103 22.1101 49.9903 21.1401 49.9903 19.9501C49.9903 18.8201 49.7103 17.8901 49.1403 17.1601C48.5203 16.3701 47.6803 15.9701 46.6103 15.9701C45.5703 15.9701 44.7503 16.3401 44.1403 17.0801C43.5303 17.8101 43.2303 18.7501 43.2303 19.9001Z" fill="#003F88"/>
<path d="M36.06 24.25C36.91 24.25 37.33 23.56 37.33 22.18V14.96C37.33 14.83 37.37 14.73 37.44 14.63C37.51 14.54 37.6 14.5 37.71 14.5H38.75C38.86 14.5 38.95 14.54 39.02 14.63C39.09 14.73 39.13 14.83 39.13 14.96V22.58C39.13 23.65 38.86 24.45 38.34 25C37.87 25.5 37.22 25.74 36.4 25.74C35.89 25.74 35.5 25.69 35.23 25.58C34.97 25.47 34.78 25.37 34.69 25.27C34.59 25.17 34.54 25.07 34.54 24.97C34.54 24.86 34.55 24.78 34.57 24.7L34.64 24.48C34.74 24.17 34.86 24.01 35.01 24.01C35.06 24.01 35.11 24.03 35.17 24.05L35.4 24.13C35.62 24.21 35.84 24.25 36.06 24.25Z" fill="#FDC502"/>
</svg>
