<svg width="234" height="288" viewBox="0 0 234 288" fill="none" xmlns="http://www.w3.org/2000/svg">
<path d="M35.2823 65.6712C87.3283 -18.4546 164.092 32.8194 216.138 116.945C248.357 169.023 235.909 185.925 187.503 224.394C135.094 266.045 68.8657 293.062 16.8196 208.937C-15.3994 156.859 3.06327 117.749 35.2823 65.6712Z" fill="#E0E0E0"/>
<path d="M87.1618 64.1824C85.188 64.9339 83.1724 65.5709 81.1252 66.0903C78.4209 66.7489 76.8941 67.0542 74.284 66.0419C74.1923 66.0063 74.1048 65.9712 74.0223 65.9366C69.075 63.8344 64.8459 60.3402 61.8498 55.8794C58.8537 51.4186 57.2198 46.1835 57.147 40.8114C57.134 40.6271 57.134 40.4334 57.134 40.2444C57.1314 39.3339 57.175 38.4239 57.2645 37.5178C57.3788 36.2836 57.5764 35.0585 57.8558 33.8508L57.8297 33.8461C55.7165 31.6866 54.9034 28.7284 55.173 25.7562C55.3577 23.7411 55.9976 21.7942 57.0445 20.0621C58.0915 18.3301 59.5181 16.8581 61.2169 15.7571C63.8793 14.0842 66.8813 13.0253 70.0046 12.6572C70.8432 12.5606 71.6867 12.5117 72.5309 12.5107H80.4619C82.1 12.1275 83.764 11.8653 85.4406 11.7263H85.4536C101.416 10.4032 114.004 20.9787 112.83 33.8461C112.821 33.8603 112.808 33.8745 112.799 33.8886C112.46 34.4415 112.16 34.966 111.895 35.4669C111.638 35.9347 111.421 36.3837 111.234 36.809C109.777 40.0979 116.7 91.1252 114.217 91.9001C112.804 92.3396 107.108 54.3687 108.129 61.5892C109.416 70.6478 94.5154 61.4658 87.1618 64.1824Z" fill="#2F2E41"/>
<path d="M111.208 156.425L133.335 203.535L48.2188 194.919L65.9863 149.695L111.208 156.425Z" fill="#FFB6B6"/>
<path d="M155.626 250.877C140.824 255.801 125.226 257.889 109.65 257.031L102.877 246.054C102.877 246.054 102.594 250.142 102.171 256.393C94.7559 255.534 87.438 253.983 80.3126 251.761C66.7998 247.538 54.1331 240.995 41.2932 234.961C38.6926 219.468 37.7167 195.577 52.0948 181.669L129.485 195.841C129.485 195.841 141.901 205.123 138.58 208.447C135.258 211.767 134.744 211.253 136.926 213.434C139.108 215.615 143.824 218.531 143.872 220.438C143.891 221.183 149.184 234.687 155.626 250.877Z" fill="#2F2E41"/>
<path d="M97.694 65.3926L78.9969 66.6962L66.9122 78.3665L62.6799 79.1215C58.8756 79.7994 55.4524 81.8488 53.0596 84.8813C50.6667 87.9137 49.4705 91.7183 49.6977 95.5735C50.5683 110.314 52.5175 132.339 56.5915 139.484C62.9086 150.564 68.1264 147.088 62.9086 150.564C57.6908 154.04 54.1877 151.309 56.5915 156.803C58.9953 162.297 53.3427 169.344 53.3427 169.344L51.0924 171.593L53.4791 172.57L129.526 182.459C129.526 182.459 122.95 152.913 127.063 145.655C131.175 138.397 141.146 116.457 132.247 107.872L123.546 77.2725L108.58 72.8612L97.694 65.3926Z" fill="#00296B"/>
<path d="M210.877 186.66C209.625 186.62 208.398 186.309 207.278 185.749C206.159 185.188 205.175 184.392 204.394 183.414C203.614 182.436 203.055 181.3 202.756 180.085C202.458 178.87 202.427 177.604 202.666 176.376L166.994 152.233L171.25 140.73L213.409 169.715C215.447 170.271 217.211 171.555 218.366 173.324C219.52 175.092 219.986 177.223 219.674 179.312C219.361 181.4 218.294 183.302 216.672 184.656C215.051 186.01 212.989 186.723 210.877 186.66V186.66Z" fill="#FFB6B6"/>
<path d="M110.121 75.8274L104.938 77.8786L132.589 131.85L189.832 170.845L198.083 156.907L154.509 119.293L137.064 85.8573C134.609 81.1518 130.496 77.5224 125.52 75.67C120.544 73.8176 115.058 73.8737 110.121 75.8274Z" fill="#00296B"/>
<path d="M87.3727 60.646C97.7416 60.646 106.147 52.2456 106.147 41.8831C106.147 31.5206 97.7416 23.1201 87.3727 23.1201C77.0038 23.1201 68.5981 31.5206 68.5981 41.8831C68.5981 52.2456 77.0038 60.646 87.3727 60.646Z" fill="#FFB6B6"/>
<path d="M103.699 33.9487C103.386 34.1138 103.077 34.2659 102.764 34.418C102.438 34.5744 102.112 34.7309 101.781 34.8786C95.4982 37.7249 90.3803 38.0421 87.2757 33.9487C87.1908 31.7951 86.7057 29.6761 85.8452 27.6999C85.9973 29.9084 85.4149 32.1052 84.1886 33.9487H77.9359C71.4962 38.2203 68.1916 42.1443 72.6615 56.1671C72.9529 57.0884 74.9487 89.8185 75.5183 92.3346C65.7697 88.5974 57.3603 48.9189 57.1473 38.4636C57.1342 38.2942 57.1342 38.116 57.1342 37.9422C57.1317 37.1046 57.1752 36.2676 57.2647 35.4348C57.3794 34.2979 57.577 33.1709 57.856 32.0627L57.8299 32.0584C56.8381 31.1107 56.0814 29.9446 55.6201 28.653C55.1589 27.3615 55.0058 25.9801 55.1732 24.6189C56.8086 22.479 58.8324 20.6658 61.1389 19.274C63.2362 18.259 65.4224 17.4386 67.6698 16.8231C67.7264 16.8101 67.7742 16.7971 67.8307 16.784C68.5177 16.5972 69.2221 16.4277 69.9265 16.2799C71.3782 15.9757 72.8458 15.7538 74.3225 15.6151C74.4312 15.6108 74.5356 15.6021 74.6313 15.6021C75.2219 15.6024 75.8016 15.7615 76.3097 16.0627C76.314 16.0627 76.314 16.067 76.3227 16.067C76.8108 16.3585 77.2156 16.7707 77.4982 17.2639C77.7807 17.757 77.9315 18.3146 77.9359 18.8829H84.9016C85.1582 18.8829 85.4147 18.8916 85.6713 18.9046C95.372 19.2913 103.168 23.437 103.668 32.9666C103.69 33.2969 103.699 33.6184 103.699 33.9487Z" fill="#2F2E41"/>
<path d="M62.5163 34.703C69.3474 34.703 74.885 29.1687 74.885 22.3419C74.885 15.515 69.3474 9.98071 62.5163 9.98071C55.6852 9.98071 50.1475 15.515 50.1475 22.3419C50.1475 29.1687 55.6852 34.703 62.5163 34.703Z" fill="#2F2E41"/>
<path d="M79.497 16.6244C78.0918 23.3053 71.159 27.3011 64.5266 25.6666C61.3416 24.8816 58.5991 22.8644 56.9023 20.0587C55.2055 17.2529 54.6935 13.8884 55.4789 10.7054C57.1144 4.07707 65.1637 5.98795 70.4493 1.66328C77.9266 -4.45459 81.3921 7.61475 79.497 16.6244Z" fill="#2F2E41"/>
<path d="M52.0153 202.594C62.557 159.632 83.4444 122.705 118.037 93.7733C119.375 91.5723 121.533 89.9918 124.036 89.3787C126.54 88.7656 129.184 89.1699 131.39 90.5028L213.624 140.333C215.826 141.671 217.408 143.827 218.021 146.329C218.635 148.83 218.23 151.473 216.897 153.677C203.693 197.761 183.917 236.014 150.875 262.498C149.537 264.699 147.379 266.279 144.876 266.892C142.372 267.506 139.728 267.101 137.523 265.768L55.288 215.938C53.0856 214.601 51.5042 212.444 50.8906 209.942C50.2771 207.441 50.6816 204.798 52.0153 202.594Z" fill="#F2F2F2"/>
<path opacity="0.2" d="M66.6317 217.073C64.4293 215.735 62.8479 213.579 62.2344 211.077C61.6209 208.575 62.0254 205.932 63.3592 203.728C73.9009 160.766 94.7883 123.839 129.38 94.9076C130.267 93.4668 131.518 92.2856 133.008 91.4834L131.389 90.5028C129.184 89.1699 126.54 88.7656 124.036 89.3787C121.533 89.9918 119.375 91.5721 118.037 93.7731C83.4444 122.705 62.5571 159.632 52.0154 202.594C50.6816 204.798 50.2771 207.441 50.8906 209.942C51.5041 212.444 53.0855 214.6 55.2879 215.938L137.522 265.768C138.986 266.648 140.656 267.126 142.364 267.153C144.072 267.18 145.757 266.756 147.248 265.922L66.6317 217.073Z" fill="black"/>
<path d="M163.071 193.07L107.872 159.831C106.995 159.301 106.364 158.445 106.118 157.451C105.872 156.457 106.031 155.406 106.56 154.529C107.088 153.652 107.944 153.02 108.938 152.773C109.933 152.526 110.985 152.683 111.863 153.211L167.063 186.45C167.937 186.981 168.566 187.836 168.811 188.829C169.056 189.822 168.896 190.872 168.368 191.748C167.84 192.624 166.986 193.255 165.993 193.503C165 193.751 163.95 193.595 163.071 193.07L163.071 193.07Z" fill="white"/>
<path d="M130.96 148.991L118.816 141.679C117.936 141.153 117.301 140.298 117.051 139.305C116.801 138.311 116.957 137.258 117.483 136.379C118.01 135.499 118.864 134.865 119.859 134.615C120.853 134.365 121.906 134.52 122.786 135.046L122.807 135.059L134.951 142.371C135.826 142.902 136.455 143.758 136.7 144.751C136.945 145.744 136.786 146.794 136.258 147.67C135.73 148.546 134.875 149.177 133.882 149.425C132.889 149.672 131.838 149.517 130.96 148.991Z" fill="white"/>
<path d="M154.299 207.621L99.099 174.382C98.221 173.853 97.5889 172.998 97.3414 172.004C97.094 171.01 97.2515 169.959 97.7794 169.081C98.3073 168.203 99.1624 167.57 100.157 167.322C101.151 167.074 102.203 167.23 103.082 167.757L103.09 167.762L158.29 201.001C159.165 201.532 159.793 202.387 160.038 203.38C160.283 204.373 160.124 205.423 159.595 206.299C159.067 207.175 158.213 207.806 157.22 208.054C156.227 208.302 155.177 208.146 154.299 207.621L154.299 207.621Z" fill="white"/>
<path d="M170.082 130.396C178.986 130.396 186.204 123.182 186.204 114.283C186.204 105.385 178.986 98.1707 170.082 98.1707C161.177 98.1707 153.959 105.385 153.959 114.283C153.959 123.182 161.177 130.396 170.082 130.396Z" fill="#3F3D56"/>
<path d="M142.29 286.937C161.322 286.937 176.75 271.518 176.75 252.498C176.75 233.478 161.322 218.06 142.29 218.06C123.259 218.06 107.831 233.478 107.831 252.498C107.831 271.518 123.259 286.937 142.29 286.937Z" fill="white"/>
<path d="M142.29 287.417C135.38 287.417 128.624 285.369 122.878 281.532C117.132 277.695 112.654 272.242 110.009 265.861C107.365 259.48 106.673 252.459 108.021 245.686C109.369 238.912 112.697 232.69 117.583 227.807C122.47 222.923 128.696 219.597 135.473 218.25C142.251 216.903 149.277 217.594 155.661 220.237C162.046 222.88 167.503 227.356 171.342 233.098C175.181 238.84 177.231 245.592 177.231 252.498C177.22 261.756 173.536 270.631 166.985 277.178C160.435 283.724 151.554 287.406 142.29 287.417ZM142.29 218.54C135.57 218.54 129 220.532 123.412 224.263C117.825 227.994 113.469 233.298 110.898 239.503C108.326 245.708 107.653 252.536 108.964 259.123C110.275 265.71 113.511 271.761 118.263 276.51C123.015 281.259 129.07 284.493 135.661 285.804C142.253 287.114 149.085 286.441 155.294 283.871C161.502 281.301 166.809 276.948 170.543 271.364C174.277 265.78 176.269 259.214 176.269 252.498C176.259 243.495 172.676 234.863 166.306 228.497C159.936 222.131 151.299 218.55 142.29 218.54Z" fill="#3F3D56"/>
<path d="M137.589 270.422C136.994 270.422 136.407 270.283 135.875 270.017C135.343 269.751 134.88 269.365 134.523 268.889L125.122 256.362C124.82 255.959 124.599 255.501 124.474 255.014C124.349 254.526 124.321 254.019 124.392 253.52C124.463 253.022 124.631 252.543 124.888 252.11C125.144 251.676 125.484 251.298 125.887 250.996C126.29 250.694 126.748 250.474 127.236 250.35C127.724 250.225 128.232 250.197 128.73 250.269C129.229 250.34 129.709 250.509 130.142 250.766C130.575 251.023 130.953 251.362 131.255 251.765L137.406 259.96L153.203 236.28C153.482 235.861 153.841 235.502 154.259 235.222C154.677 234.942 155.147 234.747 155.64 234.648C156.134 234.549 156.642 234.549 157.136 234.647C157.63 234.744 158.1 234.938 158.518 235.217C158.937 235.496 159.297 235.855 159.577 236.273C159.857 236.691 160.052 237.16 160.151 237.653C160.25 238.147 160.25 238.655 160.152 239.148C160.055 239.642 159.861 240.111 159.582 240.53L140.779 268.716C140.439 269.225 139.982 269.646 139.445 269.943C138.909 270.239 138.309 270.403 137.696 270.42C137.661 270.421 137.625 270.422 137.589 270.422Z" fill="#00296B"/>
<path d="M57.1432 203.049C55.9145 202.546 54.8098 201.782 53.9055 200.81C53.0012 199.839 52.319 198.682 51.9059 197.421C51.4929 196.16 51.3589 194.824 51.5133 193.506C51.6676 192.188 52.1066 190.919 52.7999 189.787L26.3101 152.574L34.8082 142.72L65.9471 187.149C67.7667 188.457 69.0429 190.387 69.534 192.572C70.0252 194.758 69.697 197.047 68.6118 199.007C67.5266 200.967 65.7598 202.461 63.646 203.206C61.5323 203.951 59.2185 203.895 57.1432 203.049H57.1432Z" fill="#FFB6B6"/>
<path d="M57.7513 85.1212C56.4111 84.3332 54.8338 84.0483 53.3024 84.3177C51.7711 84.5872 50.3859 85.3933 49.3957 86.5913L13.6045 136.616L46.7736 183.697L59.7528 169.765L39.5629 138.058L66.3954 112.526C68.6004 107.698 68.9372 102.225 67.3408 97.164C65.7443 92.1028 62.3279 87.8123 57.7513 85.1212Z" fill="#00296B"/>
</svg>
