<svg width="510" height="391" viewBox="0 0 510 391" fill="none" xmlns="http://www.w3.org/2000/svg">
<ellipse cx="255" cy="372.5" rx="255" ry="18.5" fill="#C4C4C4" fill-opacity="0.2"/>
<g filter="url(#filter0_d_29_49)">
<path d="M281.926 167.789H98.9929C90.021 167.778 81.4195 164.21 75.0754 157.866C68.7314 151.522 65.1628 142.92 65.1527 133.948V31.6741C65.1543 30.2716 65.7122 28.927 66.7039 27.9352C67.6957 26.9435 69.0403 26.3856 70.4428 26.384H281.926C283.328 26.3857 284.673 26.9436 285.665 27.9353C286.656 28.927 287.214 30.2716 287.216 31.6741V162.498C287.214 163.901 286.656 165.245 285.665 166.237C284.673 167.229 283.328 167.787 281.926 167.789Z" fill="white"/>
<path d="M281.926 168.16H98.9929C89.9225 168.15 81.2265 164.542 74.8127 158.128C68.399 151.715 64.7912 143.019 64.7809 133.948V31.6739C64.7826 30.1728 65.3796 28.7336 66.4411 27.6722C67.5025 26.6107 68.9417 26.0136 70.4428 26.012H281.926C283.427 26.0137 284.866 26.6108 285.927 27.6723C286.989 28.7337 287.586 30.1728 287.588 31.6739V162.498C287.586 163.999 286.989 165.438 285.928 166.5C284.866 167.561 283.427 168.158 281.926 168.16ZM70.4428 27.4994C69.3361 27.5007 68.275 27.941 67.4925 28.7235C66.7099 29.5061 66.2697 30.5672 66.2684 31.6739V133.948C66.2782 142.624 69.7291 150.942 75.864 157.077C81.9989 163.212 90.3168 166.663 98.9929 166.673H281.926C283.033 166.671 284.094 166.231 284.876 165.448C285.659 164.666 286.099 163.605 286.1 162.498V31.6739C286.099 30.5672 285.659 29.5062 284.876 28.7236C284.094 27.941 283.033 27.5008 281.926 27.4994H70.4428Z" fill="#CCCCCC"/>
<path d="M240.121 70.4473H112.248C111.666 70.448 111.09 70.3341 110.552 70.112C110.014 69.8899 109.526 69.564 109.114 69.1529C108.702 68.7418 108.376 68.2535 108.153 67.7161C107.93 67.1787 107.815 66.6026 107.815 66.0209C107.815 65.4391 107.93 64.8631 108.153 64.3257C108.376 63.7882 108.702 63.3 109.114 62.8889C109.526 62.4778 110.014 62.1519 110.552 61.9298C111.09 61.7077 111.666 61.5937 112.248 61.5945H240.121C240.703 61.5937 241.279 61.7077 241.817 61.9298C242.354 62.1519 242.843 62.4778 243.255 62.8889C243.666 63.3 243.993 63.7882 244.216 64.3257C244.439 64.8631 244.553 65.4391 244.553 66.0209C244.553 66.6026 244.439 67.1787 244.216 67.7161C243.993 68.2535 243.666 68.7418 243.255 69.1529C242.843 69.564 242.354 69.8899 241.817 70.112C241.279 70.3341 240.703 70.448 240.121 70.4473Z" fill="#CCCCCC"/>
<path d="M240.121 100.94H112.248C111.666 100.941 111.09 100.827 110.552 100.605C110.014 100.383 109.526 100.057 109.114 99.6458C108.702 99.2347 108.376 98.7464 108.153 98.209C107.93 97.6716 107.815 97.0956 107.815 96.5138C107.815 95.932 107.93 95.356 108.153 94.8186C108.376 94.2811 108.702 93.7929 109.114 93.3818C109.526 92.9707 110.014 92.6448 110.552 92.4227C111.09 92.2006 111.666 92.0867 112.248 92.0874H240.121C241.295 92.0874 242.421 92.5538 243.251 93.3839C244.081 94.214 244.548 95.3398 244.548 96.5138C244.548 97.6878 244.081 98.8136 243.251 99.6437C242.421 100.474 241.295 100.94 240.121 100.94Z" fill="#CCCCCC"/>
<path d="M240.121 132.305H112.248C111.074 132.305 109.948 131.839 109.118 131.008C108.288 130.178 107.821 129.052 107.821 127.879C107.821 126.705 108.288 125.579 109.118 124.749C109.948 123.919 111.074 123.452 112.248 123.452H240.121C240.703 123.451 241.279 123.565 241.817 123.787C242.354 124.01 242.843 124.335 243.255 124.747C243.666 125.158 243.993 125.646 244.216 126.183C244.439 126.721 244.553 127.297 244.553 127.879C244.553 128.46 244.439 129.036 244.216 129.574C243.993 130.111 243.666 130.599 243.255 131.011C242.843 131.422 242.354 131.748 241.817 131.97C241.279 132.192 240.703 132.306 240.121 132.305Z" fill="#CCCCCC"/>
<path d="M282.59 59.7808C296.613 59.7808 307.981 48.4131 307.981 34.3904C307.981 20.3677 296.613 9 282.59 9C268.567 9 257.2 20.3677 257.2 34.3904C257.2 48.4131 268.567 59.7808 282.59 59.7808Z" fill="#00296B"/>
<path d="M279.127 47.605C278.688 47.605 278.256 47.5029 277.864 47.3068C277.471 47.1107 277.13 46.8259 276.867 46.4751L269.941 37.2391C269.718 36.9423 269.556 36.6047 269.464 36.2454C269.372 35.8861 269.352 35.5122 269.404 35.1451C269.457 34.7779 269.581 34.4247 269.77 34.1055C269.959 33.7864 270.209 33.5076 270.506 33.2851C270.802 33.0626 271.14 32.9007 271.499 32.8086C271.858 32.7166 272.232 32.6962 272.6 32.7487C272.967 32.8012 273.32 32.9254 273.639 33.1144C273.958 33.3034 274.237 33.5534 274.46 33.8501L278.991 39.892L290.631 22.4332C291.047 21.811 291.693 21.3793 292.427 21.233C293.161 21.0867 293.923 21.2377 294.545 21.6528C295.168 22.068 295.601 22.7134 295.748 23.4472C295.895 24.181 295.745 24.9433 295.331 25.5666L281.477 46.3472C281.226 46.723 280.889 47.0333 280.494 47.252C280.099 47.4707 279.657 47.5914 279.205 47.6041C279.179 47.6045 279.153 47.605 279.127 47.605Z" fill="white"/>
</g>
<g filter="url(#filter1_d_29_49)">
<circle cx="236" cy="189" r="112" fill="#00296B"/>
</g>
<g filter="url(#filter2_d_29_49)">
<path d="M386.661 223.574H255.922C246.95 223.564 238.349 219.996 232.005 213.651C225.66 207.307 222.092 198.706 222.082 189.734V120.199C222.083 119.111 222.516 118.068 223.285 117.299C224.055 116.53 225.098 116.097 226.186 116.095H386.661C387.749 116.097 388.792 116.53 389.561 117.299C390.331 118.068 390.763 119.111 390.765 120.199V219.47C390.763 220.558 390.331 221.601 389.561 222.371C388.792 223.14 387.749 223.573 386.661 223.574Z" fill="white"/>
<path d="M386.661 223.946H255.922C246.852 223.936 238.156 220.328 231.742 213.914C225.328 207.5 221.72 198.804 221.71 189.734V120.2C221.711 119.013 222.183 117.875 223.022 117.036C223.861 116.197 224.999 115.725 226.186 115.724H386.661C387.847 115.725 388.985 116.197 389.824 117.036C390.663 117.875 391.135 119.013 391.137 120.2V219.47C391.135 220.657 390.663 221.795 389.824 222.634C388.985 223.473 387.847 223.945 386.661 223.946ZM226.186 117.211C225.394 117.212 224.634 117.527 224.074 118.087C223.514 118.648 223.198 119.407 223.197 120.2V189.734C223.207 198.41 226.658 206.728 232.793 212.863C238.928 218.998 247.246 222.449 255.922 222.459H386.661C387.453 222.458 388.213 222.143 388.773 221.582C389.333 221.022 389.648 220.263 389.649 219.47V120.2C389.648 119.407 389.333 118.648 388.773 118.087C388.213 117.527 387.453 117.212 386.661 117.211H226.186Z" fill="#CCCCCC"/>
<path d="M354.939 149.621H257.907C257.017 149.621 256.162 149.267 255.532 148.637C254.903 148.007 254.549 147.153 254.549 146.262C254.549 145.372 254.903 144.517 255.532 143.887C256.162 143.257 257.017 142.904 257.907 142.904H354.939C355.83 142.904 356.684 143.257 357.314 143.887C357.944 144.517 358.298 145.372 358.298 146.262C358.298 147.153 357.944 148.007 357.314 148.637C356.684 149.267 355.83 149.621 354.939 149.621Z" fill="#CCCCCC"/>
<path d="M354.939 172.76H257.907C257.017 172.76 256.162 172.406 255.532 171.776C254.903 171.146 254.549 170.292 254.549 169.401C254.549 168.51 254.903 167.656 255.532 167.026C256.162 166.396 257.017 166.042 257.907 166.042H354.939C355.83 166.042 356.684 166.396 357.314 167.026C357.944 167.656 358.298 168.51 358.298 169.401C358.298 170.292 357.944 171.146 357.314 171.776C356.684 172.406 355.83 172.76 354.939 172.76Z" fill="#CCCCCC"/>
<path d="M354.939 196.559H257.907C257.017 196.559 256.162 196.205 255.532 195.575C254.903 194.945 254.549 194.091 254.549 193.2C254.549 192.31 254.903 191.455 255.532 190.825C256.162 190.195 257.017 189.842 257.907 189.842H354.939C355.83 189.842 356.684 190.195 357.314 190.825C357.944 191.455 358.298 192.31 358.298 193.2C358.298 194.091 357.944 194.945 357.314 195.575C356.684 196.205 355.83 196.559 354.939 196.559Z" fill="#CCCCCC"/>
<path d="M386.842 141.339C397.92 141.339 406.9 132.359 406.9 121.281C406.9 110.204 397.92 101.224 386.842 101.224C375.765 101.224 366.785 110.204 366.785 121.281C366.785 132.359 375.765 141.339 386.842 141.339Z" fill="#00296B"/>
<path d="M384.106 131.72C383.76 131.72 383.418 131.64 383.108 131.485C382.799 131.33 382.529 131.105 382.321 130.828L376.849 123.531C376.674 123.297 376.546 123.03 376.473 122.747C376.4 122.463 376.384 122.167 376.426 121.877C376.467 121.587 376.565 121.308 376.715 121.056C376.864 120.804 377.061 120.584 377.296 120.408C377.53 120.232 377.797 120.104 378.081 120.032C378.364 119.959 378.66 119.943 378.95 119.984C379.24 120.026 379.519 120.124 379.771 120.273C380.023 120.422 380.243 120.62 380.419 120.854L383.999 125.627L393.194 111.835C393.522 111.343 394.032 111.001 394.613 110.885C395.193 110.769 395.796 110.888 396.288 111.217C396.78 111.545 397.122 112.055 397.238 112.635C397.354 113.216 397.235 113.818 396.907 114.311L385.963 130.727C385.765 131.024 385.498 131.269 385.186 131.441C384.874 131.614 384.525 131.71 384.168 131.72C384.148 131.72 384.127 131.72 384.106 131.72Z" fill="white"/>
</g>
<g filter="url(#filter3_d_29_49)">
<ellipse cx="365.5" cy="228" rx="92.5" ry="93" fill="#00296B"/>
</g>
<g filter="url(#filter4_d_29_49)">
<path d="M289.988 362.706H159.249C158.161 362.705 157.118 362.272 156.349 361.503C155.579 360.734 155.146 359.691 155.145 358.603V259.332C155.146 258.244 155.579 257.201 156.348 256.432C157.118 255.662 158.161 255.229 159.249 255.228H319.724C320.812 255.229 321.855 255.662 322.625 256.432C323.394 257.201 323.827 258.244 323.828 259.332V328.866C323.818 337.838 320.249 346.44 313.905 352.784C307.561 359.128 298.96 362.696 289.988 362.706Z" fill="white"/>
<path d="M289.988 363.078H159.249C158.062 363.077 156.925 362.605 156.086 361.766C155.247 360.927 154.775 359.789 154.773 358.603V259.332C154.775 258.145 155.247 257.008 156.086 256.169C156.925 255.33 158.062 254.858 159.249 254.856H319.724C320.911 254.858 322.048 255.33 322.887 256.169C323.727 257.008 324.198 258.145 324.2 259.332V328.866C324.189 337.937 320.582 346.633 314.168 353.046C307.754 359.46 299.058 363.068 289.988 363.078ZM159.249 256.344C158.457 256.345 157.697 256.66 157.137 257.22C156.577 257.78 156.262 258.54 156.261 259.332V358.603C156.262 359.395 156.577 360.154 157.137 360.715C157.697 361.275 158.457 361.59 159.249 361.591H289.988C298.664 361.581 306.982 358.13 313.117 351.995C319.252 345.86 322.702 337.542 322.712 328.866V259.332C322.711 258.54 322.396 257.78 321.836 257.22C321.276 256.66 320.516 256.345 319.724 256.344H159.249Z" fill="#CCCCCC"/>
<path d="M288.002 288.753H190.971C190.08 288.753 189.226 288.4 188.596 287.77C187.966 287.14 187.612 286.285 187.612 285.395C187.612 284.504 187.966 283.65 188.596 283.02C189.226 282.39 190.08 282.036 190.971 282.036H288.002C288.892 282.037 289.745 282.392 290.374 283.021C291.003 283.651 291.356 284.505 291.356 285.395C291.356 286.285 291.003 287.138 290.374 287.768C289.745 288.398 288.892 288.752 288.002 288.753Z" fill="#CCCCCC"/>
<path d="M288.002 311.892H190.971C190.08 311.892 189.226 311.538 188.596 310.908C187.966 310.278 187.612 309.424 187.612 308.533C187.612 307.642 187.966 306.788 188.596 306.158C189.226 305.528 190.08 305.174 190.971 305.174H288.002C288.893 305.174 289.747 305.528 290.377 306.158C291.007 306.788 291.361 307.642 291.361 308.533C291.361 309.424 291.007 310.278 290.377 310.908C289.747 311.538 288.893 311.892 288.002 311.892Z" fill="#CCCCCC"/>
<path d="M288.002 335.691H190.971C190.08 335.691 189.226 335.338 188.596 334.708C187.966 334.078 187.612 333.223 187.612 332.333C187.612 331.442 187.966 330.588 188.596 329.958C189.226 329.328 190.08 328.974 190.971 328.974H288.002C288.893 328.974 289.747 329.328 290.377 329.958C291.007 330.588 291.361 331.442 291.361 332.333C291.361 333.223 291.007 334.078 290.377 334.708C289.747 335.338 288.893 335.691 288.002 335.691Z" fill="#CCCCCC"/>
<path d="M318.519 279.674C329.597 279.674 338.577 270.694 338.577 259.617C338.577 248.539 329.597 239.559 318.519 239.559C307.442 239.559 298.462 248.539 298.462 259.617C298.462 270.694 307.442 279.674 318.519 279.674Z" fill="#00296B"/>
<path d="M315.783 270.056C315.437 270.056 315.095 269.975 314.785 269.82C314.476 269.665 314.206 269.44 313.998 269.163L308.526 261.867C308.351 261.633 308.223 261.366 308.15 261.082C308.077 260.798 308.061 260.503 308.103 260.213C308.144 259.923 308.242 259.644 308.392 259.392C308.541 259.14 308.738 258.919 308.973 258.744C309.207 258.568 309.474 258.44 309.758 258.367C310.041 258.295 310.337 258.278 310.627 258.32C310.917 258.361 311.196 258.46 311.448 258.609C311.7 258.758 311.92 258.956 312.096 259.19L315.676 263.963L324.871 250.171C325.199 249.679 325.71 249.337 326.29 249.221C326.87 249.105 327.473 249.224 327.965 249.552C328.457 249.88 328.799 250.391 328.915 250.971C329.031 251.551 328.912 252.154 328.584 252.646L317.64 269.062C317.442 269.359 317.176 269.604 316.863 269.777C316.551 269.95 316.202 270.045 315.845 270.055C315.825 270.056 315.804 270.056 315.783 270.056Z" fill="white"/>
</g>
<defs>
<filter id="filter0_d_29_49" x="55.7809" y="0" width="252.2" height="168.16" filterUnits="userSpaceOnUse" color-interpolation-filters="sRGB">
<feFlood flood-opacity="0" result="BackgroundImageFix"/>
<feColorMatrix in="SourceAlpha" type="matrix" values="0 0 0 0 0 0 0 0 0 0 0 0 0 0 0 0 0 0 127 0" result="hardAlpha"/>
<feOffset dx="-5" dy="-5"/>
<feGaussianBlur stdDeviation="2"/>
<feComposite in2="hardAlpha" operator="out"/>
<feColorMatrix type="matrix" values="0 0 0 0 0 0 0 0 0 0 0 0 0 0 0 0 0 0 0.25 0"/>
<feBlend mode="normal" in2="BackgroundImageFix" result="effect1_dropShadow_29_49"/>
<feBlend mode="normal" in="SourceGraphic" in2="effect1_dropShadow_29_49" result="shape"/>
</filter>
<filter id="filter1_d_29_49" x="115" y="68" width="233" height="233" filterUnits="userSpaceOnUse" color-interpolation-filters="sRGB">
<feFlood flood-opacity="0" result="BackgroundImageFix"/>
<feColorMatrix in="SourceAlpha" type="matrix" values="0 0 0 0 0 0 0 0 0 0 0 0 0 0 0 0 0 0 127 0" result="hardAlpha"/>
<feOffset dx="-5" dy="-5"/>
<feGaussianBlur stdDeviation="2"/>
<feComposite in2="hardAlpha" operator="out"/>
<feColorMatrix type="matrix" values="0 0 0 0 0 0 0 0 0 0 0 0 0 0 0 0 0 0 0.25 0"/>
<feBlend mode="normal" in2="BackgroundImageFix" result="effect1_dropShadow_29_49"/>
<feBlend mode="normal" in="SourceGraphic" in2="effect1_dropShadow_29_49" result="shape"/>
</filter>
<filter id="filter2_d_29_49" x="212.71" y="92.2236" width="194.19" height="131.722" filterUnits="userSpaceOnUse" color-interpolation-filters="sRGB">
<feFlood flood-opacity="0" result="BackgroundImageFix"/>
<feColorMatrix in="SourceAlpha" type="matrix" values="0 0 0 0 0 0 0 0 0 0 0 0 0 0 0 0 0 0 127 0" result="hardAlpha"/>
<feOffset dx="-5" dy="-5"/>
<feGaussianBlur stdDeviation="2"/>
<feComposite in2="hardAlpha" operator="out"/>
<feColorMatrix type="matrix" values="0 0 0 0 0 0 0 0 0 0 0 0 0 0 0 0 0 0 0.25 0"/>
<feBlend mode="normal" in2="BackgroundImageFix" result="effect1_dropShadow_29_49"/>
<feBlend mode="normal" in="SourceGraphic" in2="effect1_dropShadow_29_49" result="shape"/>
</filter>
<filter id="filter3_d_29_49" x="264" y="126" width="194" height="195" filterUnits="userSpaceOnUse" color-interpolation-filters="sRGB">
<feFlood flood-opacity="0" result="BackgroundImageFix"/>
<feColorMatrix in="SourceAlpha" type="matrix" values="0 0 0 0 0 0 0 0 0 0 0 0 0 0 0 0 0 0 127 0" result="hardAlpha"/>
<feOffset dx="-5" dy="-5"/>
<feGaussianBlur stdDeviation="2"/>
<feComposite in2="hardAlpha" operator="out"/>
<feColorMatrix type="matrix" values="0 0 0 0 0 0 0 0 0 0 0 0 0 0 0 0 0 0 0.25 0"/>
<feBlend mode="normal" in2="BackgroundImageFix" result="effect1_dropShadow_29_49"/>
<feBlend mode="normal" in="SourceGraphic" in2="effect1_dropShadow_29_49" result="shape"/>
</filter>
<filter id="filter4_d_29_49" x="145.773" y="230.559" width="192.803" height="132.519" filterUnits="userSpaceOnUse" color-interpolation-filters="sRGB">
<feFlood flood-opacity="0" result="BackgroundImageFix"/>
<feColorMatrix in="SourceAlpha" type="matrix" values="0 0 0 0 0 0 0 0 0 0 0 0 0 0 0 0 0 0 127 0" result="hardAlpha"/>
<feOffset dx="-5" dy="-5"/>
<feGaussianBlur stdDeviation="2"/>
<feComposite in2="hardAlpha" operator="out"/>
<feColorMatrix type="matrix" values="0 0 0 0 0 0 0 0 0 0 0 0 0 0 0 0 0 0 0.25 0"/>
<feBlend mode="normal" in2="BackgroundImageFix" result="effect1_dropShadow_29_49"/>
<feBlend mode="normal" in="SourceGraphic" in2="effect1_dropShadow_29_49" result="shape"/>
</filter>
</defs>
</svg>
