<?xml version="1.0" encoding="UTF-8"?>
<!DOCTYPE svg PUBLIC "-//W3C//DTD SVG 1.1//EN" "http://www.w3.org/Graphics/SVG/1.1/DTD/svg11.dtd">
<!-- Creator: CorelDRAW X7 -->
<svg xmlns="http://www.w3.org/2000/svg" xml:space="preserve" width="10mm" height="10mm" version="1.1" style="shape-rendering:geometricPrecision; text-rendering:geometricPrecision; image-rendering:optimizeQuality; fill-rule:evenodd; clip-rule:evenodd"
viewBox="0 0 1000 1000"
 xmlns:xlink="http://www.w3.org/1999/xlink">
 <defs>
  <style type="text/css">
   <![CDATA[
    .fil0 {fill:#003F88}
    .fil1 {fill:#FDC502}
    .fil2 {fill:#003F88;fill-rule:nonzero}
    .fil3 {fill:#FDC502;fill-rule:nonzero}
   ]]>
  </style>
 </defs>
 <g id="Camada_x0020_1">
  <metadata id="CorelCorpID_0Corel-Layer"/>
  <g id="_2589456050320">
   <path class="fil0" d="M-37 195l383 255 29 -130 -344 -164 -5 -477 433 156 -40 69c9,17 70,117 69,127l-8 62 74 38 -15 -100c-2,-10 59,-110 69,-127l-40 -69 433 -156 -5 477 -344 164 29 130 383 -255 -1 -618 -370 -137c-38,-14 -84,-34 -126,-44l354 207 -408 214 -407 -214 354 -207c-42,10 -88,30 -126,44l-370 137 -1 618z"/>
   <polygon class="fil0" points="513,779 638,593 579,278 456,213 392,596 "/>
   <polygon class="fil1" points="463,175 573,233 564,179 471,133 "/>
  </g>
  <path class="fil2" d="M963 1114c-8,-10 -15,-22 -20,-36 -5,-15 -7,-31 -7,-49 0,-18 2,-34 7,-48 5,-14 12,-26 21,-35 19,-20 45,-30 76,-30 25,0 46,6 61,18 6,5 11,11 14,17 3,6 4,10 4,13 0,4 0,6 0,8 0,2 -1,4 -2,6 -2,4 -6,6 -13,6l-13 0c-3,0 -4,0 -5,-2 -1,-2 -2,-5 -2,-8 -1,-3 -2,-6 -3,-9 -2,-3 -4,-6 -8,-9 -8,-6 -18,-9 -31,-9 -13,0 -24,2 -32,6 -8,4 -14,10 -20,17 -10,15 -15,34 -15,58 0,24 4,44 14,59 11,17 27,26 49,26 23,0 37,-6 42,-19 2,-3 3,-7 3,-10 0,-4 -1,-7 -2,-11 -1,-3 -2,-6 -5,-9 -5,-8 -13,-13 -24,-15 -3,-1 -6,-2 -8,-5 -3,-2 -4,-5 -4,-9l0 -5c0,-2 1,-4 2,-5 2,-1 4,-2 6,-2l68 0c5,0 8,2 8,7l0 16c0,2 -1,3 -2,5 -2,1 -4,1 -6,1l-21 0c10,5 18,13 21,25 2,4 2,8 2,12 0,5 0,9 -1,13 -2,4 -3,8 -6,12 -3,4 -6,8 -10,12 -4,3 -10,7 -16,10 -13,6 -29,10 -46,10 -17,0 -32,-3 -44,-8 -12,-6 -23,-14 -32,-24z"/>
  <path class="fil2" d="M697 1087c-4,-9 -8,-18 -10,-28 -2,-10 -3,-21 -3,-35 0,-13 3,-27 8,-40 5,-14 12,-26 22,-36 20,-22 46,-32 78,-32 33,0 60,11 79,32 19,21 28,48 28,81 0,33 -10,61 -30,83 -10,10 -21,18 -35,24 -13,6 -26,10 -40,10 -13,0 -25,-2 -35,-5 -9,-3 -18,-7 -26,-12 -8,-5 -15,-11 -21,-18 -6,-7 -11,-15 -15,-24zm26 -59c0,11 2,22 4,32 3,10 7,19 13,26 12,18 29,26 51,26 22,0 40,-8 52,-24 11,-15 16,-35 16,-59 0,-23 -5,-41 -17,-56 -12,-16 -29,-24 -51,-24 -21,0 -37,7 -49,22 -13,15 -19,34 -19,57z"/>
  <path class="fil2" d="M528 929c0,-3 1,-5 3,-7 1,-2 3,-3 6,-3l20 0c2,0 4,1 6,3 1,2 2,4 2,7l0 181 79 0c2,0 4,0 5,2 2,1 2,3 2,6l0 16c0,2 0,4 -2,6 -1,1 -3,2 -5,2l-108 0c-2,0 -4,-1 -5,-3 -2,-2 -3,-4 -3,-6l0 -204z"/>
  <path class="fil2" d="M307 932c0,-6 3,-10 7,-12 1,0 3,-1 5,-1l67 0c19,0 35,4 49,12 16,10 24,25 24,44 0,14 -4,25 -12,34 -7,8 -15,13 -26,15l0 1c15,0 27,5 37,13 11,9 16,21 16,37 0,23 -8,40 -25,52 -14,10 -34,15 -59,15l-71 0c-4,0 -7,-1 -9,-4 -2,-2 -3,-5 -3,-9l0 -197zm82 179c22,0 36,-6 43,-18 2,-5 4,-10 4,-16 0,-6 -1,-11 -3,-14 -1,-4 -4,-7 -6,-9 -3,-3 -7,-5 -10,-6 -4,-2 -8,-3 -12,-4 -7,-1 -15,-2 -22,-2 -9,0 -19,0 -29,1l-10 0 0 68 45 0zm-45 -97c14,0 26,0 35,-1 15,-1 26,-4 33,-10 7,-6 10,-14 10,-24 0,-10 -4,-18 -11,-22 -7,-5 -19,-7 -33,-7l-34 0 0 64z"/>
  <path class="fil2" d="M54 1087c-4,-9 -7,-18 -9,-28 -2,-10 -3,-21 -3,-35 0,-13 2,-27 7,-40 5,-14 13,-26 22,-36 20,-22 46,-32 78,-32 34,0 61,11 80,32 18,21 27,48 27,81 0,33 -10,61 -30,83 -9,10 -21,18 -34,24 -13,6 -27,10 -40,10 -14,0 -26,-2 -35,-5 -10,-3 -18,-7 -26,-12 -8,-5 -15,-11 -21,-18 -6,-7 -12,-15 -16,-24zm27 -59c0,11 1,22 4,32 2,10 7,19 12,26 12,18 29,26 52,26 22,0 39,-8 51,-24 11,-15 17,-35 17,-59 0,-23 -6,-41 -17,-56 -13,-16 -30,-24 -51,-24 -21,0 -38,7 -50,22 -12,15 -18,34 -18,57z"/>
  <path class="fil3" d="M-63 1116c17,0 25,-14 25,-42l0 -145c0,-3 1,-5 2,-7 2,-2 4,-3 6,-3l21 0c2,0 4,1 5,3 1,2 2,4 2,7l0 153c0,21 -5,38 -16,49 -9,10 -22,15 -39,15 -10,0 -18,-1 -23,-4 -5,-2 -9,-4 -11,-6 -2,-2 -3,-4 -3,-6 0,-2 0,-4 1,-5l1 -5c2,-6 4,-9 7,-9 1,0 2,0 4,1l4 1c5,2 9,3 14,3z"/>
 </g>
</svg>
