<?xml version="1.0" encoding="iso-8859-1"?>
<!-- Generator: Adobe Illustrator 19.0.0, SVG Export Plug-In . SVG Version: 6.00 Build 0)  -->
<svg version="1.1" id="Layer_1" xmlns="http://www.w3.org/2000/svg" xmlns:xlink="http://www.w3.org/1999/xlink" x="0px" y="0px"
	 viewBox="0 0 392.469 392.469" style="enable-background:new 0 0 392.469 392.469;" xml:space="preserve">
<path style="fill:#FFFFFF;" d="M359.822,53.716H32.711c-6.012,0-10.925,4.848-10.925,10.925v212.17
	c0,6.012,4.848,10.925,10.925,10.925h204.218v-29.543c-14.998-12.024-24.63-30.448-24.63-51.135
	c0-36.137,29.414-65.552,65.552-65.552s65.552,29.414,65.552,65.552c0,20.687-9.632,39.176-24.63,51.135v29.414h41.115
	c6.012,0,10.925-4.848,10.925-10.925V64.576C370.747,58.629,365.834,53.716,359.822,53.716z"/>
<path style="fill:#FFFFFF;" d="M318.772,265.885h19.329c6.012,0,10.925-4.848,10.925-10.925V86.362
	c0-6.012-4.849-10.925-10.925-10.925H54.562c-6.012,0-10.925,4.848-10.925,10.925V254.96c0,6.012,4.848,10.925,10.925,10.925
	h182.432"/>
<g>
	<path style="fill:#FFFFFF;" d="M258.78,269.764v60.444l13.382-8.21c3.491-2.133,7.887-2.133,11.378,0l13.382,8.21v-60.444
		c-6.012,1.875-12.412,2.844-19.071,2.844C271.192,272.609,264.792,271.574,258.78,269.764z"/>
	<path style="fill:#FFFFFF;" d="M321.616,207.057c0-24.113-19.653-43.766-43.766-43.766c-24.113,0-43.766,19.653-43.766,43.766
		s19.653,43.766,43.766,43.766C301.964,250.823,321.616,231.17,321.616,207.057z"/>
</g>
<g>
	<path style="fill:#FFC10D;" d="M320.129,110.023H72.404c-6.012,0-10.925-4.848-10.925-10.925c0-6.077,4.848-10.925,10.925-10.925
		h247.725c6.012,0,10.925,4.848,10.925,10.925C331.055,105.174,326.141,110.023,320.129,110.023z"/>
	<path style="fill:#FFC10D;" d="M174.028,157.797H72.404c-6.012,0-10.925-4.848-10.925-10.925c0-6.012,4.848-10.925,10.925-10.925
		h101.56c6.012,0,10.925,4.848,10.925,10.925C184.889,152.819,179.976,157.797,174.028,157.797z"/>
	<path style="fill:#FFC10D;" d="M174.028,205.441H72.404c-6.012,0-10.925-4.848-10.925-10.925c0-6.077,4.848-10.925,10.925-10.925
		h101.56c6.012,0,10.925,4.848,10.925,10.925C184.824,200.593,179.976,205.441,174.028,205.441z"/>
	<path style="fill:#FFC10D;" d="M174.028,253.15H72.404c-6.012,0-10.925-4.848-10.925-10.925c0-6.012,4.848-10.925,10.925-10.925
		h101.56c6.012,0,10.925,4.848,10.925,10.925C184.889,248.237,179.976,253.15,174.028,253.15z"/>
	<path style="fill:#FFC10D;" d="M359.822,31.93H32.711C14.675,31.93,0,46.605,0,64.641v212.17c0,18.036,14.675,32.711,32.711,32.711
		h204.218v40.081c0.065,8.339,9.568,13.899,16.614,9.244l24.242-14.869l24.242,14.869c6.982,4.461,16.614-0.84,16.614-9.244v-40.081
		h41.115c18.036,0,32.711-14.675,32.711-32.711V64.576C392.533,46.605,377.859,31.93,359.822,31.93z M296.857,330.273l-13.317-8.21
		c-3.491-2.133-7.887-2.133-11.378,0l-13.382,8.21v-60.444c6.012,1.875,12.412,2.844,19.071,2.844s13.059-1.034,19.071-2.844v60.444
		L296.857,330.273L296.857,330.273z M277.851,250.823c-24.113,0-43.766-19.653-43.766-43.766s19.653-43.766,43.766-43.766
		c24.113,0,43.766,19.653,43.766,43.766S301.964,250.823,277.851,250.823z M370.747,276.811c0,6.012-4.848,10.925-10.925,10.925
		h-41.115v-29.414c14.998-12.024,24.63-30.449,24.63-51.135c0-36.137-29.414-65.552-65.552-65.552s-65.552,29.414-65.552,65.552
		c0,20.622,9.632,39.111,24.63,51.135v29.543H32.711c-6.012,0-10.925-4.848-10.925-10.925V64.576
		c0-6.012,4.848-10.925,10.925-10.925h327.111c6.012,0,10.925,4.848,10.925,10.925v212.17l0,0V276.811z"/>
</g>
<g>
</g>
<g>
</g>
<g>
</g>
<g>
</g>
<g>
</g>
<g>
</g>
<g>
</g>
<g>
</g>
<g>
</g>
<g>
</g>
<g>
</g>
<g>
</g>
<g>
</g>
<g>
</g>
<g>
</g>
</svg>
