<svg width="500" height="437" viewBox="0 0 500 437" fill="none" xmlns="http://www.w3.org/2000/svg">
<path d="M175.675 69.5844C270.999 -14.9805 502.224 69.5844 502.224 69.5844V436.416H164.5C164.5 436.416 69.5136 388.8 44 332C-2.9801 227.409 68.4065 164.745 175.675 69.5844Z" fill="#00296B"/>
<g filter="url(#filter0_d_13_109)">
<path d="M175.944 6.73922L165.173 12.6228L32.4701 85.1093L21.699 90.9928C16.4725 93.8554 12.5936 98.6765 10.9133 104.399C9.23306 110.121 9.88862 116.276 12.7362 121.515L111.557 302.833C114.416 308.066 119.232 311.949 124.948 313.631C130.663 315.313 136.812 314.657 142.045 311.806L142.073 311.791L296.262 227.568L296.29 227.553C301.516 224.69 305.395 219.869 307.076 214.147C308.756 208.425 308.1 202.269 305.253 197.03L206.432 15.7121C203.573 10.4798 198.757 6.59653 193.041 4.91437C187.326 3.2322 181.177 3.88848 175.944 6.73922Z" fill="#F2F2F2"/>
<path d="M179.043 12.424L166.285 19.3926L37.555 89.7092L24.7975 96.6777C21.0755 98.7162 18.3133 102.149 17.1167 106.224C15.9201 110.299 16.387 114.683 18.4148 118.413L117.235 299.732C119.272 303.458 122.701 306.223 126.771 307.421C130.842 308.619 135.22 308.151 138.947 306.121L138.975 306.106L293.164 221.883L293.192 221.868C296.914 219.829 299.676 216.396 300.873 212.321C302.069 208.246 301.602 203.863 299.574 200.132L200.754 18.8139C198.718 15.0878 195.288 12.3225 191.218 11.1245C187.148 9.92663 182.769 10.394 179.043 12.424Z" fill="white"/>
<path d="M181.17 68.7053L123.663 100.117C122.792 100.593 121.767 100.703 120.815 100.423C119.863 100.143 119.061 99.4953 118.586 98.6231C118.11 97.751 118.001 96.7255 118.281 95.7723C118.56 94.8191 119.207 94.0162 120.078 93.5404L177.585 62.1283C178.456 61.6524 179.481 61.5425 180.433 61.8227C181.385 62.103 182.187 62.7504 182.662 63.6225C183.138 64.4947 183.247 65.5202 182.967 66.4734C182.688 67.4266 182.041 68.2294 181.17 68.7053H181.17Z" fill="#F2F2F2"/>
<path d="M200.768 72.4026L129.712 111.216C128.841 111.692 127.816 111.802 126.864 111.522C125.912 111.241 125.11 110.594 124.635 109.722C124.159 108.85 124.05 107.824 124.329 106.871C124.609 105.918 125.256 105.115 126.127 104.639L197.184 65.8256C197.615 65.59 198.089 65.4417 198.577 65.3893C199.066 65.3368 199.56 65.3813 200.031 65.52C200.503 65.6588 200.942 65.8891 201.325 66.1979C201.707 66.5067 202.025 66.8879 202.261 67.3198C202.496 67.7516 202.644 68.2257 202.697 68.7148C202.749 69.204 202.705 69.6987 202.566 70.1706C202.427 70.6426 202.197 71.0826 201.889 71.4656C201.58 71.8486 201.2 72.1669 200.768 72.4026H200.768Z" fill="#F2F2F2"/>
<path d="M100.021 87.0416L47.0033 116.002C46.586 116.23 46.2762 116.615 46.1421 117.071C46.008 117.528 46.0606 118.019 46.2882 118.437L68.8646 159.861C69.0924 160.279 69.4767 160.589 69.9329 160.723C70.389 160.857 70.8798 160.805 71.2973 160.577L124.315 131.617C124.733 131.389 125.042 131.004 125.176 130.547C125.31 130.09 125.258 129.599 125.03 129.181L102.454 87.7576C102.226 87.3398 101.842 87.0297 101.386 86.8954C100.929 86.7611 100.439 86.8137 100.021 87.0416Z" fill="#F2F2F2"/>
<path d="M209.703 121.265L131.702 163.872C131.271 164.107 130.797 164.255 130.309 164.308C129.82 164.36 129.326 164.316 128.855 164.177C128.383 164.038 127.944 163.808 127.561 163.499C127.179 163.19 126.86 162.809 126.625 162.377C126.39 161.946 126.242 161.472 126.189 160.982C126.137 160.493 126.181 159.999 126.32 159.527C126.458 159.055 126.689 158.615 126.997 158.232C127.306 157.849 127.686 157.53 128.118 157.295L206.118 114.688C206.99 114.212 208.014 114.102 208.966 114.383C209.918 114.663 210.72 115.31 211.195 116.182C211.671 117.055 211.781 118.08 211.501 119.033C211.221 119.986 210.574 120.789 209.703 121.265H209.703Z" fill="#F2F2F2"/>
<path d="M229.302 124.962L137.751 174.97C136.88 175.446 135.856 175.556 134.904 175.276C133.951 174.996 133.15 174.348 132.674 173.476C132.199 172.604 132.089 171.578 132.369 170.625C132.649 169.672 133.296 168.869 134.167 168.393L225.717 118.385C226.589 117.91 227.613 117.8 228.565 118.08C229.517 118.36 230.319 119.007 230.794 119.88C231.27 120.752 231.38 121.777 231.1 122.73C230.82 123.684 230.173 124.487 229.302 124.962H229.302Z" fill="#F2F2F2"/>
<path d="M101.996 198.765C110.764 198.765 117.871 191.649 117.871 182.872C117.871 174.094 110.764 166.979 101.996 166.979C93.2282 166.979 86.1206 174.094 86.1206 182.872C86.1206 191.649 93.2282 198.765 101.996 198.765Z" fill="#F2F2F2"/>
<g filter="url(#filter1_d_13_109)">
<path d="M339.524 81.4509H163.813C157.855 81.4576 152.144 83.8299 147.931 88.0472C143.719 92.2645 141.349 97.9825 141.342 103.947V310.499C141.349 316.463 143.719 322.181 147.931 326.398C152.144 330.615 157.855 332.988 163.813 332.994H339.524C345.481 332.988 351.193 330.615 355.406 326.398C359.618 322.181 361.988 316.463 361.994 310.499V103.947C361.988 97.9825 359.618 92.2645 355.406 88.0472C351.193 83.8299 345.481 81.4576 339.524 81.4509Z" fill="#E6E6E6"/>
</g>
<path d="M339.524 87.927H163.813C159.57 87.9318 155.503 89.6211 152.503 92.6243C149.503 95.6276 147.816 99.6995 147.811 103.947V310.499C147.816 314.746 149.503 318.818 152.503 321.821C155.503 324.824 159.57 326.514 163.813 326.518H339.524C343.767 326.514 347.834 324.824 350.834 321.821C353.834 318.818 355.521 314.746 355.526 310.499V103.947C355.521 99.6995 353.834 95.6276 350.834 92.6244C347.834 89.6211 343.767 87.9318 339.524 87.927Z" fill="white"/>
<path d="M314.465 138.352H248.955C247.962 138.352 247.011 137.958 246.309 137.255C245.607 136.553 245.213 135.6 245.213 134.606C245.213 133.613 245.607 132.66 246.309 131.957C247.011 131.255 247.962 130.86 248.955 130.86H314.465C314.956 130.86 315.444 130.956 315.898 131.144C316.352 131.332 316.765 131.608 317.113 131.956C317.461 132.304 317.737 132.717 317.926 133.172C318.114 133.626 318.211 134.114 318.211 134.606C318.211 135.099 318.114 135.586 317.926 136.041C317.737 136.496 317.461 136.909 317.113 137.257C316.765 137.605 316.352 137.88 315.898 138.068C315.444 138.256 314.956 138.353 314.465 138.352Z" fill="#FFD500"/>
<path d="M329.9 150.996H248.955C247.962 150.996 247.011 150.601 246.309 149.898C245.607 149.196 245.213 148.243 245.213 147.25C245.213 146.256 245.607 145.303 246.309 144.601C247.011 143.898 247.962 143.503 248.955 143.503H329.9C330.893 143.503 331.844 143.898 332.546 144.601C333.248 145.303 333.642 146.256 333.642 147.25C333.642 148.243 333.248 149.196 332.546 149.898C331.844 150.601 330.893 150.996 329.9 150.996Z" fill="#FFD500"/>
<path d="M234.457 115.538H174.061C173.585 115.538 173.13 115.727 172.793 116.064C172.457 116.401 172.268 116.857 172.268 117.333V164.521C172.268 164.998 172.457 165.454 172.793 165.791C173.13 166.127 173.585 166.316 174.061 166.316H234.457C234.933 166.316 235.389 166.127 235.725 165.791C236.061 165.454 236.25 164.998 236.25 164.521V117.333C236.25 116.857 236.061 116.401 235.725 116.064C235.389 115.727 234.933 115.538 234.457 115.538Z" fill="#E6E6E6"/>
<path d="M190.628 144.515C190.653 148.499 189.186 152.347 186.517 155.302C183.876 158.203 179.945 160.128 175.977 159.332C172.324 158.598 169.356 155.402 169.726 151.535C169.787 150.697 170.03 149.883 170.438 149.149C170.846 148.415 171.409 147.779 172.088 147.286C172.767 146.792 173.545 146.452 174.368 146.29C175.191 146.128 176.039 146.148 176.854 146.348C180.325 147.25 181.708 152.257 178.816 154.608C178.122 155.172 177.125 154.185 177.825 153.616C179.737 152.062 179.146 148.663 176.839 147.811C174.152 146.818 171.306 148.953 171.113 151.703C170.884 154.963 173.378 157.418 176.437 157.996C179.747 158.621 183.028 156.925 185.271 154.585C187.841 151.867 189.259 148.258 189.227 144.515C189.234 144.333 189.31 144.161 189.441 144.035C189.572 143.909 189.746 143.838 189.928 143.838C190.109 143.838 190.284 143.909 190.415 144.035C190.545 144.161 190.622 144.333 190.628 144.515Z" fill="#00509D"/>
<path d="M204.306 153.43C218.107 153.43 229.295 142.229 229.295 128.413C229.295 114.596 218.107 103.396 204.306 103.396C190.505 103.396 179.317 114.596 179.317 128.413C179.317 142.229 190.505 153.43 204.306 153.43Z" fill="#FFD500"/>
<path d="M203.028 139.087L203.002 138.152C204.739 138.104 206.271 137.995 207.421 137.153C207.748 136.901 208.016 136.581 208.208 136.216C208.4 135.851 208.511 135.448 208.533 135.036C208.554 134.784 208.516 134.531 208.422 134.297C208.329 134.062 208.183 133.852 207.995 133.683C207.231 133.037 206.002 133.246 205.106 133.658L204.333 134.012L205.815 123.172L206.74 123.299L205.48 132.52C206.697 132.162 207.825 132.316 208.598 132.969C208.895 133.229 209.127 133.553 209.278 133.917C209.429 134.282 209.493 134.676 209.467 135.069C209.439 135.623 209.291 136.164 209.033 136.654C208.775 137.145 208.413 137.573 207.972 137.908C206.494 138.99 204.572 139.044 203.028 139.087Z" fill="#00509D"/>
<path d="M216.345 124.094H211.315V125.029H216.345V124.094Z" fill="#00509D"/>
<path d="M200.47 124.094H195.44V125.029H200.47V124.094Z" fill="#00509D"/>
<path d="M190.464 166.317C192.337 165.127 194.361 164.194 196.483 163.545C196.28 162.824 196.283 162.062 196.492 161.343C196.773 160.435 197.341 159.643 198.109 159.084C198.877 158.526 199.805 158.231 200.755 158.244H206.843C207.795 158.232 208.724 158.527 209.494 159.086C210.264 159.646 210.833 160.439 211.116 161.348C211.324 162.065 211.328 162.826 211.125 163.545C213.246 164.195 215.27 165.127 217.144 166.317H190.464Z" fill="#00509D"/>
<path d="M232.93 119.128C232.475 118.576 231.915 118.12 231.282 117.787C230.727 117.497 230.111 117.344 229.485 117.343C228.625 117.353 227.79 117.634 227.099 118.147C225.198 119.493 223.882 122.396 223.882 125.757C223.882 129.973 225.955 133.469 228.649 134.077C228.923 134.139 229.203 134.17 229.485 134.171C232.571 134.171 235.088 130.398 235.088 125.757C235.088 123.064 234.243 120.666 232.93 119.128Z" fill="#00509D"/>
<path d="M181.607 117.946H181.602C180.978 117.558 180.259 117.349 179.524 117.343C178.898 117.344 178.282 117.496 177.726 117.787C177.094 118.12 176.534 118.576 176.078 119.128L176.074 119.133C174.766 120.671 173.921 123.069 173.921 125.757C173.921 129.384 175.453 132.478 177.6 133.661C178.188 133.991 178.85 134.166 179.524 134.171C179.674 134.17 179.824 134.161 179.972 134.142H179.977C182.853 133.797 185.127 130.169 185.127 125.757C185.127 122.223 183.666 119.189 181.607 117.946Z" fill="#00509D"/>
<path d="M177.951 132.857C178.062 132.857 178.171 132.83 178.27 132.779C178.369 132.728 178.454 132.655 178.519 132.564C178.584 132.474 178.627 132.369 178.643 132.259C178.66 132.149 178.65 132.037 178.614 131.931C177.276 127.946 176.873 123.706 177.438 119.54C178.002 115.373 179.519 111.394 181.869 107.91C184.22 104.426 187.341 101.531 190.991 99.4512C194.641 97.3713 198.72 96.1619 202.913 95.917C207.105 95.6721 211.298 96.3983 215.164 98.0392C219.031 99.6802 222.468 102.192 225.207 105.378C227.946 108.565 229.915 112.341 230.96 116.413C232.004 120.485 232.097 124.744 231.23 128.858C231.192 129.04 231.227 129.23 231.329 129.385C231.43 129.541 231.589 129.65 231.771 129.689C231.953 129.727 232.142 129.692 232.298 129.59C232.454 129.488 232.563 129.329 232.601 129.147C233.513 124.822 233.416 120.345 232.318 116.063C231.22 111.781 229.15 107.811 226.27 104.46C223.39 101.11 219.777 98.4689 215.712 96.7436C211.646 95.0182 207.238 94.2547 202.83 94.5122C198.422 94.7698 194.133 96.0416 190.296 98.2287C186.459 100.416 183.177 103.459 180.706 107.123C178.235 110.786 176.641 114.971 176.048 119.351C175.455 123.731 175.879 128.19 177.287 132.379C177.334 132.518 177.423 132.639 177.542 132.725C177.661 132.81 177.804 132.857 177.951 132.857Z" fill="#00509D"/>
<path d="M216.859 112.204C217.849 113.556 217.361 115.378 216.319 116.544C214.962 118.061 212.798 118.157 210.92 117.875C208.812 117.559 206.576 116.571 204.442 117.237C202.624 117.805 201.326 119.456 199.437 119.871C197.761 120.239 195.757 119.752 195.169 117.964C194.887 117.105 196.239 116.736 196.52 117.591C196.9 118.748 198.541 118.725 199.481 118.404C200.988 117.891 202.149 116.642 203.63 116.045C205.376 115.342 207.27 115.659 209.048 116.06C210.723 116.438 212.651 116.998 214.32 116.292C215.556 115.77 216.538 114.125 215.65 112.911C215.117 112.183 216.331 111.482 216.859 112.204Z" fill="#00509D"/>
<path d="M314.366 198.173H225.51C225.019 198.173 224.532 198.076 224.078 197.888C223.624 197.7 223.212 197.424 222.864 197.076C222.517 196.728 222.241 196.315 222.053 195.861C221.865 195.406 221.768 194.919 221.768 194.427C221.768 193.935 221.865 193.448 222.053 192.993C222.241 192.539 222.517 192.126 222.864 191.778C223.212 191.43 223.624 191.154 224.078 190.966C224.532 190.778 225.019 190.681 225.51 190.681H314.366C315.358 190.682 316.308 191.077 317.009 191.78C317.71 192.482 318.104 193.434 318.104 194.427C318.104 195.42 317.71 196.372 317.009 197.074C316.308 197.777 315.358 198.172 314.366 198.173Z" fill="#E6E6E6"/>
<path d="M329.802 210.816H225.51C225.019 210.817 224.532 210.721 224.077 210.533C223.623 210.345 223.21 210.069 222.862 209.721C222.514 209.373 222.238 208.96 222.049 208.505C221.861 208.05 221.764 207.563 221.764 207.07C221.764 206.578 221.861 206.091 222.049 205.636C222.238 205.181 222.514 204.768 222.862 204.42C223.21 204.072 223.623 203.796 224.077 203.608C224.532 203.42 225.019 203.324 225.51 203.324H329.802C330.293 203.324 330.781 203.42 331.235 203.608C331.689 203.796 332.102 204.072 332.45 204.42C332.798 204.768 333.074 205.181 333.263 205.636C333.451 206.091 333.548 206.578 333.548 207.07C333.548 207.563 333.451 208.05 333.263 208.505C333.074 208.96 332.798 209.373 332.45 209.721C332.102 210.069 331.689 210.345 331.235 210.533C330.781 210.721 330.293 210.817 329.802 210.816Z" fill="#E6E6E6"/>
<path d="M314.366 243.615H225.51C224.518 243.615 223.566 243.22 222.864 242.518C222.162 241.815 221.768 240.862 221.768 239.869C221.768 238.875 222.162 237.922 222.864 237.22C223.566 236.517 224.518 236.123 225.51 236.123H314.366C315.358 236.123 316.31 236.517 317.012 237.22C317.714 237.922 318.108 238.875 318.108 239.869C318.108 240.862 317.714 241.815 317.012 242.518C316.31 243.22 315.358 243.615 314.366 243.615Z" fill="#E6E6E6"/>
<path d="M329.802 256.258H225.51C224.518 256.258 223.566 255.863 222.864 255.161C222.162 254.458 221.768 253.506 221.768 252.512C221.768 251.518 222.162 250.566 222.864 249.863C223.566 249.161 224.518 248.766 225.51 248.766H329.802C330.794 248.766 331.746 249.161 332.447 249.863C333.149 250.566 333.543 251.518 333.543 252.512C333.543 253.506 333.149 254.458 332.447 255.161C331.746 255.863 330.794 256.258 329.802 256.258Z" fill="#E6E6E6"/>
<path d="M190.343 216.501C199.11 216.501 206.218 209.385 206.218 200.608C206.218 191.83 199.11 184.715 190.343 184.715C181.575 184.715 174.467 191.83 174.467 200.608C174.467 209.385 181.575 216.501 190.343 216.501Z" fill="#E6E6E6"/>
<path d="M190.343 262.311C199.11 262.311 206.218 255.195 206.218 246.418C206.218 237.64 199.11 230.524 190.343 230.524C181.575 230.524 174.467 237.64 174.467 246.418C174.467 255.195 181.575 262.311 190.343 262.311Z" fill="#E6E6E6"/>
<path d="M314.366 289.424H225.51C224.518 289.424 223.566 289.03 222.864 288.327C222.162 287.625 221.768 286.672 221.768 285.678C221.768 284.685 222.162 283.732 222.864 283.029C223.566 282.327 224.518 281.932 225.51 281.932H314.366C315.358 281.932 316.31 282.327 317.012 283.029C317.714 283.732 318.108 284.685 318.108 285.678C318.108 286.672 317.714 287.625 317.012 288.327C316.31 289.03 315.358 289.424 314.366 289.424Z" fill="#E6E6E6"/>
<path d="M329.802 302.068H225.51C224.518 302.068 223.566 301.673 222.864 300.971C222.162 300.268 221.768 299.315 221.768 298.322C221.768 297.328 222.162 296.375 222.864 295.673C223.566 294.97 224.518 294.575 225.51 294.575H329.802C330.794 294.575 331.746 294.97 332.447 295.673C333.149 296.375 333.543 297.328 333.543 298.322C333.543 299.315 333.149 300.268 332.447 300.971C331.746 301.673 330.794 302.068 329.802 302.068Z" fill="#E6E6E6"/>
<path d="M190.343 308.12C199.11 308.12 206.218 301.005 206.218 292.227C206.218 283.45 199.11 276.334 190.343 276.334C181.575 276.334 174.467 283.45 174.467 292.227C174.467 301.005 181.575 308.12 190.343 308.12Z" fill="#E6E6E6"/>
</g>
<defs>
<filter id="filter0_d_13_109" x="0" y="0" width="361.994" height="336.994" filterUnits="userSpaceOnUse" color-interpolation-filters="sRGB">
<feFlood flood-opacity="0" result="BackgroundImageFix"/>
<feColorMatrix in="SourceAlpha" type="matrix" values="0 0 0 0 0 0 0 0 0 0 0 0 0 0 0 0 0 0 127 0" result="hardAlpha"/>
<feOffset dx="-6"/>
<feGaussianBlur stdDeviation="2"/>
<feComposite in2="hardAlpha" operator="out"/>
<feColorMatrix type="matrix" values="0 0 0 0 0 0 0 0 0 0 0 0 0 0 0 0 0 0 0.25 0"/>
<feBlend mode="normal" in2="BackgroundImageFix" result="effect1_dropShadow_13_109"/>
<feBlend mode="normal" in="SourceGraphic" in2="effect1_dropShadow_13_109" result="shape"/>
</filter>
<filter id="filter1_d_13_109" x="133.342" y="73.4509" width="228.652" height="259.543" filterUnits="userSpaceOnUse" color-interpolation-filters="sRGB">
<feFlood flood-opacity="0" result="BackgroundImageFix"/>
<feColorMatrix in="SourceAlpha" type="matrix" values="0 0 0 0 0 0 0 0 0 0 0 0 0 0 0 0 0 0 127 0" result="hardAlpha"/>
<feOffset dx="-4" dy="-4"/>
<feGaussianBlur stdDeviation="2"/>
<feComposite in2="hardAlpha" operator="out"/>
<feColorMatrix type="matrix" values="0 0 0 0 0 0 0 0 0 0 0 0 0 0 0 0 0 0 0.25 0"/>
<feBlend mode="normal" in2="BackgroundImageFix" result="effect1_dropShadow_13_109"/>
<feBlend mode="normal" in="SourceGraphic" in2="effect1_dropShadow_13_109" result="shape"/>
</filter>
</defs>
</svg>
