<?xml version="1.0" encoding="UTF-8"?>
<!DOCTYPE svg PUBLIC "-//W3C//DTD SVG 1.1//EN" "http://www.w3.org/Graphics/SVG/1.1/DTD/svg11.dtd">
<!-- Creator: CorelDRAW X7 -->
<svg xmlns="http://www.w3.org/2000/svg" xml:space="preserve" width="100mm" height="100mm" version="1.1" style="shape-rendering:geometricPrecision; text-rendering:geometricPrecision; image-rendering:optimizeQuality; fill-rule:evenodd; clip-rule:evenodd"
viewBox="0 0 10000 10000"
 xmlns:xlink="http://www.w3.org/1999/xlink">
 <defs>
  <style type="text/css">
   <![CDATA[
    .fil0 {fill:#003F88}
    .fil1 {fill:#FDC502}
    .fil2 {fill:#003F88;fill-rule:nonzero}
    .fil3 {fill:#FDC502;fill-rule:nonzero}
   ]]>
  </style>
 </defs>
 <g id="Camada_x0020_1">
  <metadata id="CorelCorpID_0Corel-Layer"/>
  <g id="_2589459145328">
   <g>
    <path class="fil0" d="M247 5312l1108 738 84 -376 -995 -475 -16 -1381 1255 449 -116 202c28,50 203,337 200,366l-23 180 215 110 -45 -290c-5,-28 172,-316 200,-366l-116 -202 1254 -449 -15 1381 -995 475 84 376 1107 -738 -2 -1790 -1070 -397c-110,-40 -245,-99 -366,-128l1025 599 -1180 621 -1179 -621 1025 -599c-122,29 -256,88 -366,128l-1070 397 -3 1790z"/>
    <polygon class="fil0" points="1840,7003 2202,6463 2032,5553 1673,5364 1488,6473 "/>
    <polygon class="fil1" points="1694,5254 2013,5420 1986,5266 1718,5133 "/>
   </g>
   <g>
    <path class="fil2" d="M8955 5416c-44,-50 -78,-111 -102,-183 -24,-72 -37,-153 -37,-241 0,-90 13,-169 38,-238 26,-69 61,-128 106,-176 94,-99 219,-149 375,-149 127,0 227,30 302,89 31,26 55,54 70,84 15,30 23,53 23,69 0,16 -1,29 -1,38 -1,10 -4,19 -9,28 -12,22 -34,33 -67,33l-62 0c-15,0 -24,-4 -29,-12 -5,-10 -9,-23 -10,-39 -2,-16 -7,-32 -15,-46 -7,-15 -19,-29 -36,-42 -39,-30 -91,-46 -156,-46 -65,0 -117,11 -157,31 -40,20 -73,49 -99,85 -52,71 -79,167 -79,287 0,119 24,217 71,292 55,86 136,129 242,129 115,0 186,-31 213,-93 8,-18 12,-35 12,-52 0,-17 -2,-34 -7,-51 -5,-17 -13,-33 -26,-48 -26,-37 -67,-62 -120,-75 -15,-4 -29,-11 -42,-22 -12,-11 -18,-26 -18,-45l0 -26c0,-9 4,-18 12,-25 7,-7 17,-10 28,-10l337 0c27,0 41,12 41,35l0 79c0,10 -4,17 -12,23 -8,6 -17,8 -29,8l-105 0c53,25 89,65 108,121 6,21 10,42 10,63 0,22 -3,42 -9,62 -6,20 -15,40 -28,60 -13,20 -30,39 -51,58 -21,20 -46,36 -77,51 -67,33 -143,49 -228,49 -86,0 -159,-13 -221,-40 -61,-26 -113,-65 -156,-115z"/>
    <path class="fil2" d="M7630 5280c-21,-44 -37,-89 -47,-138 -11,-49 -17,-107 -17,-173 0,-67 13,-135 39,-203 26,-69 62,-129 109,-179 100,-105 229,-158 387,-158 168,0 300,54 396,162 91,103 136,236 136,401 0,164 -50,300 -150,411 -47,52 -103,92 -169,123 -66,30 -133,45 -200,45 -68,0 -126,-8 -173,-22 -48,-14 -91,-34 -130,-59 -40,-26 -74,-57 -105,-92 -30,-36 -55,-75 -76,-118zm132 -293c0,55 7,108 20,157 13,50 33,94 61,133 60,85 146,128 256,128 110,0 196,-41 256,-122 55,-75 83,-172 83,-291 0,-113 -28,-206 -85,-279 -62,-79 -146,-119 -254,-119 -103,0 -185,37 -246,111 -61,73 -91,167 -91,282z"/>
    <path class="fil2" d="M6794 4493c0,-13 4,-23 12,-33 8,-9 17,-13 28,-13l101 0c11,0 21,4 28,13 8,10 12,20 12,33l0 899 391 0c12,0 22,4 28,12 7,8 10,17 10,29l0 79c0,11 -3,21 -10,29 -6,8 -16,12 -28,12l-533 0c-11,0 -20,-5 -28,-14 -7,-9 -11,-20 -11,-33l0 -1013z"/>
    <path class="fil2" d="M5696 4509c0,-29 10,-48 30,-57 7,-3 15,-5 26,-5l335 0c94,0 174,20 241,60 81,47 121,120 121,218 0,67 -19,123 -58,168 -34,39 -79,64 -132,75l0 3c73,3 134,24 183,64 55,46 83,108 83,186 0,113 -42,199 -125,256 -73,50 -171,76 -296,76l-352 0c-20,0 -34,-7 -43,-19 -9,-12 -13,-27 -13,-43l0 -982zm407 890c106,0 176,-30 210,-90 13,-22 20,-48 20,-78 0,-30 -4,-54 -12,-72 -9,-17 -20,-33 -33,-45 -14,-12 -31,-23 -50,-30 -18,-7 -38,-13 -59,-18 -36,-6 -72,-10 -108,-10 -45,0 -93,1 -143,4l-53 2 1 337 227 0zm-228 -482c73,0 131,-1 175,-4 74,-4 128,-21 163,-50 35,-28 52,-68 52,-120 0,-51 -18,-88 -55,-110 -37,-23 -92,-34 -165,-34l-170 0 0 318z"/>
    <path class="fil2" d="M4438 5280c-21,-44 -36,-89 -47,-138 -11,-49 -16,-107 -16,-173 0,-67 12,-135 38,-203 26,-69 62,-129 109,-179 100,-105 229,-158 387,-158 168,0 300,54 396,162 91,103 136,236 136,401 0,164 -50,300 -150,411 -47,52 -103,92 -169,123 -66,30 -133,45 -200,45 -68,0 -125,-8 -173,-22 -48,-14 -91,-34 -130,-59 -40,-26 -74,-57 -105,-92 -30,-36 -55,-75 -76,-118zm132 -293c0,55 7,108 20,157 13,50 33,94 61,133 60,85 146,128 256,128 110,0 196,-41 256,-122 55,-75 83,-172 83,-291 0,-113 -28,-206 -85,-279 -62,-79 -146,-119 -253,-119 -104,0 -186,37 -247,111 -61,73 -91,167 -91,282z"/>
    <path class="fil3" d="M3853 5422c85,0 127,-69 127,-207l0 -722c0,-13 4,-23 11,-33 7,-9 16,-13 27,-13l104 0c11,0 20,4 27,13 7,10 11,20 11,33l0 762c0,107 -27,187 -79,242 -47,50 -112,74 -194,74 -51,0 -90,-5 -117,-16 -26,-11 -45,-21 -54,-31 -10,-10 -15,-20 -15,-30 0,-11 1,-19 3,-27l7 -22c10,-31 22,-47 37,-47 5,0 10,2 16,4l23 8c22,8 44,12 66,12z"/>
   </g>
  </g>
 </g>
</svg>
