<?xml version="1.0" encoding="UTF-8"?>
<!DOCTYPE svg PUBLIC "-//W3C//DTD SVG 1.1//EN" "http://www.w3.org/Graphics/SVG/1.1/DTD/svg11.dtd">
<!-- Creator: CorelDRAW X7 -->
<svg xmlns="http://www.w3.org/2000/svg" xml:space="preserve" width="10mm" height="10mm" version="1.1" style="shape-rendering:geometricPrecision; text-rendering:geometricPrecision; image-rendering:optimizeQuality; fill-rule:evenodd; clip-rule:evenodd"
viewBox="0 0 1000 1000"
 xmlns:xlink="http://www.w3.org/1999/xlink">
 <defs>
  <style type="text/css">
   <![CDATA[
    .fil0 {fill:#003F88}
    .fil1 {fill:#FDC502}
    .fil2 {fill:#003F88;fill-rule:nonzero}
    .fil3 {fill:#FDC502;fill-rule:nonzero}
   ]]>
  </style>
 </defs>
 <g id="Camada_x0020_1">
  <metadata id="CorelCorpID_0Corel-Layer"/>
  <g id="_2589463577168">
   <path class="fil0" d="M-44 -694l382 255 29 -130 -344 -164 -5 -477 434 155 -41 70c10,17 71,116 69,126l-7 62 74 38 -16 -100c-1,-10 60,-109 69,-126l-40 -70 433 -155 -5 477 -344 164 29 130 383 -255 -1 -618 -369 -138c-38,-13 -85,-34 -127,-44l354 207 -407 215 -407 -215 354 -207c-42,10 -89,31 -127,44l-369 138 -1 618z"/>
   <polygon class="fil0" points="506,-110 631,-297 572,-611 448,-677 384,-293 "/>
   <polygon class="fil1" points="455,-714 565,-657 556,-710 463,-756 "/>
  </g>
  <path class="fil2" d="M2362 -883c-9,-10 -16,-22 -21,-37 -4,-14 -7,-30 -7,-48 0,-18 3,-34 8,-48 5,-14 12,-26 21,-36 19,-20 44,-30 75,-30 26,0 46,6 61,18 7,6 11,11 14,17 3,6 5,11 5,14 0,3 0,6 0,8 0,2 -1,4 -2,6 -2,4 -7,6 -14,6l-12 0c-3,0 -5,-1 -6,-2 -1,-2 -2,-5 -2,-8 0,-3 -1,-7 -3,-10 -1,-3 -4,-5 -7,-8 -8,-6 -19,-9 -32,-9 -13,0 -23,2 -31,6 -8,4 -15,10 -20,17 -11,15 -16,34 -16,58 0,24 5,44 14,59 11,17 28,26 49,26 23,0 37,-7 43,-19 1,-4 2,-7 2,-11 0,-3 0,-6 -1,-10 -1,-3 -3,-6 -5,-9 -6,-8 -14,-13 -24,-15 -4,-1 -6,-3 -9,-5 -2,-2 -4,-5 -4,-9l0 -5c0,-2 1,-4 3,-5 1,-2 3,-2 5,-2l68 0c6,0 9,2 9,7l0 16c0,2 -1,3 -3,4 -1,1 -3,2 -6,2l-21 0c11,5 18,13 22,24 1,4 2,9 2,13 0,4 -1,8 -2,12 -1,4 -3,8 -6,12 -2,5 -6,8 -10,12 -4,4 -9,7 -15,11 -14,6 -29,9 -46,9 -17,0 -32,-2 -45,-8 -12,-5 -22,-13 -31,-23z"/>
  <path class="fil2" d="M2095 -910c-4,-9 -7,-18 -9,-28 -2,-10 -4,-22 -4,-35 0,-13 3,-27 8,-41 5,-14 13,-26 22,-36 20,-21 46,-32 78,-32 34,0 61,11 80,33 18,21 27,48 27,81 0,33 -10,60 -30,82 -9,11 -21,19 -34,25 -13,6 -27,9 -40,9 -14,0 -26,-1 -35,-4 -10,-3 -18,-7 -26,-12 -8,-5 -15,-11 -21,-19 -6,-7 -12,-15 -16,-23zm27 -59c0,11 1,21 4,31 2,10 7,19 12,27 12,17 29,26 52,26 22,0 39,-8 51,-25 11,-15 17,-34 17,-58 0,-23 -6,-42 -17,-56 -13,-16 -30,-24 -51,-24 -21,0 -38,7 -50,22 -12,15 -18,34 -18,57z"/>
  <path class="fil2" d="M1927 -1069c0,-2 1,-4 2,-6 2,-2 4,-3 6,-3l20 0c3,0 5,1 6,3 2,2 2,4 2,6l0 181 79 0c3,0 5,1 6,3 1,1 2,3 2,6l0 15c0,3 -1,5 -2,6 -1,2 -3,3 -6,3l-107 0c-2,0 -4,-1 -6,-3 -1,-2 -2,-4 -2,-7l0 -204z"/>
  <path class="fil2" d="M1706 -1065c0,-6 2,-10 6,-12 1,-1 3,-1 5,-1l68 0c19,0 35,4 48,12 16,10 25,24 25,44 0,14 -4,25 -12,34 -7,8 -16,13 -27,15l0 0c15,1 27,5 37,13 11,10 17,22 17,38 0,23 -9,40 -25,51 -15,11 -35,16 -60,16l-71 0c-4,0 -7,-2 -8,-4 -2,-3 -3,-6 -3,-9l0 -197zm82 179c21,0 35,-6 42,-18 3,-5 4,-10 4,-16 0,-6 -1,-11 -2,-15 -2,-3 -4,-6 -7,-9 -3,-2 -6,-4 -10,-6 -4,-1 -8,-2 -12,-3 -7,-2 -14,-2 -21,-2 -10,0 -19,0 -29,0l-11 1 0 68 46 0zm-46 -97c15,0 26,-1 35,-1 15,-1 26,-4 33,-10 7,-6 11,-14 11,-24 0,-11 -4,-18 -12,-23 -7,-4 -18,-6 -33,-6l-34 0 0 64z"/>
  <path class="fil2" d="M1453 -910c-4,-9 -8,-18 -10,-28 -2,-10 -3,-22 -3,-35 0,-13 3,-27 8,-41 5,-14 12,-26 22,-36 20,-21 46,-32 78,-32 33,0 60,11 79,33 19,21 28,48 28,81 0,33 -10,60 -30,82 -10,11 -21,19 -35,25 -13,6 -26,9 -40,9 -13,0 -25,-1 -35,-4 -9,-3 -18,-7 -26,-12 -8,-5 -15,-11 -21,-19 -6,-7 -11,-15 -15,-23zm26 -59c0,11 2,21 4,31 3,10 7,19 13,27 12,17 29,26 51,26 22,0 40,-8 52,-25 11,-15 16,-34 16,-58 0,-23 -5,-42 -17,-56 -12,-16 -29,-24 -51,-24 -21,0 -37,7 -49,22 -13,15 -19,34 -19,57z"/>
  <path class="fil3" d="M1335 -882c17,0 26,-14 26,-41l0 -146c0,-2 0,-4 2,-6 1,-2 3,-3 5,-3l21 0c2,0 4,1 6,3 1,2 2,4 2,6l0 154c0,21 -6,37 -16,48 -10,10 -23,15 -39,15 -10,0 -18,-1 -24,-3 -5,-2 -9,-4 -11,-6 -2,-2 -3,-4 -3,-6 0,-2 1,-4 1,-6l1 -4c2,-6 5,-9 8,-9 1,0 2,0 3,0l5 2c4,2 9,2 13,2z"/>
 </g>
</svg>
