<?xml version="1.0" encoding="UTF-8"?>
<!DOCTYPE svg PUBLIC "-//W3C//DTD SVG 1.1//EN" "http://www.w3.org/Graphics/SVG/1.1/DTD/svg11.dtd">
<!-- Creator: CorelDRAW X7 -->
<svg xmlns="http://www.w3.org/2000/svg" xml:space="preserve" width="100mm" height="100mm" version="1.1" style="shape-rendering:geometricPrecision; text-rendering:geometricPrecision; image-rendering:optimizeQuality; fill-rule:evenodd; clip-rule:evenodd"
viewBox="0 0 10000 10000"
 xmlns:xlink="http://www.w3.org/1999/xlink">
 <defs>
  <style type="text/css">
   <![CDATA[
    .fil0 {fill:#003F88}
    .fil1 {fill:#FDC502}
    .fil2 {fill:#003F88;fill-rule:nonzero}
    .fil3 {fill:#FDC502;fill-rule:nonzero}
   ]]>
  </style>
 </defs>
 <g id="Camada_x0020_1">
  <metadata id="CorelCorpID_0Corel-Layer"/>
  <g id="_2589457606416">
   <path class="fil0" d="M2251 4648l1901 1267 144 -646 -1708 -815 -26 -2369 2153 771 -200 346c49,85 350,579 344,628l-38 309 368 188 -78 -497c-7,-49 295,-543 344,-628l-200 -346 2153 -771 -26 2369 -1708 815 144 646 1901 -1267 -5 -3071 -1836 -681c-189,-69 -419,-171 -628,-221l1759 1029 -2024 1065 -2024 -1065 1759 -1029c-208,50 -439,152 -628,221l-1836 681 -5 3071z"/>
   <polygon class="fil0" points="4984,7550 5605,6622 5314,5061 4699,4737 4381,6640 "/>
   <polygon class="fil1" points="4734,4548 5281,4833 5235,4569 4775,4340 "/>
   <path class="fil2" d="M7221 9215c-43,-50 -77,-111 -102,-184 -24,-72 -36,-152 -36,-241 0,-89 13,-168 38,-237 25,-70 60,-128 106,-176 94,-100 219,-150 375,-150 126,0 227,30 301,90 32,26 55,54 71,83 15,30 22,53 22,69 0,16 0,29 -1,39 -1,9 -3,19 -8,28 -12,22 -35,32 -68,32l-62 0c-14,0 -24,-4 -28,-12 -5,-10 -9,-22 -11,-38 -2,-17 -6,-32 -14,-47 -7,-15 -20,-29 -36,-42 -40,-30 -92,-45 -157,-45 -64,0 -117,10 -156,30 -40,21 -74,49 -100,85 -52,72 -78,168 -78,287 0,120 24,217 71,292 55,86 135,130 241,130 115,0 186,-32 213,-94 8,-17 12,-35 12,-52 0,-17 -2,-34 -7,-51 -5,-16 -13,-33 -25,-48 -27,-37 -67,-61 -120,-74 -16,-4 -30,-11 -42,-22 -12,-11 -18,-26 -18,-46l0 -25c0,-10 3,-18 11,-25 8,-7 17,-11 28,-11l338 0c27,0 40,12 40,36l0 78c0,10 -4,18 -11,23 -9,6 -18,9 -29,9l-105 0c53,24 89,64 107,121 7,20 10,41 10,63 0,21 -3,41 -8,61 -6,20 -16,40 -29,60 -12,20 -29,40 -50,59 -21,19 -47,36 -77,51 -67,32 -143,48 -229,48 -86,0 -159,-13 -220,-40 -61,-26 -113,-64 -157,-114z"/>
   <path class="fil2" d="M5896 9078c-20,-43 -36,-89 -47,-138 -11,-49 -16,-106 -16,-173 0,-66 13,-134 39,-203 25,-69 62,-128 109,-178 99,-106 228,-159 387,-159 168,0 300,54 395,163 91,102 137,236 137,401 0,163 -50,300 -150,410 -47,52 -104,93 -170,123 -66,30 -132,45 -200,45 -67,0 -125,-7 -173,-21 -47,-14 -91,-34 -130,-60 -39,-26 -74,-56 -104,-92 -31,-36 -56,-75 -77,-118zm132 -292c0,55 7,107 20,157 13,49 34,94 61,133 61,85 146,127 256,127 111,0 196,-41 256,-122 56,-75 83,-172 83,-291 0,-113 -28,-205 -84,-279 -62,-79 -147,-119 -254,-119 -103,0 -186,37 -247,112 -60,72 -91,166 -91,282z"/>
   <path class="fil2" d="M5060 8291c0,-12 4,-23 12,-32 8,-9 18,-14 29,-14l101 0c11,0 20,5 28,14 8,9 12,20 12,32l0 899 390 0c13,0 22,4 29,12 6,8 10,18 10,29l0 80c0,11 -4,20 -10,28 -7,8 -16,12 -29,12l-532 0c-11,0 -20,-5 -28,-14 -8,-9 -12,-20 -12,-32l0 -1014z"/>
   <path class="fil2" d="M3962 8307c0,-28 11,-47 31,-57 7,-3 15,-5 25,-5l335 0c95,0 175,20 241,60 81,48 122,121 122,219 0,67 -20,122 -58,167 -35,39 -79,64 -133,75l0 3c74,3 135,25 184,64 55,46 82,108 82,186 0,114 -41,199 -124,256 -73,51 -172,76 -296,76l-353 0c-20,0 -34,-6 -42,-18 -9,-13 -14,-27 -14,-44l0 -982zm407 890c106,0 177,-30 211,-90 13,-22 19,-48 19,-78 0,-30 -4,-53 -12,-71 -8,-18 -19,-33 -33,-45 -14,-13 -30,-23 -49,-31 -19,-7 -39,-13 -59,-17 -36,-7 -72,-10 -108,-10 -46,0 -93,1 -144,3l-53 3 1 336 227 0zm-228 -481c74,0 132,-2 176,-5 74,-4 128,-21 163,-49 35,-29 52,-69 52,-120 0,-52 -19,-89 -55,-111 -37,-22 -92,-34 -165,-34l-171 0 0 319z"/>
   <path class="fil2" d="M2705 9078c-21,-43 -37,-89 -48,-138 -11,-49 -16,-106 -16,-173 0,-66 13,-134 39,-203 25,-69 62,-128 109,-178 100,-106 228,-159 387,-159 168,0 300,54 396,163 90,102 136,236 136,401 0,163 -50,300 -150,410 -47,52 -104,93 -170,123 -65,30 -132,45 -200,45 -67,0 -125,-7 -173,-21 -47,-14 -91,-34 -130,-60 -39,-26 -74,-56 -104,-92 -30,-36 -56,-75 -76,-118zm132 -292c0,55 6,107 19,157 14,49 34,94 61,133 61,85 146,127 256,127 111,0 196,-41 256,-122 56,-75 83,-172 83,-291 0,-113 -28,-205 -84,-279 -62,-79 -147,-119 -254,-119 -103,0 -186,37 -247,112 -60,72 -90,166 -90,282z"/>
   <path class="fil3" d="M2120 9221c84,0 127,-70 127,-207l0 -723c0,-12 3,-23 10,-32 8,-9 17,-14 28,-14l104 0c10,0 19,5 26,14 7,9 11,20 11,32l0 762c0,107 -26,188 -78,242 -48,50 -112,75 -194,75 -52,0 -91,-6 -117,-16 -27,-11 -45,-22 -55,-32 -10,-9 -15,-19 -15,-30 0,-10 2,-19 4,-27l6 -22c10,-31 23,-46 38,-46 4,0 10,1 16,3l22 8c22,8 44,13 67,13z"/>
  </g>
 </g>
</svg>
