<svg width="363" height="277" viewBox="0 0 363 277" fill="none" xmlns="http://www.w3.org/2000/svg">
<path d="M335.654 251.288C323.768 260.34 309.287 269.509 295.05 273.832C290.945 275.116 286.71 275.935 282.423 276.275C278.415 276.597 274.382 276.284 270.472 275.348C260.196 272.792 250.666 268.316 241.444 263.087C238.431 261.376 235.453 259.586 232.492 257.758C227.66 254.771 222.875 251.68 218.077 248.662C217.358 248.205 216.644 247.757 215.926 247.313H215.921C214.763 246.586 213.602 245.869 212.438 245.162C212.234 245.036 212.029 244.914 211.82 244.787C209.621 243.455 207.385 242.153 205.111 240.882C204.832 240.73 204.553 240.573 204.275 240.42C199.875 237.98 195.352 235.766 190.725 233.789C187.686 232.509 184.608 231.356 181.499 230.372H181.495C180.306 229.997 179.113 229.644 177.916 229.322C174.326 228.337 170.667 227.621 166.97 227.18C161.876 226.563 156.724 226.604 151.64 227.302C151.296 227.35 150.957 227.398 150.613 227.454C136.854 229.658 124.298 237.085 110.478 238.836C110.03 238.892 109.586 238.944 109.137 238.984C108.946 239.001 108.754 239.023 108.563 239.036C104.547 239.38 100.505 239.28 96.511 238.74C85.3519 237.268 74.4845 232.701 64.7013 226.945C41.8301 213.487 23.2824 192.802 12.0058 168.846C10.0694 164.741 8.3501 160.536 6.85514 156.25C2.67534 144.365 0.373513 131.902 0.0325295 119.308C-1.02547 75.6116 23.8049 31.772 62.7899 12.0096C101.779 -7.75285 153.068 -1.21762 184.512 29.1422C203.587 47.5593 214.624 72.516 228.979 94.8124C243.334 117.104 263.736 138.399 290.051 141.647C303.457 143.302 317.485 140.102 330.334 144.264C337.448 146.572 343.517 150.987 348.407 156.612C351.694 160.429 354.445 164.677 356.583 169.238C358.151 172.536 359.423 175.965 360.384 179.487C360.563 180.136 360.728 180.785 360.89 181.434C367.29 207.574 357.062 234.978 335.654 251.288Z" fill="#F2F2F2"/>
<path d="M121.546 203.965H80.6191C74.4873 203.965 69.5166 208.936 69.5166 215.068V215.068C69.5166 221.199 74.4873 226.17 80.6191 226.17H121.546C127.678 226.17 132.648 221.199 132.648 215.068C132.648 208.936 127.678 203.965 121.546 203.965Z" fill="#3F3D56"/>
<path d="M109.137 220.51V238.984C104.933 239.39 100.696 239.309 96.511 238.74V220.51H109.137Z" fill="#3F3D56"/>
<path d="M151.64 227.302C151.296 227.35 150.957 227.398 150.613 227.454C136.854 229.658 124.298 237.085 110.478 238.836C110.03 238.892 109.586 238.944 109.137 238.984C108.946 239.001 108.754 239.023 108.563 239.036C105.188 235.731 101.814 232.213 98.6445 228.569C96.9247 226.597 95.2615 224.585 93.6984 222.548C89.6406 217.288 86.201 211.88 83.9282 206.569C84.159 204.022 82.5742 198.131 81.8166 193.62L81.8122 193.616C81.49 191.722 81.3159 190.076 81.477 189.018C82.4 182.914 87.3852 183.615 88.9178 177.633C90.3003 176.485 91.7723 175.45 93.3196 174.537C93.5765 174.385 93.8377 174.232 94.1077 174.08L110.74 162.585L117.096 168.82L126.771 178.312L137.255 188.591L128.356 197.582C128.356 197.582 135.792 206.155 144.487 217.584C146.821 220.654 149.246 223.932 151.64 227.302Z" fill="#2F2E41"/>
<path d="M295.049 220.51V273.832C290.945 275.116 286.71 275.935 282.423 276.275V220.51H295.049Z" fill="#3F3D56"/>
<path d="M311.377 216.156H270.45C264.318 216.156 259.347 221.127 259.347 227.258V227.258C259.347 233.39 264.318 238.361 270.45 238.361H311.377C317.508 238.361 322.479 233.39 322.479 227.258C322.479 221.127 317.508 216.156 311.377 216.156Z" fill="#3F3D56"/>
<path d="M211.82 244.787C209.621 243.455 207.385 242.153 205.111 240.882C204.832 240.73 204.554 240.573 204.275 240.421L205.773 239.78L209.813 238.043L209.852 238.026L209.896 238.174L211.82 244.787Z" fill="#FFB6B6"/>
<path d="M218.077 248.662C217.358 248.205 216.644 247.757 215.926 247.313H215.921C214.763 246.586 213.602 245.869 212.438 245.162C212.234 245.036 212.029 244.914 211.82 244.787C209.621 243.455 207.385 242.153 205.111 240.882C204.832 240.73 204.553 240.573 204.275 240.42C199.875 237.98 195.352 235.767 190.725 233.789C187.686 232.509 184.608 231.356 181.499 230.372H181.495L179.053 226.283L168.059 207.871L165.642 203.826C165.642 203.826 157.4 206.264 145.736 208.602C141.491 209.455 136.798 210.291 131.873 210.997C126.61 211.746 121.089 212.342 115.603 212.629C112.986 212.769 110.378 212.838 107.809 212.817C101.17 212.773 94.7912 212.15 89.2051 210.67C87.3416 208.92 81.725 206.538 77.702 204.357H77.6977C76.0083 203.443 74.6064 202.567 73.8706 201.788C69.6299 197.304 73.2523 193.807 69.4818 188.914C69.4311 187.118 69.5228 185.322 69.7561 183.541C69.7953 183.245 69.8345 182.944 69.8824 182.64L71.071 162.455L79.9007 161.288L93.3369 159.512L107.892 157.587L109.494 170.135C109.494 170.135 120.828 169.56 135.187 169.752C158.249 170.065 189.11 172.364 193.29 182.23C193.682 183.158 194.074 184.094 194.465 185.03C195.397 187.268 196.32 189.517 197.234 191.778C200.548 199.964 203.709 208.228 206.595 216.038C208.389 220.897 210.079 225.582 211.633 229.967C212.882 233.493 214.041 236.828 215.099 239.898C216.065 242.702 216.94 245.284 217.72 247.6C217.842 247.961 217.959 248.318 218.077 248.662Z" fill="#2F2E41"/>
<path d="M136.852 126.366L108.963 102.68L127.108 84.3169L139.767 105.052L186.691 114.355C188.101 113.293 189.791 112.664 191.553 112.546C193.315 112.428 195.073 112.825 196.613 113.688C198.153 114.552 199.409 115.845 200.227 117.41C201.045 118.975 201.39 120.744 201.22 122.502C201.05 124.26 200.372 125.93 199.269 127.309C198.166 128.688 196.686 129.716 195.008 130.269C193.331 130.821 191.529 130.873 189.823 130.419C188.116 129.965 186.579 129.024 185.398 127.712L136.852 126.366Z" fill="#A0616A"/>
<path d="M84.315 71.5515C81.0919 82.0369 111.788 107.045 111.788 107.045C112.129 104.527 129.533 126.234 130.717 124.268C134.082 118.681 137.785 104.87 141.67 103.105C143.892 102.096 131.146 88.0654 131.146 88.0654C131.146 88.0654 124.645 79.4638 116.06 68.5624C113.691 65.4353 110.568 62.9587 106.984 61.363C103.4 59.7673 99.4699 59.1044 95.5605 59.436C95.5605 59.436 87.5381 61.0661 84.315 71.5515Z" fill="#3F3D56"/>
<path d="M97.8871 48.3391C108.305 48.3391 116.75 39.8939 116.75 29.4762C116.75 19.0585 108.305 10.6133 97.8871 10.6133C87.4694 10.6133 79.0242 19.0585 79.0242 29.4762C79.0242 39.8939 87.4694 48.3391 97.8871 48.3391Z" fill="#A0616A"/>
<path d="M107.319 60.8061C111.382 63.2221 113.813 67.661 115.209 72.178C117.792 80.5407 119.347 89.1869 119.84 97.9257L121.314 124.088L139.568 179.795C123.748 193.182 64.2805 182.838 64.2805 182.838C64.2805 182.838 62.4551 182.229 64.2805 180.404C66.106 178.578 67.8831 180.196 66.0577 178.37C64.2322 176.545 65.4906 178.578 66.0991 176.753C66.7076 174.927 66.0991 176.144 65.4906 175.536C64.8821 174.927 70.2012 169.451 70.2012 169.451L65.3333 137.475L59.2485 72.9757C66.5503 63.8485 81.2352 58.4681 81.2352 58.4681L85.0295 51.6382L104.001 53.1559L107.319 60.8061Z" fill="#3F3D56"/>
<path d="M113.437 19.4546C114.903 20.548 115.989 22.0738 116.542 23.817C116.755 20.9682 116.768 18.1081 116.582 15.2574C116.36 13.2543 114.95 12.8037 113.317 12.2816C111.842 11.8099 110.174 11.277 109.726 9.33243C103.796 3.56417 93.4743 3.85503 86.4102 5.86709C82.5232 6.97429 80.2866 8.39682 80.0865 9.23015L80.045 9.40169L79.8871 9.48062C76.8909 10.9787 76.3077 15.7095 76.3462 19.4142C76.4192 26.3941 78.8292 34.3215 80.1869 34.9655C80.2588 34.9996 80.2769 34.9863 80.3081 34.9604C82.3523 33.3266 84.8465 35.0845 85.9425 36.0401C86.589 31.702 88.6706 27.7056 91.8548 24.6892C95.039 21.6729 99.1422 19.8106 103.509 19.3997C104.935 19.2619 106.35 19.0247 107.743 18.6898C108.449 18.507 109.176 18.4117 109.906 18.406C111.162 18.3869 112.394 18.7528 113.437 19.4546Z" fill="#2F2E41"/>
<path d="M89.6685 154.785L83.8983 151.83C83.5892 151.61 83.3696 151.286 83.2796 150.917C83.1897 150.548 83.2354 150.159 83.4085 149.821C83.5815 149.484 83.8703 149.219 84.2222 149.077C84.574 148.934 84.9654 148.923 85.3248 149.045L91.095 152C91.4041 152.22 91.6237 152.545 91.7137 152.913C91.8036 153.282 91.7579 153.671 91.5848 154.009C91.4118 154.347 91.123 154.611 90.7711 154.754C90.4193 154.896 90.0279 154.908 89.6685 154.785L89.6685 154.785Z" fill="#00296B"/>
<path d="M70.2486 146.868L60.7566 111.531L86.1219 106.729L84.7579 130.984L118.086 165.301C119.85 165.229 121.597 165.672 123.115 166.576C124.632 167.479 125.853 168.805 126.63 170.391C127.406 171.977 127.705 173.754 127.489 175.507C127.273 177.259 126.551 178.911 125.413 180.261C124.274 181.611 122.767 182.6 121.076 183.108C119.385 183.616 117.582 183.621 115.888 183.123C114.194 182.624 112.682 181.644 111.536 180.3C110.389 178.957 109.659 177.309 109.433 175.558L70.2486 146.868Z" fill="#A0616A"/>
<path d="M58.161 71.9103C49.5511 78.7074 60.6019 116.727 60.6019 116.727C62.3129 114.85 64.3011 142.601 66.3924 141.656C72.3361 138.97 83.2301 129.709 87.4299 130.464C89.8318 130.896 87.3154 112.108 87.3154 112.108C87.3154 112.108 86.8526 101.336 85.9827 87.4878C85.8094 83.5681 84.6472 79.756 82.6043 76.4063C80.5614 73.0567 77.7042 70.2783 74.2987 68.3299C74.2987 68.3299 66.7709 65.1132 58.161 71.9103Z" fill="#3F3D56"/>
<path d="M356.583 169.238L12.0056 168.846C10.0692 164.741 8.34994 160.536 6.85498 156.25L348.407 156.612C351.694 160.429 354.445 164.677 356.583 169.238Z" fill="#3F3D56"/>
<path d="M246.834 260.592C245.054 261.454 243.257 262.286 241.444 263.087C238.431 261.376 235.453 259.586 232.493 257.758L243.473 252.934L246.834 260.592Z" fill="#FFB6B6"/>
<path d="M326.894 200.595C325.109 202.99 323.267 205.337 321.369 207.636C319.619 209.756 317.822 211.836 315.979 213.875C315.217 214.719 314.446 215.56 313.658 216.391C312.208 217.946 310.727 219.474 309.213 220.976C306.487 221.834 300.967 223.344 295.05 224.755C290.744 225.778 286.229 226.749 282.423 227.367C280.293 227.75 278.138 227.98 275.975 228.055C273.406 228.077 270.798 228.007 268.182 227.868C265.23 227.711 262.273 227.468 259.352 227.154C251.754 226.357 244.396 225.116 238.048 223.841C235.723 223.379 233.537 222.909 231.526 222.452C227.716 221.594 224.529 220.793 222.222 220.183C219.622 219.504 218.142 219.065 218.142 219.065L211.633 229.967L208.254 235.622L205.773 239.78L205.111 240.882C204.832 240.73 204.554 240.573 204.275 240.421C199.875 237.98 195.352 235.767 190.726 233.789C187.686 232.509 184.608 231.356 181.5 230.372H181.495C180.307 229.997 179.114 229.645 177.916 229.322C178.291 228.317 178.67 227.304 179.053 226.283C179.767 224.381 180.495 222.461 181.238 220.523C182.845 216.326 184.508 212.068 186.219 207.831C187.621 204.353 189.049 200.887 190.495 197.469C191.161 195.893 192.515 194.508 194.409 193.294C195.314 192.723 196.258 192.217 197.235 191.779C202.655 189.31 210.64 187.703 219.44 186.671C220.167 186.589 220.898 186.506 221.634 186.428C228.918 185.661 236.646 185.265 243.874 185.082C247.492 184.991 250.984 184.956 254.232 184.952C255.281 184.952 256.301 184.955 257.293 184.96H257.297C259.975 184.973 262.439 185.013 264.607 185.056C265.029 185.065 265.439 185.078 265.839 185.087H265.844C266.114 185.091 266.379 185.1 266.64 185.104C271.382 185.226 274.29 185.374 274.29 185.374L275.418 176.527L275.649 174.742L275.866 173.044V173.039L275.892 172.826L276.071 172.822L279.206 172.761L305.556 172.247L319.95 171.964L317.668 181.743L313.902 197.878C314.285 200.43 327.025 198.431 326.894 200.595Z" fill="#2F2E41"/>
<path d="M250.082 258.981C249.007 259.53 247.923 260.07 246.834 260.592C245.054 261.454 243.257 262.286 241.444 263.087C238.431 261.376 235.453 259.586 232.493 257.758C227.66 254.771 222.875 251.68 218.077 248.662C217.358 248.205 216.644 247.757 215.926 247.313H215.922C213.945 244.378 211.929 241.322 209.896 238.174C209.865 238.13 209.839 238.087 209.813 238.043C209.291 237.242 208.771 236.435 208.254 235.622C205.002 230.528 201.732 225.217 198.558 219.792L206.595 216.038L221.538 209.063L224.116 207.862L231.526 222.452L238.135 235.466L239.607 238.361L250.082 258.981Z" fill="#2F2E41"/>
<path d="M252.334 188.934L290.431 152.194L300.991 122.296L285.415 115.523C277.415 123.187 268.767 147.056 268.767 147.056L242.551 180.409C242.347 180.479 242.143 180.554 241.942 180.642C240.761 181.163 239.735 181.98 238.962 183.013C238.189 184.046 237.695 185.262 237.529 186.541C237.363 187.821 237.53 189.122 238.014 190.318C238.497 191.515 239.281 192.566 240.29 193.371C241.299 194.176 242.498 194.707 243.772 194.913C245.046 195.119 246.352 194.993 247.562 194.547C248.773 194.101 249.849 193.35 250.685 192.367C251.521 191.383 252.089 190.201 252.334 188.934Z" fill="#FFB8B8"/>
<path d="M281.033 118.862L300.789 125.133L300.863 125.121C308.216 123.889 314.318 111.88 318.142 102.022C319.4 98.7703 319.376 95.1624 318.076 91.9274C316.776 88.6925 314.296 86.0719 311.137 84.5955C308.8 83.5221 306.209 83.1239 303.657 83.4459C301.106 83.7678 298.695 84.7971 296.697 86.4174L286.553 94.7069L281.033 118.862Z" fill="#00296B"/>
<path d="M326.815 201.036L326.93 200.883C333.094 192.708 324.664 172.463 323.389 169.527L329.12 167.83L328.121 156.917L327.64 152.051L332.096 147.819L332.111 147.711L335.176 125.901L339.186 111.466C340.697 106.009 340.729 100.248 339.279 94.775C337.828 89.3015 334.947 84.3127 330.931 80.3207L322.733 72.182L312.913 56.8099L296.446 56.3848L290.525 66.9034C285.019 68.0272 280.081 71.0471 276.572 75.4371C273.063 79.8271 271.206 85.3089 271.323 90.9276L271.881 118.93L265.972 153.625L265.806 159.927L260.007 166.047L261.079 172.234L256.742 173.962L254.619 182.753C253.808 183.767 248.455 190.533 248.407 192.42C248.399 192.703 248.601 192.982 249.042 193.297C252.507 195.776 271.873 201.148 280.589 197.918C289.873 194.481 326.259 200.936 326.626 201.002L326.815 201.036Z" fill="#00296B"/>
<path d="M303.241 51.6724C315.289 51.6724 325.056 41.9056 325.056 29.8577C325.056 17.8097 315.289 8.04297 303.241 8.04297C291.194 8.04297 281.427 17.8097 281.427 29.8577C281.427 41.9056 291.194 51.6724 303.241 51.6724Z" fill="#FFB8B8"/>
<path d="M300.58 51.9644C303.958 52.017 307.335 51.7811 310.673 51.259C313.981 50.5862 321.383 45.1621 323.447 41.8982C324.98 39.4731 325.96 35.6862 326.512 32.9365C327.257 29.2979 327.228 25.5435 326.429 21.9166C325.63 18.2896 324.078 14.8709 321.874 11.8818C321.027 10.6315 319.857 9.6335 318.49 8.99325C318.368 8.94585 318.244 8.90384 318.117 8.86792C316.124 8.3435 314.333 7.23534 312.975 5.6857C312.711 5.37226 312.426 5.07821 312.12 4.80582C310.584 3.50984 308.763 2.59567 306.807 2.13806C303.649 1.29279 299.078 2.13183 293.222 4.63431C290.28 5.8916 287.062 5.43658 284.587 4.89966C284.448 4.87284 284.305 4.88285 284.171 4.92868C284.037 4.97451 283.918 5.05457 283.824 5.1609C282.771 6.14954 281.383 6.70295 279.939 6.70987C279.054 6.74872 278.126 7.97371 277.004 9.57115C276.749 9.93377 276.452 10.357 276.238 10.6144L276.209 10.1198L275.709 10.6715C274.922 11.5386 274.368 12.5907 274.097 13.7297C273.826 14.8688 273.849 16.0578 274.161 17.186C274.474 18.3142 275.067 19.345 275.885 20.1823C276.703 21.0196 277.72 21.6363 278.841 21.9748C279.731 22.2116 280.643 22.3569 281.562 22.4084C282.119 22.4585 282.695 22.5104 283.247 22.6062C285.019 22.969 286.667 23.7851 288.029 24.9748C289.392 26.1645 290.422 27.6871 291.02 29.394C291.162 29.7885 291.392 30.1453 291.693 30.4367C291.994 30.7282 292.359 30.9465 292.758 31.0748C293.157 31.2032 293.58 31.2381 293.994 31.1769C294.409 31.1158 294.804 30.9601 295.149 30.7221C295.724 30.2742 296.399 29.9721 297.116 29.8416C297.833 29.711 298.571 29.7558 299.267 29.9721C299.869 30.3066 300.337 30.8377 300.594 31.4764C300.905 32.188 301.422 32.7906 302.077 33.2074C304.319 34.3634 304.474 39.4845 303.669 43.7535C302.893 47.8685 301.358 50.8453 299.937 50.9925C298.844 51.1056 298.719 51.1833 298.639 51.3767L298.569 51.5499L298.692 51.7119C299.296 51.9309 299.94 52.017 300.58 51.9644Z" fill="#2F2E41"/>
<path d="M286.45 112.266L278.039 95.4971C265.83 96.331 241.599 110.447 241.599 110.447L195.753 120.168C194.395 119.646 192.923 119.49 191.486 119.718C190.049 119.946 188.697 120.548 187.566 121.464C186.436 122.38 185.567 123.577 185.046 124.936C184.526 126.295 184.372 127.767 184.602 129.204C184.831 130.641 185.435 131.992 186.352 133.121C187.27 134.25 188.468 135.118 189.828 135.637C191.187 136.156 192.659 136.307 194.096 136.076C195.532 135.845 196.883 135.24 198.011 134.321L256.33 130.141L286.45 112.266Z" fill="#FFB8B8"/>
<path d="M283.058 115.02L305.025 98.6951L308.894 84.7507C309.644 82.0104 309.612 79.1151 308.803 76.3919C307.993 73.6687 306.438 71.2262 304.313 69.3404C301.416 66.8034 297.663 65.4614 293.814 65.5855C289.965 65.7097 286.306 67.2909 283.578 70.0094C275.312 78.2606 265.883 89.7718 267.908 97.7539L267.929 97.8349L283.058 115.02Z" fill="#00296B"/>
<path d="M255.864 158.684H197.086V166.521H255.864V158.684Z" fill="white"/>
<path d="M105.654 158.684H46.8762V166.521H105.654V158.684Z" fill="white"/>
<path d="M112.518 120.996V158.311C112.518 158.786 112.707 159.242 113.044 159.579C113.38 159.915 113.836 160.104 114.311 160.104H169.608C170.083 160.104 170.539 159.915 170.876 159.579C171.212 159.242 171.401 158.786 171.401 158.311V120.996C171.4 120.521 171.211 120.066 170.875 119.73C170.539 119.394 170.083 119.205 169.608 119.205H114.311C113.836 119.205 113.381 119.394 113.044 119.73C112.708 120.066 112.519 120.521 112.518 120.996Z" fill="#3F3D56"/>
<path d="M113.815 121.46V157.85C113.815 158.105 113.917 158.348 114.096 158.528C114.276 158.707 114.519 158.808 114.773 158.809H169.148C169.402 158.808 169.645 158.707 169.825 158.528C170.004 158.348 170.106 158.105 170.106 157.85V121.46C170.106 121.206 170.005 120.962 169.825 120.782C169.646 120.602 169.402 120.5 169.148 120.5H114.773C114.519 120.5 114.275 120.602 114.096 120.782C113.916 120.962 113.815 121.206 113.815 121.46Z" fill="#00296B"/>
<path d="M111.361 165.588C111.462 165.715 111.591 165.818 111.738 165.888C111.884 165.958 112.045 165.994 112.207 165.993H171.417C171.579 165.993 171.739 165.957 171.885 165.887C172.031 165.817 172.16 165.716 172.262 165.59C172.364 165.464 172.437 165.317 172.475 165.16C172.513 165.003 172.515 164.839 172.482 164.68L171.563 160.314C171.525 160.136 171.443 159.971 171.324 159.832C171.206 159.694 171.055 159.588 170.885 159.523C170.761 159.475 170.63 159.45 170.498 159.45H113.123C112.991 159.45 112.859 159.475 112.736 159.523C112.566 159.588 112.415 159.694 112.296 159.832C112.178 159.971 112.096 160.136 112.058 160.314L111.139 164.68C111.106 164.839 111.109 165.002 111.147 165.159C111.186 165.316 111.259 165.463 111.361 165.588Z" fill="#2F2E41"/>
<path d="M168.466 161.33H169.865C169.982 161.33 170.077 161.235 170.077 161.118V160.449C170.077 160.331 169.982 160.236 169.865 160.236H168.466C168.349 160.236 168.254 160.331 168.254 160.449V161.118C168.254 161.235 168.349 161.33 168.466 161.33Z" fill="#3F3D56"/>
<path d="M164.819 161.33H166.218C166.335 161.33 166.43 161.235 166.43 161.118V160.449C166.43 160.331 166.335 160.236 166.218 160.236H164.819C164.702 160.236 164.607 160.331 164.607 160.449V161.118C164.607 161.235 164.702 161.33 164.819 161.33Z" fill="#3F3D56"/>
<path d="M161.172 161.33H162.57C162.688 161.33 162.783 161.235 162.783 161.118V160.449C162.783 160.331 162.688 160.236 162.57 160.236H161.172C161.055 160.236 160.959 160.331 160.959 160.449V161.118C160.959 161.235 161.055 161.33 161.172 161.33Z" fill="#3F3D56"/>
<path d="M157.525 161.33H158.923C159.041 161.33 159.136 161.235 159.136 161.118V160.449C159.136 160.331 159.041 160.236 158.923 160.236H157.525C157.407 160.236 157.312 160.331 157.312 160.449V161.118C157.312 161.235 157.407 161.33 157.525 161.33Z" fill="#3F3D56"/>
<path d="M153.877 161.33H155.276C155.393 161.33 155.488 161.235 155.488 161.118V160.449C155.488 160.331 155.393 160.236 155.276 160.236H153.877C153.76 160.236 153.665 160.331 153.665 160.449V161.118C153.665 161.235 153.76 161.33 153.877 161.33Z" fill="#3F3D56"/>
<path d="M150.23 161.33H151.628C151.746 161.33 151.841 161.235 151.841 161.118V160.449C151.841 160.331 151.746 160.236 151.628 160.236H150.23C150.113 160.236 150.017 160.331 150.017 160.449V161.118C150.017 161.235 150.113 161.33 150.23 161.33Z" fill="#3F3D56"/>
<path d="M146.583 161.33H147.981C148.099 161.33 148.194 161.235 148.194 161.118V160.449C148.194 160.331 148.099 160.236 147.981 160.236H146.583C146.465 160.236 146.37 160.331 146.37 160.449V161.118C146.37 161.235 146.465 161.33 146.583 161.33Z" fill="#3F3D56"/>
<path d="M142.936 161.33H144.334C144.451 161.33 144.547 161.235 144.547 161.118V160.449C144.547 160.331 144.451 160.236 144.334 160.236H142.936C142.818 160.236 142.723 160.331 142.723 160.449V161.118C142.723 161.235 142.818 161.33 142.936 161.33Z" fill="#3F3D56"/>
<path d="M139.288 161.33H140.687C140.804 161.33 140.899 161.235 140.899 161.118V160.449C140.899 160.331 140.804 160.236 140.687 160.236H139.288C139.171 160.236 139.076 160.331 139.076 160.449V161.118C139.076 161.235 139.171 161.33 139.288 161.33Z" fill="#3F3D56"/>
<path d="M135.641 161.33H137.039C137.157 161.33 137.252 161.235 137.252 161.118V160.449C137.252 160.331 137.157 160.236 137.039 160.236H135.641C135.523 160.236 135.428 160.331 135.428 160.449V161.118C135.428 161.235 135.523 161.33 135.641 161.33Z" fill="#3F3D56"/>
<path d="M131.994 161.33H133.392C133.51 161.33 133.605 161.235 133.605 161.118V160.449C133.605 160.331 133.51 160.236 133.392 160.236H131.994C131.876 160.236 131.781 160.331 131.781 160.449V161.118C131.781 161.235 131.876 161.33 131.994 161.33Z" fill="#3F3D56"/>
<path d="M128.346 161.33H129.745C129.862 161.33 129.958 161.235 129.958 161.118V160.449C129.958 160.331 129.862 160.236 129.745 160.236H128.346C128.229 160.236 128.134 160.331 128.134 160.449V161.118C128.134 161.235 128.229 161.33 128.346 161.33Z" fill="#3F3D56"/>
<path d="M124.699 161.33H126.098C126.215 161.33 126.31 161.235 126.31 161.118V160.449C126.31 160.331 126.215 160.236 126.098 160.236H124.699C124.582 160.236 124.487 160.331 124.487 160.449V161.118C124.487 161.235 124.582 161.33 124.699 161.33Z" fill="#3F3D56"/>
<path d="M121.052 161.33H122.451C122.568 161.33 122.663 161.235 122.663 161.118V160.449C122.663 160.331 122.568 160.236 122.451 160.236H121.052C120.935 160.236 120.839 160.331 120.839 160.449V161.118C120.839 161.235 120.935 161.33 121.052 161.33Z" fill="#3F3D56"/>
<path d="M117.405 161.33H118.803C118.92 161.33 119.016 161.235 119.016 161.118V160.449C119.016 160.331 118.92 160.236 118.803 160.236H117.405C117.287 160.236 117.192 160.331 117.192 160.449V161.118C117.192 161.235 117.287 161.33 117.405 161.33Z" fill="#3F3D56"/>
<path d="M113.757 161.33H115.156C115.273 161.33 115.368 161.235 115.368 161.118V160.449C115.368 160.331 115.273 160.236 115.156 160.236H113.757C113.64 160.236 113.545 160.331 113.545 160.449V161.118C113.545 161.235 113.64 161.33 113.757 161.33Z" fill="#3F3D56"/>
<path d="M168.51 163.154H169.908C170.025 163.154 170.121 163.059 170.121 162.941V162.272C170.121 162.155 170.025 162.06 169.908 162.06H168.51C168.392 162.06 168.297 162.155 168.297 162.272V162.941C168.297 163.059 168.392 163.154 168.51 163.154Z" fill="#3F3D56"/>
<path d="M164.862 163.154H166.261C166.378 163.154 166.473 163.059 166.473 162.941V162.272C166.473 162.155 166.378 162.06 166.261 162.06H164.862C164.745 162.06 164.65 162.155 164.65 162.272V162.941C164.65 163.059 164.745 163.154 164.862 163.154Z" fill="#3F3D56"/>
<path d="M161.215 163.154H162.614C162.731 163.154 162.826 163.059 162.826 162.941V162.272C162.826 162.155 162.731 162.06 162.614 162.06H161.215C161.098 162.06 161.003 162.155 161.003 162.272V162.941C161.003 163.059 161.098 163.154 161.215 163.154Z" fill="#3F3D56"/>
<path d="M157.568 163.154H158.966C159.084 163.154 159.179 163.059 159.179 162.941V162.272C159.179 162.155 159.084 162.06 158.966 162.06H157.568C157.45 162.06 157.355 162.155 157.355 162.272V162.941C157.355 163.059 157.45 163.154 157.568 163.154Z" fill="#3F3D56"/>
<path d="M153.92 163.154H155.319C155.436 163.154 155.531 163.059 155.531 162.941V162.272C155.531 162.155 155.436 162.06 155.319 162.06H153.92C153.803 162.06 153.708 162.155 153.708 162.272V162.941C153.708 163.059 153.803 163.154 153.92 163.154Z" fill="#3F3D56"/>
<path d="M150.273 163.154H151.672C151.789 163.154 151.884 163.059 151.884 162.941V162.272C151.884 162.155 151.789 162.06 151.672 162.06H150.273C150.156 162.06 150.061 162.155 150.061 162.272V162.941C150.061 163.059 150.156 163.154 150.273 163.154Z" fill="#3F3D56"/>
<path d="M146.626 163.154H148.024C148.142 163.154 148.237 163.059 148.237 162.941V162.272C148.237 162.155 148.142 162.06 148.024 162.06H146.626C146.508 162.06 146.413 162.155 146.413 162.272V162.941C146.413 163.059 146.508 163.154 146.626 163.154Z" fill="#3F3D56"/>
<path d="M142.979 163.154H144.377C144.494 163.154 144.59 163.059 144.59 162.941V162.272C144.59 162.155 144.494 162.06 144.377 162.06H142.979C142.861 162.06 142.766 162.155 142.766 162.272V162.941C142.766 163.059 142.861 163.154 142.979 163.154Z" fill="#3F3D56"/>
<path d="M139.331 163.154H140.73C140.847 163.154 140.942 163.059 140.942 162.941V162.272C140.942 162.155 140.847 162.06 140.73 162.06H139.331C139.214 162.06 139.119 162.155 139.119 162.272V162.941C139.119 163.059 139.214 163.154 139.331 163.154Z" fill="#3F3D56"/>
<path d="M135.684 163.154H137.083C137.2 163.154 137.295 163.059 137.295 162.941V162.272C137.295 162.155 137.2 162.06 137.083 162.06H135.684C135.567 162.06 135.472 162.155 135.472 162.272V162.941C135.472 163.059 135.567 163.154 135.684 163.154Z" fill="#3F3D56"/>
<path d="M132.037 163.154H133.435C133.553 163.154 133.648 163.059 133.648 162.941V162.272C133.648 162.155 133.553 162.06 133.435 162.06H132.037C131.919 162.06 131.824 162.155 131.824 162.272V162.941C131.824 163.059 131.919 163.154 132.037 163.154Z" fill="#3F3D56"/>
<path d="M128.39 163.154H129.788C129.906 163.154 130.001 163.059 130.001 162.941V162.272C130.001 162.155 129.906 162.06 129.788 162.06H128.39C128.272 162.06 128.177 162.155 128.177 162.272V162.941C128.177 163.059 128.272 163.154 128.39 163.154Z" fill="#3F3D56"/>
<path d="M124.742 163.154H126.141C126.258 163.154 126.354 163.059 126.354 162.941V162.272C126.354 162.155 126.258 162.06 126.141 162.06H124.742C124.625 162.06 124.53 162.155 124.53 162.272V162.941C124.53 163.059 124.625 163.154 124.742 163.154Z" fill="#3F3D56"/>
<path d="M121.095 163.154H122.494C122.611 163.154 122.706 163.059 122.706 162.941V162.272C122.706 162.155 122.611 162.06 122.494 162.06H121.095C120.978 162.06 120.882 162.155 120.882 162.272V162.941C120.882 163.059 120.978 163.154 121.095 163.154Z" fill="#3F3D56"/>
<path d="M117.448 163.154H118.846C118.964 163.154 119.059 163.059 119.059 162.941V162.272C119.059 162.155 118.964 162.06 118.846 162.06H117.448C117.33 162.06 117.235 162.155 117.235 162.272V162.941C117.235 163.059 117.33 163.154 117.448 163.154Z" fill="#3F3D56"/>
<path d="M113.801 163.154H115.199C115.316 163.154 115.412 163.059 115.412 162.941V162.272C115.412 162.155 115.316 162.06 115.199 162.06H113.801C113.683 162.06 113.588 162.155 113.588 162.272V162.941C113.588 163.059 113.683 163.154 113.801 163.154Z" fill="#3F3D56"/>
<path d="M138.237 165.342H152.401C152.519 165.342 152.614 165.247 152.614 165.13V164.461C152.614 164.343 152.519 164.248 152.401 164.248H138.237C138.12 164.248 138.025 164.343 138.025 164.461V165.13C138.025 165.247 138.12 165.342 138.237 165.342Z" fill="#3F3D56"/>
</svg>
