<?xml version="1.0" encoding="UTF-8"?>
<!DOCTYPE svg PUBLIC "-//W3C//DTD SVG 1.1//EN" "http://www.w3.org/Graphics/SVG/1.1/DTD/svg11.dtd">
<!-- Creator: CorelDRAW X7 -->
<svg xmlns="http://www.w3.org/2000/svg" xml:space="preserve" width="100mm" height="100mm" version="1.1" style="shape-rendering:geometricPrecision; text-rendering:geometricPrecision; image-rendering:optimizeQuality; fill-rule:evenodd; clip-rule:evenodd"
viewBox="0 0 10000 10000"
 xmlns:xlink="http://www.w3.org/1999/xlink">
 <defs>
  <style type="text/css">
   <![CDATA[
    .fil0 {fill:#003F88}
    .fil1 {fill:#FDC502}
    .fil2 {fill:#003F88;fill-rule:nonzero}
    .fil3 {fill:#FDC502;fill-rule:nonzero}
   ]]>
  </style>
 </defs>
 <g id="Camada_x0020_1">
  <metadata id="CorelCorpID_0Corel-Layer"/>
  <path class="fil0" d="M11831 4625l1901 1267 144 -646 -1708 -814 -26 -2369 2153 770 -200 346c48,86 349,579 343,628l-38 309 368 189 -77 -498c-8,-49 295,-542 343,-628l-200 -346 2153 -770 -26 2369 -1708 814 144 646 1901 -1267 -5 -3070 -1836 -682c-188,-68 -419,-170 -628,-220l1759 1029 -2023 1065 -2024 -1065 1759 -1029c-209,50 -440,152 -628,220l-1836 682 -5 3070z"/>
  <polygon class="fil0" points="14564,7528 15185,6600 14893,5039 14278,4714 13961,6618 "/>
  <polygon class="fil1" points="14314,4526 14860,4811 14814,4546 14354,4318 "/>
  <g id="_2589453173168">
   <path class="fil2" d="M7228 5416c-44,-50 -78,-111 -102,-183 -24,-72 -36,-153 -36,-241 0,-90 12,-169 38,-238 25,-69 60,-128 105,-176 94,-99 220,-149 375,-149 127,0 227,30 302,89 32,26 55,54 70,84 15,30 23,53 23,69 0,16 0,29 -1,38 -1,10 -4,19 -9,28 -12,22 -34,33 -67,33l-62 0c-15,0 -24,-4 -28,-12 -6,-10 -9,-23 -11,-39 -2,-16 -7,-32 -14,-46 -8,-15 -20,-29 -37,-42 -39,-30 -91,-46 -156,-46 -65,0 -117,11 -157,31 -40,20 -73,49 -99,85 -52,71 -78,167 -78,287 0,119 23,217 70,292 55,86 136,129 242,129 115,0 186,-31 213,-93 8,-18 12,-35 12,-52 0,-17 -2,-34 -7,-51 -5,-17 -13,-33 -25,-48 -27,-37 -67,-62 -121,-75 -15,-4 -29,-11 -41,-22 -12,-11 -19,-26 -19,-45l0 -26c0,-9 4,-18 12,-25 8,-7 17,-10 28,-10l338 0c26,0 40,12 40,35l0 79c0,10 -4,17 -12,23 -8,6 -17,8 -28,8l-106 0c54,25 90,65 108,121 6,21 10,42 10,63 0,22 -3,42 -9,62 -6,20 -15,40 -28,60 -13,20 -30,39 -51,58 -21,20 -46,36 -77,51 -67,33 -143,49 -228,49 -86,0 -159,-13 -220,-40 -61,-26 -114,-65 -157,-115z"/>
   <path class="fil2" d="M5903 5280c-21,-44 -36,-89 -47,-138 -11,-49 -16,-107 -16,-173 0,-67 12,-135 38,-203 26,-69 62,-129 110,-179 99,-105 228,-158 386,-158 168,0 301,54 396,162 91,103 136,236 136,401 0,164 -50,300 -149,411 -48,52 -104,92 -170,123 -66,30 -133,45 -200,45 -68,0 -125,-8 -173,-22 -48,-14 -91,-34 -130,-59 -40,-26 -74,-57 -105,-92 -30,-36 -55,-75 -76,-118zm132 -293c0,55 7,108 20,157 13,50 34,94 61,133 60,85 146,128 256,128 110,0 196,-41 256,-122 55,-75 83,-172 83,-291 0,-113 -28,-206 -85,-279 -62,-79 -146,-119 -253,-119 -104,0 -186,37 -247,111 -61,73 -91,167 -91,282z"/>
   <path class="fil2" d="M5067 4493c0,-13 4,-23 12,-33 8,-9 17,-13 28,-13l101 0c11,0 21,4 29,13 7,10 11,20 11,33l0 899 391 0c12,0 22,4 28,12 7,8 10,17 10,29l0 79c0,11 -3,21 -10,29 -6,8 -16,12 -28,12l-532 0c-11,0 -21,-5 -28,-14 -8,-9 -12,-20 -12,-33l0 -1013z"/>
   <path class="fil2" d="M3969 4509c0,-29 10,-48 30,-57 7,-3 16,-5 26,-5l335 0c94,0 175,20 241,60 81,47 121,120 121,218 0,67 -19,123 -57,168 -35,39 -79,64 -133,75l0 3c73,3 134,24 183,64 55,46 83,108 83,186 0,113 -42,199 -125,256 -72,50 -171,76 -296,76l-352 0c-20,0 -34,-7 -43,-19 -8,-12 -13,-27 -13,-43l0 -982zm407 890c106,0 176,-30 211,-90 13,-22 19,-48 19,-78 0,-30 -4,-54 -12,-72 -8,-17 -19,-33 -33,-45 -14,-12 -31,-23 -50,-30 -18,-7 -38,-13 -59,-18 -36,-6 -72,-10 -108,-10 -45,0 -93,1 -143,4l-53 2 1 337 227 0zm-228 -482c73,0 132,-1 175,-4 75,-4 129,-21 163,-50 35,-28 52,-68 52,-120 0,-51 -18,-88 -55,-110 -37,-23 -92,-34 -165,-34l-170 0 0 318z"/>
   <path class="fil2" d="M2711 5280c-20,-44 -36,-89 -47,-138 -11,-49 -16,-107 -16,-173 0,-67 13,-135 38,-203 26,-69 62,-129 110,-179 99,-105 228,-158 386,-158 168,0 301,54 396,162 91,103 137,236 137,401 0,164 -50,300 -150,411 -48,52 -104,92 -170,123 -66,30 -133,45 -200,45 -68,0 -125,-8 -173,-22 -48,-14 -91,-34 -130,-59 -39,-26 -74,-57 -104,-92 -31,-36 -56,-75 -77,-118zm132 -293c0,55 7,108 20,157 13,50 34,94 61,133 60,85 146,128 256,128 111,0 196,-41 256,-122 55,-75 83,-172 83,-291 0,-113 -28,-206 -84,-279 -62,-79 -147,-119 -254,-119 -104,0 -186,37 -247,111 -61,73 -91,167 -91,282z"/>
   <path class="fil3" d="M2126 5422c85,0 127,-69 127,-207l0 -722c0,-13 4,-23 11,-33 7,-9 16,-13 27,-13l104 0c11,0 20,4 27,13 7,10 11,20 11,33l0 762c0,107 -26,187 -79,242 -47,50 -112,74 -194,74 -51,0 -90,-5 -117,-16 -26,-11 -44,-21 -54,-31 -10,-10 -15,-20 -15,-30 0,-11 1,-19 3,-27l7 -22c10,-31 22,-47 38,-47 4,0 9,2 16,4l22 8c22,8 44,12 66,12z"/>
  </g>
 </g>
</svg>
