<?xml version="1.0" encoding="UTF-8"?>
<!DOCTYPE svg PUBLIC "-//W3C//DTD SVG 1.1//EN" "http://www.w3.org/Graphics/SVG/1.1/DTD/svg11.dtd">
<!-- Creator: CorelDRAW X7 -->
<svg xmlns="http://www.w3.org/2000/svg" xml:space="preserve" width="100mm" height="100mm" version="1.1" style="shape-rendering:geometricPrecision; text-rendering:geometricPrecision; image-rendering:optimizeQuality; fill-rule:evenodd; clip-rule:evenodd"
viewBox="0 0 10000 10000"
 xmlns:xlink="http://www.w3.org/1999/xlink">
 <defs>
  <style type="text/css">
   <![CDATA[
    .fil0 {fill:#003F88}
    .fil1 {fill:#FDC502}
    .fil2 {fill:#003F88;fill-rule:nonzero}
    .fil3 {fill:#FDC502;fill-rule:nonzero}
   ]]>
  </style>
 </defs>
 <g id="Camada_x0020_1">
  <metadata id="CorelCorpID_0Corel-Layer"/>
  <g id="_2589451143024">
   <path class="fil0" d="M2266 5535l1901 1267 144 -646 -1708 -814 -26 -2369 2153 770 -200 346c49,86 350,579 344,628l-38 309 368 189 -78 -498c-7,-49 295,-542 344,-628l-200 -346 2153 -770 -26 2369 -1708 814 144 646 1901 -1267 -5 -3071 -1836 -681c-189,-68 -419,-170 -628,-221l1759 1030 -2024 1065 -2024 -1065 1759 -1030c-209,51 -439,153 -628,221l-1836 681 -5 3071z"/>
   <polygon class="fil0" points="4999,8438 5620,7510 5328,5949 4714,5624 4396,7527 "/>
   <polygon class="fil1" points="4749,5436 5296,5721 5250,5456 4789,5228 "/>
  </g>
  <g id="_2589451141936">
   <path class="fil2" d="M16022 9192c-43,-50 -77,-111 -101,-183 -24,-72 -37,-153 -37,-242 0,-89 13,-168 38,-237 25,-69 61,-128 106,-176 94,-99 219,-149 375,-149 126,0 227,30 301,89 32,26 55,54 71,84 15,30 22,53 22,69 0,16 0,29 -1,38 0,10 -3,19 -8,28 -12,22 -34,33 -68,33l-62 0c-14,0 -24,-4 -28,-12 -5,-10 -9,-23 -11,-39 -2,-16 -6,-32 -14,-46 -7,-15 -19,-29 -36,-42 -40,-31 -92,-46 -156,-46 -65,0 -117,11 -157,31 -40,20 -73,49 -100,85 -52,71 -78,167 -78,287 0,119 24,217 71,292 55,86 135,129 242,129 115,0 186,-31 212,-93 8,-18 13,-35 13,-52 0,-17 -3,-34 -7,-51 -5,-17 -14,-33 -26,-48 -27,-37 -67,-62 -120,-75 -16,-4 -30,-11 -42,-22 -12,-11 -18,-26 -18,-46l0 -25c0,-9 4,-18 12,-25 7,-7 16,-10 28,-10l337 0c27,0 41,12 41,35l0 79c0,10 -4,17 -12,23 -8,6 -18,8 -29,8l-105 0c53,25 89,65 107,121 7,21 10,42 10,63 0,22 -2,42 -8,62 -6,20 -15,40 -28,60 -13,20 -30,39 -51,58 -21,20 -47,36 -77,51 -67,33 -143,49 -229,49 -85,0 -159,-13 -220,-40 -61,-26 -113,-65 -157,-115z"/>
   <path class="fil2" d="M14698 9056c-21,-44 -37,-89 -48,-138 -10,-49 -16,-107 -16,-173 0,-67 13,-135 39,-203 25,-69 62,-129 109,-179 100,-105 228,-158 387,-158 168,0 300,54 396,162 90,103 136,236 136,401 0,164 -50,300 -150,411 -47,52 -104,92 -170,123 -65,30 -132,45 -200,45 -67,0 -125,-8 -173,-22 -47,-14 -90,-34 -130,-59 -39,-26 -74,-57 -104,-93 -30,-35 -56,-74 -76,-117zm132 -293c0,55 6,108 19,157 14,50 34,94 61,133 61,85 146,128 256,128 111,0 196,-41 257,-122 55,-75 83,-172 83,-292 0,-112 -29,-205 -85,-278 -62,-79 -146,-119 -254,-119 -103,0 -185,37 -247,111 -60,73 -90,167 -90,282z"/>
   <path class="fil2" d="M13861 8269c0,-13 4,-23 13,-33 7,-9 17,-13 28,-13l101 0c11,0 20,4 28,13 8,10 12,20 12,33l0 899 390 0c13,0 23,4 29,12 7,8 10,17 10,29l0 79c0,11 -3,21 -10,29 -6,8 -16,12 -29,12l-532 0c-11,0 -20,-5 -28,-14 -8,-9 -12,-20 -12,-33l0 -1013z"/>
   <path class="fil2" d="M12764 8285c0,-29 10,-48 30,-57 7,-3 15,-5 25,-5l336 0c94,0 174,20 241,60 80,47 121,120 121,218 0,67 -19,123 -58,168 -35,39 -79,64 -133,75l0 3c74,3 135,24 184,64 55,46 83,108 83,186 0,113 -42,199 -125,256 -73,50 -172,76 -296,76l-353 0c-19,0 -34,-7 -42,-19 -9,-12 -13,-27 -13,-43l0 -982zm407 890c105,0 176,-30 210,-90 13,-22 20,-48 20,-78 0,-30 -4,-54 -13,-72 -8,-17 -19,-33 -33,-45 -14,-12 -30,-23 -49,-30 -19,-7 -38,-13 -59,-18 -36,-6 -72,-10 -108,-10 -45,0 -93,1 -144,4l-52 2 0 337 228 0zm-228 -482c73,0 131,-1 175,-4 74,-4 128,-21 163,-50 35,-28 52,-68 52,-120 0,-51 -19,-88 -55,-110 -37,-23 -92,-34 -165,-34l-170 0 0 318z"/>
   <path class="fil2" d="M11506 9056c-21,-44 -37,-89 -48,-138 -10,-49 -16,-107 -16,-173 0,-67 13,-135 39,-203 25,-69 62,-129 109,-179 100,-105 228,-158 387,-158 168,0 300,54 396,162 91,103 136,236 136,401 0,164 -50,300 -150,411 -47,52 -104,92 -169,123 -66,30 -133,45 -201,45 -67,0 -125,-8 -173,-22 -47,-14 -90,-34 -130,-59 -39,-26 -74,-57 -104,-93 -30,-35 -56,-74 -76,-117zm132 -293c0,55 6,108 19,157 14,50 34,94 61,133 61,85 146,128 257,128 110,0 196,-41 256,-122 55,-75 83,-172 83,-292 0,-112 -28,-205 -85,-278 -62,-79 -146,-119 -254,-119 -103,0 -185,37 -246,111 -61,73 -91,167 -91,282z"/>
   <path class="fil3" d="M10921 9198c84,0 127,-69 127,-207l0 -722c0,-13 3,-23 11,-33 7,-9 16,-13 27,-13l104 0c10,0 19,4 26,13 8,10 11,20 11,33l0 762c0,107 -26,187 -78,242 -48,50 -112,74 -194,74 -52,0 -91,-5 -117,-16 -27,-11 -45,-21 -55,-31 -9,-10 -14,-20 -14,-30 0,-11 1,-19 3,-27l7 -22c9,-31 22,-47 37,-47 5,0 10,1 16,4l22 8c22,8 45,12 67,12z"/>
  </g>
 </g>
</svg>
