<svg width="198" height="40" viewBox="0 0 198 40" fill="none" xmlns="http://www.w3.org/2000/svg">
<path d="M1.888 32V8.96H20.096C20.8 8.96 21.44 9.13067 22.016 9.472C22.6133 9.81333 23.0827 10.2827 23.424 10.88C23.7653 11.456 23.936 12.096 23.936 12.8V17.696C23.936 17.9947 23.8933 18.2933 23.808 18.592C23.744 18.8693 23.648 19.136 23.52 19.392C23.9893 20.096 24.3413 20.704 24.576 21.216C24.8107 21.728 24.928 22.2507 24.928 22.784V28.16C24.928 28.864 24.7573 29.5147 24.416 30.112C24.0747 30.688 23.6053 31.1467 23.008 31.488C22.432 31.8293 21.792 32 21.088 32H1.888ZM5.728 29.408H21.088C21.4293 29.408 21.7173 29.2907 21.952 29.056C22.208 28.8 22.336 28.5013 22.336 28.16V22.784C22.336 22.4427 22.208 22.1547 21.952 21.92C21.7173 21.664 21.4293 21.536 21.088 21.536H5.728C5.38667 21.536 5.088 21.664 4.832 21.92C4.59733 22.1547 4.48 22.4427 4.48 22.784V28.16C4.48 28.5013 4.59733 28.8 4.832 29.056C5.088 29.2907 5.38667 29.408 5.728 29.408ZM5.728 18.944H20.096C20.4373 18.944 20.7253 18.8267 20.96 18.592C21.1947 18.336 21.312 18.0373 21.312 17.696V12.8C21.312 12.4587 21.1947 12.1707 20.96 11.936C20.7253 11.68 20.4373 11.552 20.096 11.552H5.728C5.38667 11.552 5.088 11.68 4.832 11.936C4.59733 12.1707 4.48 12.4587 4.48 12.8V17.696C4.48 18.0373 4.59733 18.336 4.832 18.592C5.088 18.8267 5.38667 18.944 5.728 18.944Z" fill="#003F88"/>
<path d="M50.792 32V8.96H54.344L71.24 29.056V8.96H73.832V32H70.28L53.384 11.904V32H50.792ZM77.481 32V12.8C77.481 12.096 77.6517 11.456 77.993 10.88C78.3343 10.2827 78.793 9.81333 79.369 9.472C79.9663 9.13067 80.617 8.96 81.321 8.96H96.681C97.385 8.96 98.025 9.13067 98.601 9.472C99.1983 9.81333 99.6677 10.2827 100.009 10.88C100.35 11.456 100.521 12.096 100.521 12.8V32H97.929V23.584H80.073V32H77.481ZM80.073 20.992H97.929V12.8C97.929 12.4587 97.801 12.1707 97.545 11.936C97.3103 11.68 97.0223 11.552 96.681 11.552H81.321C80.9797 11.552 80.681 11.68 80.425 11.936C80.1903 12.1707 80.073 12.4587 80.073 12.8V20.992ZM123.623 32L116.103 23.04H119.495L127.047 31.968V32H123.623ZM104.167 32V8.992H123.367C124.071 8.992 124.711 9.17333 125.287 9.536C125.884 9.87733 126.354 10.336 126.695 10.912C127.036 11.488 127.207 12.128 127.207 12.832V19.584C127.207 20.288 127.036 20.928 126.695 21.504C126.354 22.08 125.884 22.5493 125.287 22.912C124.711 23.2533 124.071 23.424 123.367 23.424H106.759V32H104.167ZM108.007 20.8H123.367C123.708 20.8 123.996 20.6827 124.231 20.448C124.487 20.2133 124.615 19.9253 124.615 19.584V12.832C124.615 12.4907 124.487 12.2027 124.231 11.968C123.996 11.712 123.708 11.584 123.367 11.584H108.007C107.666 11.584 107.367 11.712 107.111 11.968C106.876 12.2027 106.759 12.4907 106.759 12.832V19.584C106.759 19.9253 106.876 20.2133 107.111 20.448C107.367 20.6827 107.666 20.8 108.007 20.8Z" fill="#003F88"/>
<path d="M176.472 32C175.768 32 175.117 31.8293 174.52 31.488C173.944 31.1467 173.485 30.688 173.144 30.112C172.803 29.5147 172.632 28.864 172.632 28.16V27.264H175.224V28.16C175.224 28.5013 175.341 28.8 175.576 29.056C175.832 29.2907 176.131 29.408 176.472 29.408H191.832C192.173 29.408 192.461 29.2907 192.696 29.056C192.952 28.8 193.08 28.5013 193.08 28.16V23.008C193.08 22.6667 192.952 22.3787 192.696 22.144C192.461 21.9093 192.173 21.792 191.832 21.792H176.472C175.768 21.792 175.117 21.6213 174.52 21.28C173.944 20.9173 173.485 20.448 173.144 19.872C172.803 19.296 172.632 18.656 172.632 17.952V12.8C172.632 12.096 172.803 11.456 173.144 10.88C173.485 10.2827 173.944 9.81333 174.52 9.472C175.117 9.13067 175.768 8.96 176.472 8.96H191.832C192.536 8.96 193.176 9.13067 193.752 9.472C194.349 9.81333 194.819 10.2827 195.16 10.88C195.501 11.456 195.672 12.096 195.672 12.8V13.696H193.08V12.8C193.08 12.4587 192.952 12.1707 192.696 11.936C192.461 11.68 192.173 11.552 191.832 11.552H176.472C176.131 11.552 175.832 11.68 175.576 11.936C175.341 12.1707 175.224 12.4587 175.224 12.8V17.952C175.224 18.2933 175.341 18.5813 175.576 18.816C175.832 19.0507 176.131 19.168 176.472 19.168H191.832C192.536 19.168 193.176 19.3493 193.752 19.712C194.349 20.0533 194.819 20.512 195.16 21.088C195.501 21.664 195.672 22.304 195.672 23.008V28.16C195.672 28.864 195.501 29.5147 195.16 30.112C194.819 30.688 194.349 31.1467 193.752 31.488C193.176 31.8293 192.536 32 191.832 32H176.472Z" fill="#003F88"/>
<path d="M31.1534 16V13.115L30.7384 13.615H30.0284L31.0484 12.4H31.6934V16H31.1534Z" fill="#FFD500"/>
<path d="M32.5307 16V15.423L32.4477 15.523H32.3057L32.5097 15.28H32.6387V16H32.5307Z" fill="#FFD500"/>
<path d="M36.5614 10V8.846L36.3954 9.046H36.1114L36.5194 8.56H36.7774V10H36.5614Z" fill="#FFD500"/>
<path d="M36.5614 13V11.846L36.3954 12.046H36.1114L36.5194 11.56H36.7774V13H36.5614Z" fill="#FFD500"/>
<path d="M32.54 15C32.492 15 32.448 14.988 32.408 14.964C32.3693 14.9387 32.338 14.906 32.314 14.866C32.2913 14.8247 32.28 14.7807 32.28 14.734V13.824C32.28 13.776 32.2913 13.732 32.314 13.692C32.338 13.652 32.3693 13.62 32.408 13.596C32.448 13.572 32.492 13.56 32.54 13.56H33.46C33.5067 13.56 33.5493 13.572 33.588 13.596C33.628 13.62 33.66 13.652 33.684 13.692C33.708 13.732 33.72 13.776 33.72 13.824V14.734C33.72 14.7807 33.708 14.8247 33.684 14.866C33.66 14.906 33.628 14.9387 33.588 14.964C33.5493 14.988 33.5067 15 33.46 15H32.54ZM32.568 14.776H33.454C33.4673 14.776 33.4787 14.7713 33.488 14.762C33.4987 14.7527 33.504 14.7413 33.504 14.728V14.002L32.568 14.776ZM32.496 14.554L33.43 13.78H32.546C32.5327 13.78 32.5207 13.7853 32.51 13.796C32.5007 13.8053 32.496 13.8167 32.496 13.83V14.554Z" fill="#FFD500"/>
<path d="M33.655 13C33.619 13 33.586 12.991 33.556 12.973C33.527 12.954 33.5035 12.9295 33.4855 12.8995C33.4685 12.8685 33.46 12.8355 33.46 12.8005V12.118C33.46 12.082 33.4685 12.049 33.4855 12.019C33.5035 11.989 33.527 11.965 33.556 11.947C33.586 11.929 33.619 11.92 33.655 11.92H34.345C34.38 11.92 34.412 11.929 34.441 11.947C34.471 11.965 34.495 11.989 34.513 12.019C34.531 12.049 34.54 12.082 34.54 12.118V12.8005C34.54 12.8355 34.531 12.8685 34.513 12.8995C34.495 12.9295 34.471 12.954 34.441 12.973C34.412 12.991 34.38 13 34.345 13H33.655ZM33.676 12.832H34.3405C34.3505 12.832 34.359 12.8285 34.366 12.8215C34.374 12.8145 34.378 12.806 34.378 12.796V12.2515L33.676 12.832ZM33.622 12.6655L34.3225 12.085H33.6595C33.6495 12.085 33.6405 12.089 33.6325 12.097C33.6255 12.104 33.622 12.1125 33.622 12.1225V12.6655Z" fill="#FFD500"/>
<path d="M37.655 13C37.619 13 37.586 12.991 37.556 12.973C37.527 12.954 37.5035 12.9295 37.4855 12.8995C37.4685 12.8685 37.46 12.8355 37.46 12.8005V12.118C37.46 12.082 37.4685 12.049 37.4855 12.019C37.5035 11.989 37.527 11.965 37.556 11.947C37.586 11.929 37.619 11.92 37.655 11.92H38.345C38.38 11.92 38.412 11.929 38.441 11.947C38.471 11.965 38.495 11.989 38.513 12.019C38.531 12.049 38.54 12.082 38.54 12.118V12.8005C38.54 12.8355 38.531 12.8685 38.513 12.8995C38.495 12.9295 38.471 12.954 38.441 12.973C38.412 12.991 38.38 13 38.345 13H37.655ZM37.676 12.832H38.3405C38.3505 12.832 38.359 12.8285 38.366 12.8215C38.374 12.8145 38.378 12.806 38.378 12.796V12.2515L37.676 12.832ZM37.622 12.6655L38.3225 12.085H37.6595C37.6495 12.085 37.6405 12.089 37.6325 12.097C37.6255 12.104 37.622 12.1125 37.622 12.1225V12.6655Z" fill="#FFD500"/>
<path d="M38.27 18C38.246 18 38.224 17.994 38.204 17.982C38.1847 17.9693 38.169 17.953 38.157 17.933C38.1457 17.9123 38.14 17.8903 38.14 17.867V17.412C38.14 17.388 38.1457 17.366 38.157 17.346C38.169 17.326 38.1847 17.31 38.204 17.298C38.224 17.286 38.246 17.28 38.27 17.28H38.73C38.7533 17.28 38.7747 17.286 38.794 17.298C38.814 17.31 38.83 17.326 38.842 17.346C38.854 17.366 38.86 17.388 38.86 17.412V17.867C38.86 17.8903 38.854 17.9123 38.842 17.933C38.83 17.953 38.814 17.9693 38.794 17.982C38.7747 17.994 38.7533 18 38.73 18H38.27ZM38.284 17.888H38.727C38.7337 17.888 38.7393 17.8857 38.744 17.881C38.7493 17.8763 38.752 17.8707 38.752 17.864V17.501L38.284 17.888ZM38.248 17.777L38.715 17.39H38.273C38.2663 17.39 38.2603 17.3927 38.255 17.398C38.2503 17.4027 38.248 17.4083 38.248 17.415V17.777Z" fill="#FFD500"/>
<path d="M38.27 14C38.246 14 38.224 13.994 38.204 13.982C38.1847 13.9693 38.169 13.953 38.157 13.933C38.1457 13.9123 38.14 13.8903 38.14 13.867V13.412C38.14 13.388 38.1457 13.366 38.157 13.346C38.169 13.326 38.1847 13.31 38.204 13.298C38.224 13.286 38.246 13.28 38.27 13.28H38.73C38.7533 13.28 38.7747 13.286 38.794 13.298C38.814 13.31 38.83 13.326 38.842 13.346C38.854 13.366 38.86 13.388 38.86 13.412V13.867C38.86 13.8903 38.854 13.9123 38.842 13.933C38.83 13.953 38.814 13.9693 38.794 13.982C38.7747 13.994 38.7533 14 38.73 14H38.27ZM38.284 13.888H38.727C38.7337 13.888 38.7393 13.8857 38.744 13.881C38.7493 13.8763 38.752 13.8707 38.752 13.864V13.501L38.284 13.888ZM38.248 13.777L38.715 13.39H38.273C38.2663 13.39 38.2603 13.3927 38.255 13.398C38.2503 13.4027 38.248 13.4083 38.248 13.415V13.777Z" fill="#FFD500"/>
<path d="M37.27 19C37.246 19 37.224 18.994 37.204 18.982C37.1847 18.9693 37.169 18.953 37.157 18.933C37.1457 18.9123 37.14 18.8903 37.14 18.867V18.412C37.14 18.388 37.1457 18.366 37.157 18.346C37.169 18.326 37.1847 18.31 37.204 18.298C37.224 18.286 37.246 18.28 37.27 18.28H37.73C37.7533 18.28 37.7747 18.286 37.794 18.298C37.814 18.31 37.83 18.326 37.842 18.346C37.854 18.366 37.86 18.388 37.86 18.412V18.867C37.86 18.8903 37.854 18.9123 37.842 18.933C37.83 18.953 37.814 18.9693 37.794 18.982C37.7747 18.994 37.7533 19 37.73 19H37.27ZM37.284 18.888H37.727C37.7337 18.888 37.7393 18.8857 37.744 18.881C37.7493 18.8763 37.752 18.8707 37.752 18.864V18.501L37.284 18.888ZM37.248 18.777L37.715 18.39H37.273C37.2663 18.39 37.2603 18.3927 37.255 18.398C37.2503 18.4027 37.248 18.4083 37.248 18.415V18.777Z" fill="#FFD500"/>
<path d="M36.655 11C36.619 11 36.586 10.991 36.556 10.973C36.527 10.954 36.5035 10.9295 36.4855 10.8995C36.4685 10.8685 36.46 10.8355 36.46 10.8005V10.118C36.46 10.082 36.4685 10.049 36.4855 10.019C36.5035 9.989 36.527 9.965 36.556 9.947C36.586 9.929 36.619 9.92 36.655 9.92H37.345C37.38 9.92 37.412 9.929 37.441 9.947C37.471 9.965 37.495 9.989 37.513 10.019C37.531 10.049 37.54 10.082 37.54 10.118V10.8005C37.54 10.8355 37.531 10.8685 37.513 10.8995C37.495 10.9295 37.471 10.954 37.441 10.973C37.412 10.991 37.38 11 37.345 11H36.655ZM36.676 10.832H37.3405C37.3505 10.832 37.359 10.8285 37.366 10.8215C37.374 10.8145 37.378 10.806 37.378 10.796V10.2515L36.676 10.832ZM36.622 10.6655L37.3225 10.085H36.6595C36.6495 10.085 36.6405 10.089 36.6325 10.097C36.6255 10.104 36.622 10.1125 36.622 10.1225V10.6655Z" fill="#FFD500"/>
<path d="M29.27 16C29.246 16 29.224 15.994 29.204 15.982C29.1847 15.9693 29.169 15.953 29.157 15.933C29.1457 15.9123 29.14 15.8903 29.14 15.867V15.412C29.14 15.388 29.1457 15.366 29.157 15.346C29.169 15.326 29.1847 15.31 29.204 15.298C29.224 15.286 29.246 15.28 29.27 15.28H29.73C29.7533 15.28 29.7747 15.286 29.794 15.298C29.814 15.31 29.83 15.326 29.842 15.346C29.854 15.366 29.86 15.388 29.86 15.412V15.867C29.86 15.8903 29.854 15.9123 29.842 15.933C29.83 15.953 29.814 15.9693 29.794 15.982C29.7747 15.994 29.7533 16 29.73 16H29.27ZM29.284 15.888H29.727C29.7337 15.888 29.7393 15.8857 29.744 15.881C29.7493 15.8763 29.752 15.8707 29.752 15.864V15.501L29.284 15.888ZM29.248 15.777L29.715 15.39H29.273C29.2663 15.39 29.2603 15.3927 29.255 15.398C29.2503 15.4027 29.248 15.4083 29.248 15.415V15.777Z" fill="#FFD500"/>
<path d="M30.27 15C30.246 15 30.224 14.994 30.204 14.982C30.1847 14.9693 30.169 14.953 30.157 14.933C30.1457 14.9123 30.14 14.8903 30.14 14.867V14.412C30.14 14.388 30.1457 14.366 30.157 14.346C30.169 14.326 30.1847 14.31 30.204 14.298C30.224 14.286 30.246 14.28 30.27 14.28H30.73C30.7533 14.28 30.7747 14.286 30.794 14.298C30.814 14.31 30.83 14.326 30.842 14.346C30.854 14.366 30.86 14.388 30.86 14.412V14.867C30.86 14.8903 30.854 14.9123 30.842 14.933C30.83 14.953 30.814 14.9693 30.794 14.982C30.7747 14.994 30.7533 15 30.73 15H30.27ZM30.284 14.888H30.727C30.7337 14.888 30.7393 14.8857 30.744 14.881C30.7493 14.8763 30.752 14.8707 30.752 14.864V14.501L30.284 14.888ZM30.248 14.777L30.715 14.39H30.273C30.2663 14.39 30.2603 14.3927 30.255 14.398C30.2503 14.4027 30.248 14.4083 30.248 14.415V14.777Z" fill="#FFD500"/>
<path d="M38.27 17C38.246 17 38.224 16.994 38.204 16.982C38.1847 16.9693 38.169 16.953 38.157 16.933C38.1457 16.9123 38.14 16.8903 38.14 16.867V16.412C38.14 16.388 38.1457 16.366 38.157 16.346C38.169 16.326 38.1847 16.31 38.204 16.298C38.224 16.286 38.246 16.28 38.27 16.28H38.73C38.7533 16.28 38.7747 16.286 38.794 16.298C38.814 16.31 38.83 16.326 38.842 16.346C38.854 16.366 38.86 16.388 38.86 16.412V16.867C38.86 16.8903 38.854 16.9123 38.842 16.933C38.83 16.953 38.814 16.9693 38.794 16.982C38.7747 16.994 38.7533 17 38.73 17H38.27ZM38.284 16.888H38.727C38.7337 16.888 38.7393 16.8857 38.744 16.881C38.7493 16.8763 38.752 16.8707 38.752 16.864V16.501L38.284 16.888ZM38.248 16.777L38.715 16.39H38.273C38.2663 16.39 38.2603 16.3927 38.255 16.398C38.2503 16.4027 38.248 16.4083 38.248 16.415V16.777Z" fill="#FFD500"/>
<path d="M38.27 23C38.246 23 38.224 22.994 38.204 22.982C38.1847 22.9693 38.169 22.953 38.157 22.933C38.1457 22.9123 38.14 22.8903 38.14 22.867V22.412C38.14 22.388 38.1457 22.366 38.157 22.346C38.169 22.326 38.1847 22.31 38.204 22.298C38.224 22.286 38.246 22.28 38.27 22.28H38.73C38.7533 22.28 38.7747 22.286 38.794 22.298C38.814 22.31 38.83 22.326 38.842 22.346C38.854 22.366 38.86 22.388 38.86 22.412V22.867C38.86 22.8903 38.854 22.9123 38.842 22.933C38.83 22.953 38.814 22.9693 38.794 22.982C38.7747 22.994 38.7533 23 38.73 23H38.27ZM38.284 22.888H38.727C38.7337 22.888 38.7393 22.8857 38.744 22.881C38.7493 22.8763 38.752 22.8707 38.752 22.864V22.501L38.284 22.888ZM38.248 22.777L38.715 22.39H38.273C38.2663 22.39 38.2603 22.3927 38.255 22.398C38.2503 22.4027 38.248 22.4083 38.248 22.415V22.777Z" fill="#FFD500"/>
<path d="M37.925 22C37.865 22 37.81 21.985 37.76 21.955C37.7117 21.9233 37.6725 21.8825 37.6425 21.8325C37.6142 21.7808 37.6 21.7258 37.6 21.6675V20.53C37.6 20.47 37.6142 20.415 37.6425 20.365C37.6725 20.315 37.7117 20.275 37.76 20.245C37.81 20.215 37.865 20.2 37.925 20.2H39.075C39.1334 20.2 39.1867 20.215 39.235 20.245C39.285 20.275 39.325 20.315 39.355 20.365C39.385 20.415 39.4 20.47 39.4 20.53V21.6675C39.4 21.7258 39.385 21.7808 39.355 21.8325C39.325 21.8825 39.285 21.9233 39.235 21.955C39.1867 21.985 39.1334 22 39.075 22H37.925ZM37.96 21.72H39.0675C39.0842 21.72 39.0984 21.7142 39.11 21.7025C39.1234 21.6908 39.13 21.6767 39.13 21.66V20.7525L37.96 21.72ZM37.87 21.4425L39.0375 20.475H37.9325C37.9159 20.475 37.9009 20.4817 37.8875 20.495C37.8759 20.5067 37.87 20.5208 37.87 20.5375V21.4425Z" fill="#FFD500"/>
<path d="M36.655 25C36.619 25 36.586 24.991 36.556 24.973C36.527 24.954 36.5035 24.9295 36.4855 24.8995C36.4685 24.8685 36.46 24.8355 36.46 24.8005V24.118C36.46 24.082 36.4685 24.049 36.4855 24.019C36.5035 23.989 36.527 23.965 36.556 23.947C36.586 23.929 36.619 23.92 36.655 23.92H37.345C37.38 23.92 37.412 23.929 37.441 23.947C37.471 23.965 37.495 23.989 37.513 24.019C37.531 24.049 37.54 24.082 37.54 24.118V24.8005C37.54 24.8355 37.531 24.8685 37.513 24.8995C37.495 24.9295 37.471 24.954 37.441 24.973C37.412 24.991 37.38 25 37.345 25H36.655ZM36.676 24.832H37.3405C37.3505 24.832 37.359 24.8285 37.366 24.8215C37.374 24.8145 37.378 24.806 37.378 24.796V24.2515L36.676 24.832ZM36.622 24.6655L37.3225 24.085H36.6595C36.6495 24.085 36.6405 24.089 36.6325 24.097C36.6255 24.104 36.622 24.1125 36.622 24.1225V24.6655Z" fill="#FFD500"/>
<path d="M39.27 27C39.246 27 39.224 26.994 39.204 26.982C39.1847 26.9693 39.169 26.953 39.157 26.933C39.1457 26.9123 39.14 26.8903 39.14 26.867V26.412C39.14 26.388 39.1457 26.366 39.157 26.346C39.169 26.326 39.1847 26.31 39.204 26.298C39.224 26.286 39.246 26.28 39.27 26.28H39.73C39.7533 26.28 39.7747 26.286 39.794 26.298C39.814 26.31 39.83 26.326 39.842 26.346C39.854 26.366 39.86 26.388 39.86 26.412V26.867C39.86 26.8903 39.854 26.9123 39.842 26.933C39.83 26.953 39.814 26.9693 39.794 26.982C39.7747 26.994 39.7533 27 39.73 27H39.27ZM39.284 26.888H39.727C39.7337 26.888 39.7393 26.8857 39.744 26.881C39.7493 26.8763 39.752 26.8707 39.752 26.864V26.501L39.284 26.888ZM39.248 26.777L39.715 26.39H39.273C39.2663 26.39 39.2603 26.3927 39.255 26.398C39.2503 26.4027 39.248 26.4083 39.248 26.415V26.777Z" fill="#FFD500"/>
<path d="M37.54 31C37.492 31 37.448 30.988 37.408 30.964C37.3693 30.9387 37.338 30.906 37.314 30.866C37.2913 30.8247 37.28 30.7807 37.28 30.734V29.824C37.28 29.776 37.2913 29.732 37.314 29.692C37.338 29.652 37.3693 29.62 37.408 29.596C37.448 29.572 37.492 29.56 37.54 29.56H38.46C38.5067 29.56 38.5493 29.572 38.588 29.596C38.628 29.62 38.66 29.652 38.684 29.692C38.708 29.732 38.72 29.776 38.72 29.824V30.734C38.72 30.7807 38.708 30.8247 38.684 30.866C38.66 30.906 38.628 30.9387 38.588 30.964C38.5493 30.988 38.5067 31 38.46 31H37.54ZM37.568 30.776H38.454C38.4673 30.776 38.4787 30.7713 38.488 30.762C38.4987 30.7527 38.504 30.7413 38.504 30.728V30.002L37.568 30.776ZM37.496 30.554L38.43 29.78H37.546C37.5327 29.78 37.5207 29.7853 37.51 29.796C37.5007 29.8053 37.496 29.8167 37.496 29.83V30.554Z" fill="#FFD500"/>
<path d="M32.5614 13V11.846L32.3954 12.046H32.1114L32.5194 11.56H32.7774V13H32.5614Z" fill="#FFD500"/>
<path d="M35.0921 12V10.269L34.8431 10.569H34.4171L35.0291 9.84H35.4161V12H35.0921Z" fill="#FFD500"/>
<path d="M35.5307 14V13.423L35.4477 13.523H35.3057L35.5097 13.28H35.6387V14H35.5307Z" fill="#FFD500"/>
<path d="M34.5307 14V13.423L34.4477 13.523H34.3057L34.5097 13.28H34.6387V14H34.5307Z" fill="#FFD500"/>
<path d="M34.5307 12V11.423L34.4477 11.523H34.3057L34.5097 11.28H34.6387V12H34.5307Z" fill="#FFD500"/>
<path d="M39.1534 12V9.115L38.7384 9.615H38.0284L39.0484 8.4H39.6934V12H39.1534Z" fill="#FFD500"/>
<path d="M37.5307 9V8.423L37.4477 8.523H37.3057L37.5097 8.28H37.6387V9H37.5307Z" fill="#FFD500"/>
<path d="M37.1534 17V14.115L36.7384 14.615H36.0284L37.0484 13.4H37.6934V17H37.1534Z" fill="#FFD500"/>
<path d="M37.1228 23V20.692L36.7908 21.092H36.2228L37.0388 20.12H37.5548V23H37.1228Z" fill="#FFD500"/>
<path d="M39.1228 17V14.692L38.7908 15.092H38.2228L39.0388 14.12H39.5548V17H39.1228Z" fill="#FFD500"/>
<path d="M38.5767 20V18.5575L38.3692 18.8075H38.0142L38.5242 18.2H38.8467V20H38.5767Z" fill="#FFD500"/>
<path d="M39.5614 14V12.846L39.3954 13.046H39.1114L39.5194 12.56H39.7774V14H39.5614Z" fill="#FFD500"/>
<path d="M39.5614 19V17.846L39.3954 18.046H39.1114L39.5194 17.56H39.7774V19H39.5614Z" fill="#FFD500"/>
<path d="M38.5767 25V23.5575L38.3692 23.8075H38.0142L38.5242 23.2H38.8467V25H38.5767Z" fill="#FFD500"/>
<path d="M39.5307 24V23.423L39.4477 23.523H39.3057L39.5097 23.28H39.6387V24H39.5307Z" fill="#FFD500"/>
<path d="M38.5307 26V25.423L38.4477 25.523H38.3057L38.5097 25.28H38.6387V26H38.5307Z" fill="#FFD500"/>
<path d="M39.1534 31V28.115L38.7384 28.615H38.0284L39.0484 27.4H39.6934V31H39.1534Z" fill="#FFD500"/>
<path d="M37.5614 27V25.846L37.3954 26.046H37.1114L37.5194 25.56H37.7774V27H37.5614Z" fill="#FFD500"/>
<path d="M133.153 16V13.115L132.738 13.615H132.028L133.048 12.4H133.693V16H133.153Z" fill="#FFD500"/>
<path d="M134.531 16V15.423L134.448 15.523H134.306L134.51 15.28H134.639V16H134.531Z" fill="#FFD500"/>
<path d="M138.561 10V8.846L138.395 9.046H138.111L138.519 8.56H138.777V10H138.561Z" fill="#FFD500"/>
<path d="M138.561 13V11.846L138.395 12.046H138.111L138.519 11.56H138.777V13H138.561Z" fill="#FFD500"/>
<path d="M134.54 15C134.492 15 134.448 14.988 134.408 14.964C134.369 14.9387 134.338 14.906 134.314 14.866C134.291 14.8247 134.28 14.7807 134.28 14.734V13.824C134.28 13.776 134.291 13.732 134.314 13.692C134.338 13.652 134.369 13.62 134.408 13.596C134.448 13.572 134.492 13.56 134.54 13.56H135.46C135.507 13.56 135.549 13.572 135.588 13.596C135.628 13.62 135.66 13.652 135.684 13.692C135.708 13.732 135.72 13.776 135.72 13.824V14.734C135.72 14.7807 135.708 14.8247 135.684 14.866C135.66 14.906 135.628 14.9387 135.588 14.964C135.549 14.988 135.507 15 135.46 15H134.54ZM134.568 14.776H135.454C135.467 14.776 135.479 14.7713 135.488 14.762C135.499 14.7527 135.504 14.7413 135.504 14.728V14.002L134.568 14.776ZM134.496 14.554L135.43 13.78H134.546C134.533 13.78 134.521 13.7853 134.51 13.796C134.501 13.8053 134.496 13.8167 134.496 13.83V14.554Z" fill="#FFD500"/>
<path d="M135.655 13C135.619 13 135.586 12.991 135.556 12.973C135.527 12.954 135.504 12.9295 135.486 12.8995C135.469 12.8685 135.46 12.8355 135.46 12.8005V12.118C135.46 12.082 135.469 12.049 135.486 12.019C135.504 11.989 135.527 11.965 135.556 11.947C135.586 11.929 135.619 11.92 135.655 11.92H136.345C136.38 11.92 136.412 11.929 136.441 11.947C136.471 11.965 136.495 11.989 136.513 12.019C136.531 12.049 136.54 12.082 136.54 12.118V12.8005C136.54 12.8355 136.531 12.8685 136.513 12.8995C136.495 12.9295 136.471 12.954 136.441 12.973C136.412 12.991 136.38 13 136.345 13H135.655ZM135.676 12.832H136.341C136.351 12.832 136.359 12.8285 136.366 12.8215C136.374 12.8145 136.378 12.806 136.378 12.796V12.2515L135.676 12.832ZM135.622 12.6655L136.323 12.085H135.66C135.65 12.085 135.641 12.089 135.633 12.097C135.626 12.104 135.622 12.1125 135.622 12.1225V12.6655Z" fill="#FFD500"/>
<path d="M139.655 13C139.619 13 139.586 12.991 139.556 12.973C139.527 12.954 139.504 12.9295 139.486 12.8995C139.469 12.8685 139.46 12.8355 139.46 12.8005V12.118C139.46 12.082 139.469 12.049 139.486 12.019C139.504 11.989 139.527 11.965 139.556 11.947C139.586 11.929 139.619 11.92 139.655 11.92H140.345C140.38 11.92 140.412 11.929 140.441 11.947C140.471 11.965 140.495 11.989 140.513 12.019C140.531 12.049 140.54 12.082 140.54 12.118V12.8005C140.54 12.8355 140.531 12.8685 140.513 12.8995C140.495 12.9295 140.471 12.954 140.441 12.973C140.412 12.991 140.38 13 140.345 13H139.655ZM139.676 12.832H140.341C140.351 12.832 140.359 12.8285 140.366 12.8215C140.374 12.8145 140.378 12.806 140.378 12.796V12.2515L139.676 12.832ZM139.622 12.6655L140.323 12.085H139.66C139.65 12.085 139.641 12.089 139.633 12.097C139.626 12.104 139.622 12.1125 139.622 12.1225V12.6655Z" fill="#FFD500"/>
<path d="M140.27 18C140.246 18 140.224 17.994 140.204 17.982C140.185 17.9693 140.169 17.953 140.157 17.933C140.146 17.9123 140.14 17.8903 140.14 17.867V17.412C140.14 17.388 140.146 17.366 140.157 17.346C140.169 17.326 140.185 17.31 140.204 17.298C140.224 17.286 140.246 17.28 140.27 17.28H140.73C140.753 17.28 140.775 17.286 140.794 17.298C140.814 17.31 140.83 17.326 140.842 17.346C140.854 17.366 140.86 17.388 140.86 17.412V17.867C140.86 17.8903 140.854 17.9123 140.842 17.933C140.83 17.953 140.814 17.9693 140.794 17.982C140.775 17.994 140.753 18 140.73 18H140.27ZM140.284 17.888H140.727C140.734 17.888 140.739 17.8857 140.744 17.881C140.749 17.8763 140.752 17.8707 140.752 17.864V17.501L140.284 17.888ZM140.248 17.777L140.715 17.39H140.273C140.266 17.39 140.26 17.3927 140.255 17.398C140.25 17.4027 140.248 17.4083 140.248 17.415V17.777Z" fill="#FFD500"/>
<path d="M140.27 14C140.246 14 140.224 13.994 140.204 13.982C140.185 13.9693 140.169 13.953 140.157 13.933C140.146 13.9123 140.14 13.8903 140.14 13.867V13.412C140.14 13.388 140.146 13.366 140.157 13.346C140.169 13.326 140.185 13.31 140.204 13.298C140.224 13.286 140.246 13.28 140.27 13.28H140.73C140.753 13.28 140.775 13.286 140.794 13.298C140.814 13.31 140.83 13.326 140.842 13.346C140.854 13.366 140.86 13.388 140.86 13.412V13.867C140.86 13.8903 140.854 13.9123 140.842 13.933C140.83 13.953 140.814 13.9693 140.794 13.982C140.775 13.994 140.753 14 140.73 14H140.27ZM140.284 13.888H140.727C140.734 13.888 140.739 13.8857 140.744 13.881C140.749 13.8763 140.752 13.8707 140.752 13.864V13.501L140.284 13.888ZM140.248 13.777L140.715 13.39H140.273C140.266 13.39 140.26 13.3927 140.255 13.398C140.25 13.4027 140.248 13.4083 140.248 13.415V13.777Z" fill="#FFD500"/>
<path d="M139.27 19C139.246 19 139.224 18.994 139.204 18.982C139.185 18.9693 139.169 18.953 139.157 18.933C139.146 18.9123 139.14 18.8903 139.14 18.867V18.412C139.14 18.388 139.146 18.366 139.157 18.346C139.169 18.326 139.185 18.31 139.204 18.298C139.224 18.286 139.246 18.28 139.27 18.28H139.73C139.753 18.28 139.775 18.286 139.794 18.298C139.814 18.31 139.83 18.326 139.842 18.346C139.854 18.366 139.86 18.388 139.86 18.412V18.867C139.86 18.8903 139.854 18.9123 139.842 18.933C139.83 18.953 139.814 18.9693 139.794 18.982C139.775 18.994 139.753 19 139.73 19H139.27ZM139.284 18.888H139.727C139.734 18.888 139.739 18.8857 139.744 18.881C139.749 18.8763 139.752 18.8707 139.752 18.864V18.501L139.284 18.888ZM139.248 18.777L139.715 18.39H139.273C139.266 18.39 139.26 18.3927 139.255 18.398C139.25 18.4027 139.248 18.4083 139.248 18.415V18.777Z" fill="#FFD500"/>
<path d="M138.655 11C138.619 11 138.586 10.991 138.556 10.973C138.527 10.954 138.504 10.9295 138.486 10.8995C138.469 10.8685 138.46 10.8355 138.46 10.8005V10.118C138.46 10.082 138.469 10.049 138.486 10.019C138.504 9.989 138.527 9.965 138.556 9.947C138.586 9.929 138.619 9.92 138.655 9.92H139.345C139.38 9.92 139.412 9.929 139.441 9.947C139.471 9.965 139.495 9.989 139.513 10.019C139.531 10.049 139.54 10.082 139.54 10.118V10.8005C139.54 10.8355 139.531 10.8685 139.513 10.8995C139.495 10.9295 139.471 10.954 139.441 10.973C139.412 10.991 139.38 11 139.345 11H138.655ZM138.676 10.832H139.341C139.351 10.832 139.359 10.8285 139.366 10.8215C139.374 10.8145 139.378 10.806 139.378 10.796V10.2515L138.676 10.832ZM138.622 10.6655L139.323 10.085H138.66C138.65 10.085 138.641 10.089 138.633 10.097C138.626 10.104 138.622 10.1125 138.622 10.1225V10.6655Z" fill="#FFD500"/>
<path d="M131.27 16C131.246 16 131.224 15.994 131.204 15.982C131.185 15.9693 131.169 15.953 131.157 15.933C131.146 15.9123 131.14 15.8903 131.14 15.867V15.412C131.14 15.388 131.146 15.366 131.157 15.346C131.169 15.326 131.185 15.31 131.204 15.298C131.224 15.286 131.246 15.28 131.27 15.28H131.73C131.753 15.28 131.775 15.286 131.794 15.298C131.814 15.31 131.83 15.326 131.842 15.346C131.854 15.366 131.86 15.388 131.86 15.412V15.867C131.86 15.8903 131.854 15.9123 131.842 15.933C131.83 15.953 131.814 15.9693 131.794 15.982C131.775 15.994 131.753 16 131.73 16H131.27ZM131.284 15.888H131.727C131.734 15.888 131.739 15.8857 131.744 15.881C131.749 15.8763 131.752 15.8707 131.752 15.864V15.501L131.284 15.888ZM131.248 15.777L131.715 15.39H131.273C131.266 15.39 131.26 15.3927 131.255 15.398C131.25 15.4027 131.248 15.4083 131.248 15.415V15.777Z" fill="#FFD500"/>
<path d="M132.27 15C132.246 15 132.224 14.994 132.204 14.982C132.185 14.9693 132.169 14.953 132.157 14.933C132.146 14.9123 132.14 14.8903 132.14 14.867V14.412C132.14 14.388 132.146 14.366 132.157 14.346C132.169 14.326 132.185 14.31 132.204 14.298C132.224 14.286 132.246 14.28 132.27 14.28H132.73C132.753 14.28 132.775 14.286 132.794 14.298C132.814 14.31 132.83 14.326 132.842 14.346C132.854 14.366 132.86 14.388 132.86 14.412V14.867C132.86 14.8903 132.854 14.9123 132.842 14.933C132.83 14.953 132.814 14.9693 132.794 14.982C132.775 14.994 132.753 15 132.73 15H132.27ZM132.284 14.888H132.727C132.734 14.888 132.739 14.8857 132.744 14.881C132.749 14.8763 132.752 14.8707 132.752 14.864V14.501L132.284 14.888ZM132.248 14.777L132.715 14.39H132.273C132.266 14.39 132.26 14.3927 132.255 14.398C132.25 14.4027 132.248 14.4083 132.248 14.415V14.777Z" fill="#FFD500"/>
<path d="M140.27 17C140.246 17 140.224 16.994 140.204 16.982C140.185 16.9693 140.169 16.953 140.157 16.933C140.146 16.9123 140.14 16.8903 140.14 16.867V16.412C140.14 16.388 140.146 16.366 140.157 16.346C140.169 16.326 140.185 16.31 140.204 16.298C140.224 16.286 140.246 16.28 140.27 16.28H140.73C140.753 16.28 140.775 16.286 140.794 16.298C140.814 16.31 140.83 16.326 140.842 16.346C140.854 16.366 140.86 16.388 140.86 16.412V16.867C140.86 16.8903 140.854 16.9123 140.842 16.933C140.83 16.953 140.814 16.9693 140.794 16.982C140.775 16.994 140.753 17 140.73 17H140.27ZM140.284 16.888H140.727C140.734 16.888 140.739 16.8857 140.744 16.881C140.749 16.8763 140.752 16.8707 140.752 16.864V16.501L140.284 16.888ZM140.248 16.777L140.715 16.39H140.273C140.266 16.39 140.26 16.3927 140.255 16.398C140.25 16.4027 140.248 16.4083 140.248 16.415V16.777Z" fill="#FFD500"/>
<path d="M140.27 23C140.246 23 140.224 22.994 140.204 22.982C140.185 22.9693 140.169 22.953 140.157 22.933C140.146 22.9123 140.14 22.8903 140.14 22.867V22.412C140.14 22.388 140.146 22.366 140.157 22.346C140.169 22.326 140.185 22.31 140.204 22.298C140.224 22.286 140.246 22.28 140.27 22.28H140.73C140.753 22.28 140.775 22.286 140.794 22.298C140.814 22.31 140.83 22.326 140.842 22.346C140.854 22.366 140.86 22.388 140.86 22.412V22.867C140.86 22.8903 140.854 22.9123 140.842 22.933C140.83 22.953 140.814 22.9693 140.794 22.982C140.775 22.994 140.753 23 140.73 23H140.27ZM140.284 22.888H140.727C140.734 22.888 140.739 22.8857 140.744 22.881C140.749 22.8763 140.752 22.8707 140.752 22.864V22.501L140.284 22.888ZM140.248 22.777L140.715 22.39H140.273C140.266 22.39 140.26 22.3927 140.255 22.398C140.25 22.4027 140.248 22.4083 140.248 22.415V22.777Z" fill="#FFD500"/>
<path d="M139.925 22C139.865 22 139.81 21.985 139.76 21.955C139.712 21.9233 139.673 21.8825 139.643 21.8325C139.614 21.7808 139.6 21.7258 139.6 21.6675V20.53C139.6 20.47 139.614 20.415 139.643 20.365C139.673 20.315 139.712 20.275 139.76 20.245C139.81 20.215 139.865 20.2 139.925 20.2H141.075C141.133 20.2 141.187 20.215 141.235 20.245C141.285 20.275 141.325 20.315 141.355 20.365C141.385 20.415 141.4 20.47 141.4 20.53V21.6675C141.4 21.7258 141.385 21.7808 141.355 21.8325C141.325 21.8825 141.285 21.9233 141.235 21.955C141.187 21.985 141.133 22 141.075 22H139.925ZM139.96 21.72H141.068C141.084 21.72 141.098 21.7142 141.11 21.7025C141.123 21.6908 141.13 21.6767 141.13 21.66V20.7525L139.96 21.72ZM139.87 21.4425L141.038 20.475H139.933C139.916 20.475 139.901 20.4817 139.888 20.495C139.876 20.5067 139.87 20.5208 139.87 20.5375V21.4425Z" fill="#FFD500"/>
<path d="M138.655 25C138.619 25 138.586 24.991 138.556 24.973C138.527 24.954 138.504 24.9295 138.486 24.8995C138.469 24.8685 138.46 24.8355 138.46 24.8005V24.118C138.46 24.082 138.469 24.049 138.486 24.019C138.504 23.989 138.527 23.965 138.556 23.947C138.586 23.929 138.619 23.92 138.655 23.92H139.345C139.38 23.92 139.412 23.929 139.441 23.947C139.471 23.965 139.495 23.989 139.513 24.019C139.531 24.049 139.54 24.082 139.54 24.118V24.8005C139.54 24.8355 139.531 24.8685 139.513 24.8995C139.495 24.9295 139.471 24.954 139.441 24.973C139.412 24.991 139.38 25 139.345 25H138.655ZM138.676 24.832H139.341C139.351 24.832 139.359 24.8285 139.366 24.8215C139.374 24.8145 139.378 24.806 139.378 24.796V24.2515L138.676 24.832ZM138.622 24.6655L139.323 24.085H138.66C138.65 24.085 138.641 24.089 138.633 24.097C138.626 24.104 138.622 24.1125 138.622 24.1225V24.6655Z" fill="#FFD500"/>
<path d="M141.27 27C141.246 27 141.224 26.994 141.204 26.982C141.185 26.9693 141.169 26.953 141.157 26.933C141.146 26.9123 141.14 26.8903 141.14 26.867V26.412C141.14 26.388 141.146 26.366 141.157 26.346C141.169 26.326 141.185 26.31 141.204 26.298C141.224 26.286 141.246 26.28 141.27 26.28H141.73C141.753 26.28 141.775 26.286 141.794 26.298C141.814 26.31 141.83 26.326 141.842 26.346C141.854 26.366 141.86 26.388 141.86 26.412V26.867C141.86 26.8903 141.854 26.9123 141.842 26.933C141.83 26.953 141.814 26.9693 141.794 26.982C141.775 26.994 141.753 27 141.73 27H141.27ZM141.284 26.888H141.727C141.734 26.888 141.739 26.8857 141.744 26.881C141.749 26.8763 141.752 26.8707 141.752 26.864V26.501L141.284 26.888ZM141.248 26.777L141.715 26.39H141.273C141.266 26.39 141.26 26.3927 141.255 26.398C141.25 26.4027 141.248 26.4083 141.248 26.415V26.777Z" fill="#FFD500"/>
<path d="M139.54 31C139.492 31 139.448 30.988 139.408 30.964C139.369 30.9387 139.338 30.906 139.314 30.866C139.291 30.8247 139.28 30.7807 139.28 30.734V29.824C139.28 29.776 139.291 29.732 139.314 29.692C139.338 29.652 139.369 29.62 139.408 29.596C139.448 29.572 139.492 29.56 139.54 29.56H140.46C140.507 29.56 140.549 29.572 140.588 29.596C140.628 29.62 140.66 29.652 140.684 29.692C140.708 29.732 140.72 29.776 140.72 29.824V30.734C140.72 30.7807 140.708 30.8247 140.684 30.866C140.66 30.906 140.628 30.9387 140.588 30.964C140.549 30.988 140.507 31 140.46 31H139.54ZM139.568 30.776H140.454C140.467 30.776 140.479 30.7713 140.488 30.762C140.499 30.7527 140.504 30.7413 140.504 30.728V30.002L139.568 30.776ZM139.496 30.554L140.43 29.78H139.546C139.533 29.78 139.521 29.7853 139.51 29.796C139.501 29.8053 139.496 29.8167 139.496 29.83V30.554Z" fill="#FFD500"/>
<path d="M134.561 13V11.846L134.395 12.046H134.111L134.519 11.56H134.777V13H134.561Z" fill="#FFD500"/>
<path d="M137.092 12V10.269L136.843 10.569H136.417L137.029 9.84H137.416V12H137.092Z" fill="#FFD500"/>
<path d="M137.531 14V13.423L137.448 13.523H137.306L137.51 13.28H137.639V14H137.531Z" fill="#FFD500"/>
<path d="M136.531 14V13.423L136.448 13.523H136.306L136.51 13.28H136.639V14H136.531Z" fill="#FFD500"/>
<path d="M136.531 12V11.423L136.448 11.523H136.306L136.51 11.28H136.639V12H136.531Z" fill="#FFD500"/>
<path d="M141.153 12V9.115L140.738 9.615H140.028L141.048 8.4H141.693V12H141.153Z" fill="#FFD500"/>
<path d="M139.531 9V8.423L139.448 8.523H139.306L139.51 8.28H139.639V9H139.531Z" fill="#FFD500"/>
<path d="M139.153 17V14.115L138.738 14.615H138.028L139.048 13.4H139.693V17H139.153Z" fill="#FFD500"/>
<path d="M139.123 23V20.692L138.791 21.092H138.223L139.039 20.12H139.555V23H139.123Z" fill="#FFD500"/>
<path d="M141.123 17V14.692L140.791 15.092H140.223L141.039 14.12H141.555V17H141.123Z" fill="#FFD500"/>
<path d="M140.577 20V18.5575L140.369 18.8075H140.014L140.524 18.2H140.847V20H140.577Z" fill="#FFD500"/>
<path d="M141.561 14V12.846L141.395 13.046H141.111L141.519 12.56H141.777V14H141.561Z" fill="#FFD500"/>
<path d="M141.561 19V17.846L141.395 18.046H141.111L141.519 17.56H141.777V19H141.561Z" fill="#FFD500"/>
<path d="M140.577 25V23.5575L140.369 23.8075H140.014L140.524 23.2H140.847V25H140.577Z" fill="#FFD500"/>
<path d="M141.531 24V23.423L141.448 23.523H141.306L141.51 23.28H141.639V24H141.531Z" fill="#FFD500"/>
<path d="M140.531 26V25.423L140.448 25.523H140.306L140.51 25.28H140.639V26H140.531Z" fill="#FFD500"/>
<path d="M141.153 31V28.115L140.738 28.615H140.028L141.048 27.4H141.693V31H141.153Z" fill="#FFD500"/>
<path d="M139.561 27V25.846L139.395 26.046H139.111L139.519 25.56H139.777V27H139.561Z" fill="#FFD500"/>
<path d="M147.123 17V14.692L146.791 15.092H146.223L147.039 14.12H147.555V17H147.123Z" fill="#FFD500"/>
<path d="M168.123 17V14.692L167.791 15.092H167.223L168.039 14.12H168.555V17H168.123Z" fill="#FFD500"/>
<path d="M147.577 20V18.5575L147.369 18.8075H147.014L147.524 18.2H147.847V20H147.577Z" fill="#FFD500"/>
<path d="M147.577 26V24.5575L147.369 24.8075H147.014L147.524 24.2H147.847V26H147.577Z" fill="#FFD500"/>
<path d="M167.577 20V18.5575L167.369 18.8075H167.014L167.524 18.2H167.847V20H167.577Z" fill="#FFD500"/>
<path d="M148.561 13V11.846L148.395 12.046H148.111L148.519 11.56H148.777V13H148.561Z" fill="#FFD500"/>
<path d="M168.561 14V12.846L168.395 13.046H168.111L168.519 12.56H168.777V14H168.561Z" fill="#FFD500"/>
<path d="M148.561 18V16.846L148.395 17.046H148.111L148.519 16.56H148.777V18H148.561Z" fill="#FFD500"/>
<path d="M147.561 23V21.846L147.395 22.046H147.111L147.519 21.56H147.777V23H147.561Z" fill="#FFD500"/>
<path d="M168.561 19V17.846L168.395 18.046H168.111L168.519 17.56H168.777V19H168.561Z" fill="#FFD500"/>
<path d="M168.577 25V23.5575L168.369 23.8075H168.014L168.524 23.2H168.847V25H168.577Z" fill="#FFD500"/>
<path d="M148.531 24V23.423L148.448 23.523H148.306L148.51 23.28H148.639V24H148.531Z" fill="#FFD500"/>
<path d="M149.531 30V29.423L149.448 29.523H149.306L149.51 29.28H149.639V30H149.531Z" fill="#FFD500"/>
<path d="M168.531 26V25.423L168.448 25.523H168.306L168.51 25.28H168.639V26H168.531Z" fill="#FFD500"/>
<path d="M167.531 26V25.423L167.448 25.523H167.306L167.51 25.28H167.639V26H167.531Z" fill="#FFD500"/>
<path d="M148.107 29V26.9805L147.817 27.3305H147.32L148.034 26.48H148.485V29H148.107Z" fill="#FFD500"/>
<path d="M166.561 27V25.846L166.395 26.046H166.111L166.519 25.56H166.777V27H166.561Z" fill="#FFD500"/>
<path d="M152.531 10V9.423L152.448 9.523H152.306L152.51 9.28H152.639V10H152.531Z" fill="#FFD500"/>
<path d="M151.531 29V28.423L151.448 28.523H151.306L151.51 28.28H151.639V29H151.531Z" fill="#FFD500"/>
<path d="M163.531 29V28.423L163.448 28.523H163.306L163.51 28.28H163.639V29H163.531Z" fill="#FFD500"/>
<path d="M155.531 9V8.423L155.448 8.523H155.306L155.51 8.28H155.639V9H155.531Z" fill="#FFD500"/>
<path d="M154.531 28V27.423L154.448 27.523H154.306L154.51 27.28H154.639V28H154.531Z" fill="#FFD500"/>
<path d="M158.531 28V27.423L158.448 27.523H158.306L158.51 27.28H158.639V28H158.531Z" fill="#FFD500"/>
<path d="M161.531 9V8.423L161.448 8.523H161.306L161.51 8.28H161.639V9H161.531Z" fill="#FFD500"/>
<path d="M168.531 11V10.423L168.448 10.523H168.306L168.51 10.28H168.639V11H168.531Z" fill="#FFD500"/>
<path d="M157.153 12V9.115L156.738 9.615H156.028L157.048 8.4H157.693V12H157.153Z" fill="#FFD500"/>
<path d="M167.107 24V21.9805L166.817 22.3305H166.32L167.034 21.48H167.485V24H167.107Z" fill="#FFD500"/>
<path d="M163.092 11V9.269L162.843 9.569H162.417L163.029 8.84H163.416V11H163.092Z" fill="#FFD500"/>
<path d="M153.531 24V23.423L153.448 23.523H153.306L153.51 23.28H153.639V24H153.531Z" fill="#FFD500"/>
<path d="M157.531 20V19.423L157.448 19.523H157.306L157.51 19.28H157.639V20H157.531Z" fill="#FFD500"/>
<path d="M161.531 17V16.423L161.448 16.523H161.306L161.51 16.28H161.639V17H161.531Z" fill="#FFD500"/>
<path d="M165.531 14V13.423L165.448 13.523H165.306L165.51 13.28H165.639V14H165.531Z" fill="#FFD500"/>
<path d="M157.531 22V21.423L157.448 21.523H157.306L157.51 21.28H157.639V22H157.531Z" fill="#FFD500"/>
<path d="M161.531 19V18.423L161.448 18.523H161.306L161.51 18.28H161.639V19H161.531Z" fill="#FFD500"/>
<path d="M165.531 16V15.423L165.448 15.523H165.306L165.51 15.28H165.639V16H165.531Z" fill="#FFD500"/>
<path d="M147.092 13V11.269L146.843 11.569H146.417L147.029 10.84H147.416V13H147.092Z" fill="#FFD500"/>
<path d="M153.092 12V10.269L152.843 10.569H152.417L153.029 9.84H153.416V12H153.092Z" fill="#FFD500"/>
<path d="M152.092 31V29.269L151.843 29.569H151.417L152.029 28.84H152.416V31H152.092Z" fill="#FFD500"/>
<path d="M160.561 31V29.846L160.395 30.046H160.111L160.519 29.56H160.777V31H160.561Z" fill="#FFD500"/>
<path d="M159.092 12V10.269L158.843 10.569H158.417L159.029 9.84H159.416V12H159.092Z" fill="#FFD500"/>
<path d="M158.092 31V29.269L157.843 29.569H157.417L158.029 28.84H158.416V31H158.092Z" fill="#FFD500"/>
<path d="M165.092 12V10.269L164.843 10.569H164.417L165.029 9.84H165.416V12H165.092Z" fill="#FFD500"/>
<path d="M151.561 25V23.846L151.395 24.046H151.111L151.519 23.56H151.777V25H151.561Z" fill="#FFD500"/>
<path d="M155.561 21V19.846L155.395 20.046H155.111L155.519 19.56H155.777V21H155.561Z" fill="#FFD500"/>
<path d="M156.561 23V21.846L156.395 22.046H156.111L156.519 21.56H156.777V23H156.561Z" fill="#FFD500"/>
<path d="M159.561 18V16.846L159.395 17.046H159.111L159.519 16.56H159.777V18H159.561Z" fill="#FFD500"/>
<path d="M163.561 15V13.846L163.395 14.046H163.111L163.519 13.56H163.777V15H163.561Z" fill="#FFD500"/>
<path d="M149.27 27C149.246 27 149.224 26.994 149.204 26.982C149.185 26.9693 149.169 26.953 149.157 26.933C149.146 26.9123 149.14 26.8903 149.14 26.867V26.412C149.14 26.388 149.146 26.366 149.157 26.346C149.169 26.326 149.185 26.31 149.204 26.298C149.224 26.286 149.246 26.28 149.27 26.28H149.73C149.753 26.28 149.775 26.286 149.794 26.298C149.814 26.31 149.83 26.326 149.842 26.346C149.854 26.366 149.86 26.388 149.86 26.412V26.867C149.86 26.8903 149.854 26.9123 149.842 26.933C149.83 26.953 149.814 26.9693 149.794 26.982C149.775 26.994 149.753 27 149.73 27H149.27ZM149.284 26.888H149.727C149.734 26.888 149.739 26.8857 149.744 26.881C149.749 26.8763 149.752 26.8707 149.752 26.864V26.501L149.284 26.888ZM149.248 26.777L149.715 26.39H149.273C149.266 26.39 149.26 26.3927 149.255 26.398C149.25 26.4027 149.248 26.4083 149.248 26.415V26.777Z" fill="#FFD500"/>
<path d="M153.27 23C153.246 23 153.224 22.994 153.204 22.982C153.185 22.9693 153.169 22.953 153.157 22.933C153.146 22.9123 153.14 22.8903 153.14 22.867V22.412C153.14 22.388 153.146 22.366 153.157 22.346C153.169 22.326 153.185 22.31 153.204 22.298C153.224 22.286 153.246 22.28 153.27 22.28H153.73C153.753 22.28 153.775 22.286 153.794 22.298C153.814 22.31 153.83 22.326 153.842 22.346C153.854 22.366 153.86 22.388 153.86 22.412V22.867C153.86 22.8903 153.854 22.9123 153.842 22.933C153.83 22.953 153.814 22.9693 153.794 22.982C153.775 22.994 153.753 23 153.73 23H153.27ZM153.284 22.888H153.727C153.734 22.888 153.739 22.8857 153.744 22.881C153.749 22.8763 153.752 22.8707 153.752 22.864V22.501L153.284 22.888ZM153.248 22.777L153.715 22.39H153.273C153.266 22.39 153.26 22.3927 153.255 22.398C153.25 22.4027 153.248 22.4083 153.248 22.415V22.777Z" fill="#FFD500"/>
<path d="M158.27 19C158.246 19 158.224 18.994 158.204 18.982C158.185 18.9693 158.169 18.953 158.157 18.933C158.146 18.9123 158.14 18.8903 158.14 18.867V18.412C158.14 18.388 158.146 18.366 158.157 18.346C158.169 18.326 158.185 18.31 158.204 18.298C158.224 18.286 158.246 18.28 158.27 18.28H158.73C158.753 18.28 158.775 18.286 158.794 18.298C158.814 18.31 158.83 18.326 158.842 18.346C158.854 18.366 158.86 18.388 158.86 18.412V18.867C158.86 18.8903 158.854 18.9123 158.842 18.933C158.83 18.953 158.814 18.9693 158.794 18.982C158.775 18.994 158.753 19 158.73 19H158.27ZM158.284 18.888H158.727C158.734 18.888 158.739 18.8857 158.744 18.881C158.749 18.8763 158.752 18.8707 158.752 18.864V18.501L158.284 18.888ZM158.248 18.777L158.715 18.39H158.273C158.266 18.39 158.26 18.3927 158.255 18.398C158.25 18.4027 158.248 18.4083 158.248 18.415V18.777Z" fill="#FFD500"/>
<path d="M162.27 16C162.246 16 162.224 15.994 162.204 15.982C162.185 15.9693 162.169 15.953 162.157 15.933C162.146 15.9123 162.14 15.8903 162.14 15.867V15.412C162.14 15.388 162.146 15.366 162.157 15.346C162.169 15.326 162.185 15.31 162.204 15.298C162.224 15.286 162.246 15.28 162.27 15.28H162.73C162.753 15.28 162.775 15.286 162.794 15.298C162.814 15.31 162.83 15.326 162.842 15.346C162.854 15.366 162.86 15.388 162.86 15.412V15.867C162.86 15.8903 162.854 15.9123 162.842 15.933C162.83 15.953 162.814 15.9693 162.794 15.982C162.775 15.994 162.753 16 162.73 16H162.27ZM162.284 15.888H162.727C162.734 15.888 162.739 15.8857 162.744 15.881C162.749 15.8763 162.752 15.8707 162.752 15.864V15.501L162.284 15.888ZM162.248 15.777L162.715 15.39H162.273C162.266 15.39 162.26 15.3927 162.255 15.398C162.25 15.4027 162.248 15.4083 162.248 15.415V15.777Z" fill="#FFD500"/>
<path d="M152.27 24C152.246 24 152.224 23.994 152.204 23.982C152.185 23.9693 152.169 23.953 152.157 23.933C152.146 23.9123 152.14 23.8903 152.14 23.867V23.412C152.14 23.388 152.146 23.366 152.157 23.346C152.169 23.326 152.185 23.31 152.204 23.298C152.224 23.286 152.246 23.28 152.27 23.28H152.73C152.753 23.28 152.775 23.286 152.794 23.298C152.814 23.31 152.83 23.326 152.842 23.346C152.854 23.366 152.86 23.388 152.86 23.412V23.867C152.86 23.8903 152.854 23.9123 152.842 23.933C152.83 23.953 152.814 23.9693 152.794 23.982C152.775 23.994 152.753 24 152.73 24H152.27ZM152.284 23.888H152.727C152.734 23.888 152.739 23.8857 152.744 23.881C152.749 23.8763 152.752 23.8707 152.752 23.864V23.501L152.284 23.888ZM152.248 23.777L152.715 23.39H152.273C152.266 23.39 152.26 23.3927 152.255 23.398C152.25 23.4027 152.248 23.4083 152.248 23.415V23.777Z" fill="#FFD500"/>
<path d="M160.27 20C160.246 20 160.224 19.994 160.204 19.982C160.185 19.9693 160.169 19.953 160.157 19.933C160.146 19.9123 160.14 19.8903 160.14 19.867V19.412C160.14 19.388 160.146 19.366 160.157 19.346C160.169 19.326 160.185 19.31 160.204 19.298C160.224 19.286 160.246 19.28 160.27 19.28H160.73C160.753 19.28 160.775 19.286 160.794 19.298C160.814 19.31 160.83 19.326 160.842 19.346C160.854 19.366 160.86 19.388 160.86 19.412V19.867C160.86 19.8903 160.854 19.9123 160.842 19.933C160.83 19.953 160.814 19.9693 160.794 19.982C160.775 19.994 160.753 20 160.73 20H160.27ZM160.284 19.888H160.727C160.734 19.888 160.739 19.8857 160.744 19.881C160.749 19.8763 160.752 19.8707 160.752 19.864V19.501L160.284 19.888ZM160.248 19.777L160.715 19.39H160.273C160.266 19.39 160.26 19.3927 160.255 19.398C160.25 19.4027 160.248 19.4083 160.248 19.415V19.777Z" fill="#FFD500"/>
<path d="M160.27 18C160.246 18 160.224 17.994 160.204 17.982C160.185 17.9693 160.169 17.953 160.157 17.933C160.146 17.9123 160.14 17.8903 160.14 17.867V17.412C160.14 17.388 160.146 17.366 160.157 17.346C160.169 17.326 160.185 17.31 160.204 17.298C160.224 17.286 160.246 17.28 160.27 17.28H160.73C160.753 17.28 160.775 17.286 160.794 17.298C160.814 17.31 160.83 17.326 160.842 17.346C160.854 17.366 160.86 17.388 160.86 17.412V17.867C160.86 17.8903 160.854 17.9123 160.842 17.933C160.83 17.953 160.814 17.9693 160.794 17.982C160.775 17.994 160.753 18 160.73 18H160.27ZM160.284 17.888H160.727C160.734 17.888 160.739 17.8857 160.744 17.881C160.749 17.8763 160.752 17.8707 160.752 17.864V17.501L160.284 17.888ZM160.248 17.777L160.715 17.39H160.273C160.266 17.39 160.26 17.3927 160.255 17.398C160.25 17.4027 160.248 17.4083 160.248 17.415V17.777Z" fill="#FFD500"/>
<path d="M148.655 11C148.619 11 148.586 10.991 148.556 10.973C148.527 10.954 148.504 10.9295 148.486 10.8995C148.469 10.8685 148.46 10.8355 148.46 10.8005V10.118C148.46 10.082 148.469 10.049 148.486 10.019C148.504 9.989 148.527 9.965 148.556 9.947C148.586 9.929 148.619 9.92 148.655 9.92H149.345C149.38 9.92 149.412 9.929 149.441 9.947C149.471 9.965 149.495 9.989 149.513 10.019C149.531 10.049 149.54 10.082 149.54 10.118V10.8005C149.54 10.8355 149.531 10.8685 149.513 10.8995C149.495 10.9295 149.471 10.954 149.441 10.973C149.412 10.991 149.38 11 149.345 11H148.655ZM148.676 10.832H149.341C149.351 10.832 149.359 10.8285 149.366 10.8215C149.374 10.8145 149.378 10.806 149.378 10.796V10.2515L148.676 10.832ZM148.622 10.6655L149.323 10.085H148.66C148.65 10.085 148.641 10.089 148.633 10.097C148.626 10.104 148.622 10.1125 148.622 10.1225V10.6655Z" fill="#FFD500"/>
<path d="M150.655 10C150.619 10 150.586 9.991 150.556 9.973C150.527 9.954 150.504 9.9295 150.486 9.8995C150.469 9.8685 150.46 9.8355 150.46 9.8005V9.118C150.46 9.082 150.469 9.049 150.486 9.019C150.504 8.989 150.527 8.965 150.556 8.947C150.586 8.929 150.619 8.92 150.655 8.92H151.345C151.38 8.92 151.412 8.929 151.441 8.947C151.471 8.965 151.495 8.989 151.513 9.019C151.531 9.049 151.54 9.082 151.54 9.118V9.8005C151.54 9.8355 151.531 9.8685 151.513 9.8995C151.495 9.9295 151.471 9.954 151.441 9.973C151.412 9.991 151.38 10 151.345 10H150.655ZM150.676 9.832H151.341C151.351 9.832 151.359 9.8285 151.366 9.8215C151.374 9.8145 151.378 9.806 151.378 9.796V9.2515L150.676 9.832ZM150.622 9.6655L151.323 9.085H150.66C150.65 9.085 150.641 9.089 150.633 9.097C150.626 9.104 150.622 9.1125 150.622 9.1225V9.6655Z" fill="#FFD500"/>
<path d="M149.655 29C149.619 29 149.586 28.991 149.556 28.973C149.527 28.954 149.504 28.9295 149.486 28.8995C149.469 28.8685 149.46 28.8355 149.46 28.8005V28.118C149.46 28.082 149.469 28.049 149.486 28.019C149.504 27.989 149.527 27.965 149.556 27.947C149.586 27.929 149.619 27.92 149.655 27.92H150.345C150.38 27.92 150.412 27.929 150.441 27.947C150.471 27.965 150.495 27.989 150.513 28.019C150.531 28.049 150.54 28.082 150.54 28.118V28.8005C150.54 28.8355 150.531 28.8685 150.513 28.8995C150.495 28.9295 150.471 28.954 150.441 28.973C150.412 28.991 150.38 29 150.345 29H149.655ZM149.676 28.832H150.341C150.351 28.832 150.359 28.8285 150.366 28.8215C150.374 28.8145 150.378 28.806 150.378 28.796V28.2515L149.676 28.832ZM149.622 28.6655L150.323 28.085H149.66C149.65 28.085 149.641 28.089 149.633 28.097C149.626 28.104 149.622 28.1125 149.622 28.1225V28.6655Z" fill="#FFD500"/>
<path d="M154.655 11C154.619 11 154.586 10.991 154.556 10.973C154.527 10.954 154.504 10.9295 154.486 10.8995C154.469 10.8685 154.46 10.8355 154.46 10.8005V10.118C154.46 10.082 154.469 10.049 154.486 10.019C154.504 9.989 154.527 9.965 154.556 9.947C154.586 9.929 154.619 9.92 154.655 9.92H155.345C155.38 9.92 155.412 9.929 155.441 9.947C155.471 9.965 155.495 9.989 155.513 10.019C155.531 10.049 155.54 10.082 155.54 10.118V10.8005C155.54 10.8355 155.531 10.8685 155.513 10.8995C155.495 10.9295 155.471 10.954 155.441 10.973C155.412 10.991 155.38 11 155.345 11H154.655ZM154.676 10.832H155.341C155.351 10.832 155.359 10.8285 155.366 10.8215C155.374 10.8145 155.378 10.806 155.378 10.796V10.2515L154.676 10.832ZM154.622 10.6655L155.323 10.085H154.66C154.65 10.085 154.641 10.089 154.633 10.097C154.626 10.104 154.622 10.1125 154.622 10.1225V10.6655Z" fill="#FFD500"/>
<path d="M153.655 30C153.619 30 153.586 29.991 153.556 29.973C153.527 29.954 153.504 29.9295 153.486 29.8995C153.469 29.8685 153.46 29.8355 153.46 29.8005V29.118C153.46 29.082 153.469 29.049 153.486 29.019C153.504 28.989 153.527 28.965 153.556 28.947C153.586 28.929 153.619 28.92 153.655 28.92H154.345C154.38 28.92 154.412 28.929 154.441 28.947C154.471 28.965 154.495 28.989 154.513 29.019C154.531 29.049 154.54 29.082 154.54 29.118V29.8005C154.54 29.8355 154.531 29.8685 154.513 29.8995C154.495 29.9295 154.471 29.954 154.441 29.973C154.412 29.991 154.38 30 154.345 30H153.655ZM153.676 29.832H154.341C154.351 29.832 154.359 29.8285 154.366 29.8215C154.374 29.8145 154.378 29.806 154.378 29.796V29.2515L153.676 29.832ZM153.622 29.6655L154.323 29.085H153.66C153.65 29.085 153.641 29.089 153.633 29.097C153.626 29.104 153.622 29.1125 153.622 29.1225V29.6655Z" fill="#FFD500"/>
<path d="M168.655 22C168.619 22 168.586 21.991 168.556 21.973C168.527 21.954 168.504 21.9295 168.486 21.8995C168.469 21.8685 168.46 21.8355 168.46 21.8005V21.118C168.46 21.082 168.469 21.049 168.486 21.019C168.504 20.989 168.527 20.965 168.556 20.947C168.586 20.929 168.619 20.92 168.655 20.92H169.345C169.38 20.92 169.412 20.929 169.441 20.947C169.471 20.965 169.495 20.989 169.513 21.019C169.531 21.049 169.54 21.082 169.54 21.118V21.8005C169.54 21.8355 169.531 21.8685 169.513 21.8995C169.495 21.9295 169.471 21.954 169.441 21.973C169.412 21.991 169.38 22 169.345 22H168.655ZM168.676 21.832H169.341C169.351 21.832 169.359 21.8285 169.366 21.8215C169.374 21.8145 169.378 21.806 169.378 21.796V21.2515L168.676 21.832ZM168.622 21.6655L169.323 21.085H168.66C168.65 21.085 168.641 21.089 168.633 21.097C168.626 21.104 168.622 21.1125 168.622 21.1225V21.6655Z" fill="#FFD500"/>
<path d="M154.655 13C154.619 13 154.586 12.991 154.556 12.973C154.527 12.954 154.504 12.9295 154.486 12.8995C154.469 12.8685 154.46 12.8355 154.46 12.8005V12.118C154.46 12.082 154.469 12.049 154.486 12.019C154.504 11.989 154.527 11.965 154.556 11.947C154.586 11.929 154.619 11.92 154.655 11.92H155.345C155.38 11.92 155.412 11.929 155.441 11.947C155.471 11.965 155.495 11.989 155.513 12.019C155.531 12.049 155.54 12.082 155.54 12.118V12.8005C155.54 12.8355 155.531 12.8685 155.513 12.8995C155.495 12.9295 155.471 12.954 155.441 12.973C155.412 12.991 155.38 13 155.345 13H154.655ZM154.676 12.832H155.341C155.351 12.832 155.359 12.8285 155.366 12.8215C155.374 12.8145 155.378 12.806 155.378 12.796V12.2515L154.676 12.832ZM154.622 12.6655L155.323 12.085H154.66C154.65 12.085 154.641 12.089 154.633 12.097C154.626 12.104 154.622 12.1125 154.622 12.1225V12.6655Z" fill="#FFD500"/>
<path d="M155.655 29C155.619 29 155.586 28.991 155.556 28.973C155.527 28.954 155.504 28.9295 155.486 28.8995C155.469 28.8685 155.46 28.8355 155.46 28.8005V28.118C155.46 28.082 155.469 28.049 155.486 28.019C155.504 27.989 155.527 27.965 155.556 27.947C155.586 27.929 155.619 27.92 155.655 27.92H156.345C156.38 27.92 156.412 27.929 156.441 27.947C156.471 27.965 156.495 27.989 156.513 28.019C156.531 28.049 156.54 28.082 156.54 28.118V28.8005C156.54 28.8355 156.531 28.8685 156.513 28.8995C156.495 28.9295 156.471 28.954 156.441 28.973C156.412 28.991 156.38 29 156.345 29H155.655ZM155.676 28.832H156.341C156.351 28.832 156.359 28.8285 156.366 28.8215C156.374 28.8145 156.378 28.806 156.378 28.796V28.2515L155.676 28.832ZM155.622 28.6655L156.323 28.085H155.66C155.65 28.085 155.641 28.089 155.633 28.097C155.626 28.104 155.622 28.1125 155.622 28.1225V28.6655Z" fill="#FFD500"/>
<path d="M164.655 30C164.619 30 164.586 29.991 164.556 29.973C164.527 29.954 164.504 29.9295 164.486 29.8995C164.469 29.8685 164.46 29.8355 164.46 29.8005V29.118C164.46 29.082 164.469 29.049 164.486 29.019C164.504 28.989 164.527 28.965 164.556 28.947C164.586 28.929 164.619 28.92 164.655 28.92H165.345C165.38 28.92 165.412 28.929 165.441 28.947C165.471 28.965 165.495 28.989 165.513 29.019C165.531 29.049 165.54 29.082 165.54 29.118V29.8005C165.54 29.8355 165.531 29.8685 165.513 29.8995C165.495 29.9295 165.471 29.954 165.441 29.973C165.412 29.991 165.38 30 165.345 30H164.655ZM164.676 29.832H165.341C165.351 29.832 165.359 29.8285 165.366 29.8215C165.374 29.8145 165.378 29.806 165.378 29.796V29.2515L164.676 29.832ZM164.622 29.6655L165.323 29.085H164.66C164.65 29.085 164.641 29.089 164.633 29.097C164.626 29.104 164.622 29.1125 164.622 29.1225V29.6655Z" fill="#FFD500"/>
<path d="M167.655 30C167.619 30 167.586 29.991 167.556 29.973C167.527 29.954 167.504 29.9295 167.486 29.8995C167.469 29.8685 167.46 29.8355 167.46 29.8005V29.118C167.46 29.082 167.469 29.049 167.486 29.019C167.504 28.989 167.527 28.965 167.556 28.947C167.586 28.929 167.619 28.92 167.655 28.92H168.345C168.38 28.92 168.412 28.929 168.441 28.947C168.471 28.965 168.495 28.989 168.513 29.019C168.531 29.049 168.54 29.082 168.54 29.118V29.8005C168.54 29.8355 168.531 29.8685 168.513 29.8995C168.495 29.9295 168.471 29.954 168.441 29.973C168.412 29.991 168.38 30 168.345 30H167.655ZM167.676 29.832H168.341C168.351 29.832 168.359 29.8285 168.366 29.8215C168.374 29.8145 168.378 29.806 168.378 29.796V29.2515L167.676 29.832ZM167.622 29.6655L168.323 29.085H167.66C167.65 29.085 167.641 29.089 167.633 29.097C167.626 29.104 167.622 29.1125 167.622 29.1225V29.6655Z" fill="#FFD500"/>
<path d="M148.655 16C148.619 16 148.586 15.991 148.556 15.973C148.527 15.954 148.504 15.9295 148.486 15.8995C148.469 15.8685 148.46 15.8355 148.46 15.8005V15.118C148.46 15.082 148.469 15.049 148.486 15.019C148.504 14.989 148.527 14.965 148.556 14.947C148.586 14.929 148.619 14.92 148.655 14.92H149.345C149.38 14.92 149.412 14.929 149.441 14.947C149.471 14.965 149.495 14.989 149.513 15.019C149.531 15.049 149.54 15.082 149.54 15.118V15.8005C149.54 15.8355 149.531 15.8685 149.513 15.8995C149.495 15.9295 149.471 15.954 149.441 15.973C149.412 15.991 149.38 16 149.345 16H148.655ZM148.676 15.832H149.341C149.351 15.832 149.359 15.8285 149.366 15.8215C149.374 15.8145 149.378 15.806 149.378 15.796V15.2515L148.676 15.832ZM148.622 15.6655L149.323 15.085H148.66C148.65 15.085 148.641 15.089 148.633 15.097C148.626 15.104 148.622 15.1125 148.622 15.1225V15.6655Z" fill="#FFD500"/>
<path d="M148.655 22C148.619 22 148.586 21.991 148.556 21.973C148.527 21.954 148.504 21.9295 148.486 21.8995C148.469 21.8685 148.46 21.8355 148.46 21.8005V21.118C148.46 21.082 148.469 21.049 148.486 21.019C148.504 20.989 148.527 20.965 148.556 20.947C148.586 20.929 148.619 20.92 148.655 20.92H149.345C149.38 20.92 149.412 20.929 149.441 20.947C149.471 20.965 149.495 20.989 149.513 21.019C149.531 21.049 149.54 21.082 149.54 21.118V21.8005C149.54 21.8355 149.531 21.8685 149.513 21.8995C149.495 21.9295 149.471 21.954 149.441 21.973C149.412 21.991 149.38 22 149.345 22H148.655ZM148.676 21.832H149.341C149.351 21.832 149.359 21.8285 149.366 21.8215C149.374 21.8145 149.378 21.806 149.378 21.796V21.2515L148.676 21.832ZM148.622 21.6655L149.323 21.085H148.66C148.65 21.085 148.641 21.089 148.633 21.097C148.626 21.104 148.622 21.1125 148.622 21.1225V21.6655Z" fill="#FFD500"/>
<path d="M149.655 18C149.619 18 149.586 17.991 149.556 17.973C149.527 17.954 149.504 17.9295 149.486 17.8995C149.469 17.8685 149.46 17.8355 149.46 17.8005V17.118C149.46 17.082 149.469 17.049 149.486 17.019C149.504 16.989 149.527 16.965 149.556 16.947C149.586 16.929 149.619 16.92 149.655 16.92H150.345C150.38 16.92 150.412 16.929 150.441 16.947C150.471 16.965 150.495 16.989 150.513 17.019C150.531 17.049 150.54 17.082 150.54 17.118V17.8005C150.54 17.8355 150.531 17.8685 150.513 17.8995C150.495 17.9295 150.471 17.954 150.441 17.973C150.412 17.991 150.38 18 150.345 18H149.655ZM149.676 17.832H150.341C150.351 17.832 150.359 17.8285 150.366 17.8215C150.374 17.8145 150.378 17.806 150.378 17.796V17.2515L149.676 17.832ZM149.622 17.6655L150.323 17.085H149.66C149.65 17.085 149.641 17.089 149.633 17.097C149.626 17.104 149.622 17.1125 149.622 17.1225V17.6655Z" fill="#FFD500"/>
<path d="M149.655 24C149.619 24 149.586 23.991 149.556 23.973C149.527 23.954 149.504 23.9295 149.486 23.8995C149.469 23.8685 149.46 23.8355 149.46 23.8005V23.118C149.46 23.082 149.469 23.049 149.486 23.019C149.504 22.989 149.527 22.965 149.556 22.947C149.586 22.929 149.619 22.92 149.655 22.92H150.345C150.38 22.92 150.412 22.929 150.441 22.947C150.471 22.965 150.495 22.989 150.513 23.019C150.531 23.049 150.54 23.082 150.54 23.118V23.8005C150.54 23.8355 150.531 23.8685 150.513 23.8995C150.495 23.9295 150.471 23.954 150.441 23.973C150.412 23.991 150.38 24 150.345 24H149.655ZM149.676 23.832H150.341C150.351 23.832 150.359 23.8285 150.366 23.8215C150.374 23.8145 150.378 23.806 150.378 23.796V23.2515L149.676 23.832ZM149.622 23.6655L150.323 23.085H149.66C149.65 23.085 149.641 23.089 149.633 23.097C149.626 23.104 149.622 23.1125 149.622 23.1225V23.6655Z" fill="#FFD500"/>
<path d="M160.655 11C160.619 11 160.586 10.991 160.556 10.973C160.527 10.954 160.504 10.9295 160.486 10.8995C160.469 10.8685 160.46 10.8355 160.46 10.8005V10.118C160.46 10.082 160.469 10.049 160.486 10.019C160.504 9.989 160.527 9.965 160.556 9.947C160.586 9.929 160.619 9.92 160.655 9.92H161.345C161.38 9.92 161.412 9.929 161.441 9.947C161.471 9.965 161.495 9.989 161.513 10.019C161.531 10.049 161.54 10.082 161.54 10.118V10.8005C161.54 10.8355 161.531 10.8685 161.513 10.8995C161.495 10.9295 161.471 10.954 161.441 10.973C161.412 10.991 161.38 11 161.345 11H160.655ZM160.676 10.832H161.341C161.351 10.832 161.359 10.8285 161.366 10.8215C161.374 10.8145 161.378 10.806 161.378 10.796V10.2515L160.676 10.832ZM160.622 10.6655L161.323 10.085H160.66C160.65 10.085 160.641 10.089 160.633 10.097C160.626 10.104 160.622 10.1125 160.622 10.1225V10.6655Z" fill="#FFD500"/>
<path d="M160.27 29C160.246 29 160.224 28.994 160.204 28.982C160.185 28.9693 160.169 28.953 160.157 28.933C160.146 28.9123 160.14 28.8903 160.14 28.867V28.412C160.14 28.388 160.146 28.366 160.157 28.346C160.169 28.326 160.185 28.31 160.204 28.298C160.224 28.286 160.246 28.28 160.27 28.28H160.73C160.753 28.28 160.775 28.286 160.794 28.298C160.814 28.31 160.83 28.326 160.842 28.346C160.854 28.366 160.86 28.388 160.86 28.412V28.867C160.86 28.8903 160.854 28.9123 160.842 28.933C160.83 28.953 160.814 28.9693 160.794 28.982C160.775 28.994 160.753 29 160.73 29H160.27ZM160.284 28.888H160.727C160.734 28.888 160.739 28.8857 160.744 28.881C160.749 28.8763 160.752 28.8707 160.752 28.864V28.501L160.284 28.888ZM160.248 28.777L160.715 28.39H160.273C160.266 28.39 160.26 28.3927 160.255 28.398C160.25 28.4027 160.248 28.4083 160.248 28.415V28.777Z" fill="#FFD500"/>
<path d="M157.27 31C157.246 31 157.224 30.994 157.204 30.982C157.185 30.9693 157.169 30.953 157.157 30.933C157.146 30.9123 157.14 30.8903 157.14 30.867V30.412C157.14 30.388 157.146 30.366 157.157 30.346C157.169 30.326 157.185 30.31 157.204 30.298C157.224 30.286 157.246 30.28 157.27 30.28H157.73C157.753 30.28 157.775 30.286 157.794 30.298C157.814 30.31 157.83 30.326 157.842 30.346C157.854 30.366 157.86 30.388 157.86 30.412V30.867C157.86 30.8903 157.854 30.9123 157.842 30.933C157.83 30.953 157.814 30.9693 157.794 30.982C157.775 30.994 157.753 31 157.73 31H157.27ZM157.284 30.888H157.727C157.734 30.888 157.739 30.8857 157.744 30.881C157.749 30.8763 157.752 30.8707 157.752 30.864V30.501L157.284 30.888ZM157.248 30.777L157.715 30.39H157.273C157.266 30.39 157.26 30.3927 157.255 30.398C157.25 30.4027 157.248 30.4083 157.248 30.415V30.777Z" fill="#FFD500"/>
<path d="M162.655 30C162.619 30 162.586 29.991 162.556 29.973C162.527 29.954 162.504 29.9295 162.486 29.8995C162.469 29.8685 162.46 29.8355 162.46 29.8005V29.118C162.46 29.082 162.469 29.049 162.486 29.019C162.504 28.989 162.527 28.965 162.556 28.947C162.586 28.929 162.619 28.92 162.655 28.92H163.345C163.38 28.92 163.412 28.929 163.441 28.947C163.471 28.965 163.495 28.989 163.513 29.019C163.531 29.049 163.54 29.082 163.54 29.118V29.8005C163.54 29.8355 163.531 29.8685 163.513 29.8995C163.495 29.9295 163.471 29.954 163.441 29.973C163.412 29.991 163.38 30 163.345 30H162.655ZM162.676 29.832H163.341C163.351 29.832 163.359 29.8285 163.366 29.8215C163.374 29.8145 163.378 29.806 163.378 29.796V29.2515L162.676 29.832ZM162.622 29.6655L163.323 29.085H162.66C162.65 29.085 162.641 29.089 162.633 29.097C162.626 29.104 162.622 29.1125 162.622 29.1225V29.6655Z" fill="#FFD500"/>
<path d="M167.27 28C167.246 28 167.224 27.994 167.204 27.982C167.185 27.9693 167.169 27.953 167.157 27.933C167.146 27.9123 167.14 27.8903 167.14 27.867V27.412C167.14 27.388 167.146 27.366 167.157 27.346C167.169 27.326 167.185 27.31 167.204 27.298C167.224 27.286 167.246 27.28 167.27 27.28H167.73C167.753 27.28 167.775 27.286 167.794 27.298C167.814 27.31 167.83 27.326 167.842 27.346C167.854 27.366 167.86 27.388 167.86 27.412V27.867C167.86 27.8903 167.854 27.9123 167.842 27.933C167.83 27.953 167.814 27.9693 167.794 27.982C167.775 27.994 167.753 28 167.73 28H167.27ZM167.284 27.888H167.727C167.734 27.888 167.739 27.8857 167.744 27.881C167.749 27.8763 167.752 27.8707 167.752 27.864V27.501L167.284 27.888ZM167.248 27.777L167.715 27.39H167.273C167.266 27.39 167.26 27.3927 167.255 27.398C167.25 27.4027 167.248 27.4083 167.248 27.415V27.777Z" fill="#FFD500"/>
<path d="M168.655 28C168.619 28 168.586 27.991 168.556 27.973C168.527 27.954 168.504 27.9295 168.486 27.8995C168.469 27.8685 168.46 27.8355 168.46 27.8005V27.118C168.46 27.082 168.469 27.049 168.486 27.019C168.504 26.989 168.527 26.965 168.556 26.947C168.586 26.929 168.619 26.92 168.655 26.92H169.345C169.38 26.92 169.412 26.929 169.441 26.947C169.471 26.965 169.495 26.989 169.513 27.019C169.531 27.049 169.54 27.082 169.54 27.118V27.8005C169.54 27.8355 169.531 27.8685 169.513 27.8995C169.495 27.9295 169.471 27.954 169.441 27.973C169.412 27.991 169.38 28 169.345 28H168.655ZM168.676 27.832H169.341C169.351 27.832 169.359 27.8285 169.366 27.8215C169.374 27.8145 169.378 27.806 169.378 27.796V27.2515L168.676 27.832ZM168.622 27.6655L169.323 27.085H168.66C168.65 27.085 168.641 27.089 168.633 27.097C168.626 27.104 168.622 27.1125 168.622 27.1225V27.6655Z" fill="#FFD500"/>
<path d="M162.655 12C162.619 12 162.586 11.991 162.556 11.973C162.527 11.954 162.504 11.9295 162.486 11.8995C162.469 11.8685 162.46 11.8355 162.46 11.8005V11.118C162.46 11.082 162.469 11.049 162.486 11.019C162.504 10.989 162.527 10.965 162.556 10.947C162.586 10.929 162.619 10.92 162.655 10.92H163.345C163.38 10.92 163.412 10.929 163.441 10.947C163.471 10.965 163.495 10.989 163.513 11.019C163.531 11.049 163.54 11.082 163.54 11.118V11.8005C163.54 11.8355 163.531 11.8685 163.513 11.8995C163.495 11.9295 163.471 11.954 163.441 11.973C163.412 11.991 163.38 12 163.345 12H162.655ZM162.676 11.832H163.341C163.351 11.832 163.359 11.8285 163.366 11.8215C163.374 11.8145 163.378 11.806 163.378 11.796V11.2515L162.676 11.832ZM162.622 11.6655L163.323 11.085H162.66C162.65 11.085 162.641 11.089 162.633 11.097C162.626 11.104 162.622 11.1125 162.622 11.1225V11.6655Z" fill="#FFD500"/>
<path d="M166.655 10C166.619 10 166.586 9.991 166.556 9.973C166.527 9.954 166.504 9.9295 166.486 9.8995C166.469 9.8685 166.46 9.8355 166.46 9.8005V9.118C166.46 9.082 166.469 9.049 166.486 9.019C166.504 8.989 166.527 8.965 166.556 8.947C166.586 8.929 166.619 8.92 166.655 8.92H167.345C167.38 8.92 167.412 8.929 167.441 8.947C167.471 8.965 167.495 8.989 167.513 9.019C167.531 9.049 167.54 9.082 167.54 9.118V9.8005C167.54 9.8355 167.531 9.8685 167.513 9.8995C167.495 9.9295 167.471 9.954 167.441 9.973C167.412 9.991 167.38 10 167.345 10H166.655ZM166.676 9.832H167.341C167.351 9.832 167.359 9.8285 167.366 9.8215C167.374 9.8145 167.378 9.806 167.378 9.796V9.2515L166.676 9.832ZM166.622 9.6655L167.323 9.085H166.66C166.65 9.085 166.641 9.089 166.633 9.097C166.626 9.104 166.622 9.1125 166.622 9.1225V9.6655Z" fill="#FFD500"/>
<path d="M168.27 12C168.246 12 168.224 11.994 168.204 11.982C168.185 11.9693 168.169 11.953 168.157 11.933C168.146 11.9123 168.14 11.8903 168.14 11.867V11.412C168.14 11.388 168.146 11.366 168.157 11.346C168.169 11.326 168.185 11.31 168.204 11.298C168.224 11.286 168.246 11.28 168.27 11.28H168.73C168.753 11.28 168.775 11.286 168.794 11.298C168.814 11.31 168.83 11.326 168.842 11.346C168.854 11.366 168.86 11.388 168.86 11.412V11.867C168.86 11.8903 168.854 11.9123 168.842 11.933C168.83 11.953 168.814 11.9693 168.794 11.982C168.775 11.994 168.753 12 168.73 12H168.27ZM168.284 11.888H168.727C168.734 11.888 168.739 11.8857 168.744 11.881C168.749 11.8763 168.752 11.8707 168.752 11.864V11.501L168.284 11.888ZM168.248 11.777L168.715 11.39H168.273C168.266 11.39 168.26 11.3927 168.255 11.398C168.25 11.4027 168.248 11.4083 168.248 11.415V11.777Z" fill="#FFD500"/>
<path d="M150.107 27V24.9805L149.817 25.3305H149.32L150.034 24.48H150.485V27H150.107Z" fill="#FFD500"/>
<path d="M151.531 28V27.423L151.448 27.523H151.306L151.51 27.28H151.639V28H151.531Z" fill="#FFD500"/>
<path d="M155.531 24V23.423L155.448 23.523H155.306L155.51 23.28H155.639V24H155.531Z" fill="#FFD500"/>
<path d="M159.531 21V20.423L159.448 20.523H159.306L159.51 20.28H159.639V21H159.531Z" fill="#FFD500"/>
<path d="M163.531 18V17.423L163.448 17.523H163.306L163.51 17.28H163.639V18H163.531Z" fill="#FFD500"/>
<path d="M149.531 10V9.423L149.448 9.523H149.306L149.51 9.28H149.639V10H149.531Z" fill="#FFD500"/>
<path d="M154.561 10V8.846L154.395 9.046H154.111L154.519 8.56H154.777V10H154.561Z" fill="#FFD500"/>
<path d="M153.561 29V27.846L153.395 28.046H153.111L153.519 27.56H153.777V29H153.561Z" fill="#FFD500"/>
<path d="M165.561 29V27.846L165.395 28.046H165.111L165.519 27.56H165.777V29H165.561Z" fill="#FFD500"/>
<path d="M160.561 10V8.846L160.395 9.046H160.111L160.519 8.56H160.777V10H160.561Z" fill="#FFD500"/>
<path d="M159.561 30V28.846L159.395 29.046H159.111L159.519 28.56H159.777V30H159.561Z" fill="#FFD500"/>
<path d="M162.561 29V27.846L162.395 28.046H162.111L162.519 27.56H162.777V29H162.561Z" fill="#FFD500"/>
<path d="M165.531 9V8.423L165.448 8.523H165.306L165.51 8.28H165.639V9H165.531Z" fill="#FFD500"/>
<path d="M149.561 15V13.846L149.395 14.046H149.111L149.519 13.56H149.777V15H149.561Z" fill="#FFD500"/>
<path d="M149.561 21V19.846L149.395 20.046H149.111L149.519 19.56H149.777V21H149.561Z" fill="#FFD500"/>
<path d="M150.561 12V10.846L150.395 11.046H150.111L150.519 10.56H150.777V12H150.561Z" fill="#FFD500"/>
<path d="M150.561 31V29.846L150.395 30.046H150.111L150.519 29.56H150.777V31H150.561Z" fill="#FFD500"/>
<path d="M160.561 13V11.846L160.395 12.046H160.111L160.519 11.56H160.777V13H160.561Z" fill="#FFD500"/>
<path d="M155.531 31V30.423L155.448 30.523H155.306L155.51 30.28H155.639V31H155.531Z" fill="#FFD500"/>
<path d="M162.561 32V30.846L162.395 31.046H162.111L162.519 30.56H162.777V32H162.561Z" fill="#FFD500"/>
<path d="M166.561 31V29.846L166.395 30.046H166.111L166.519 29.56H166.777V31H166.561Z" fill="#FFD500"/>
<path d="M151.54 27C151.492 27 151.448 26.988 151.408 26.964C151.369 26.9387 151.338 26.906 151.314 26.866C151.291 26.8247 151.28 26.7807 151.28 26.734V25.824C151.28 25.776 151.291 25.732 151.314 25.692C151.338 25.652 151.369 25.62 151.408 25.596C151.448 25.572 151.492 25.56 151.54 25.56H152.46C152.507 25.56 152.549 25.572 152.588 25.596C152.628 25.62 152.66 25.652 152.684 25.692C152.708 25.732 152.72 25.776 152.72 25.824V26.734C152.72 26.7807 152.708 26.8247 152.684 26.866C152.66 26.906 152.628 26.9387 152.588 26.964C152.549 26.988 152.507 27 152.46 27H151.54ZM151.568 26.776H152.454C152.467 26.776 152.479 26.7713 152.488 26.762C152.499 26.7527 152.504 26.7413 152.504 26.728V26.002L151.568 26.776ZM151.496 26.554L152.43 25.78H151.546C151.533 25.78 151.521 25.7853 151.51 25.796C151.501 25.8053 151.496 25.8167 151.496 25.83V26.554Z" fill="#FFD500"/>
<path d="M154.54 23C154.492 23 154.448 22.988 154.408 22.964C154.369 22.9387 154.338 22.906 154.314 22.866C154.291 22.8247 154.28 22.7807 154.28 22.734V21.824C154.28 21.776 154.291 21.732 154.314 21.692C154.338 21.652 154.369 21.62 154.408 21.596C154.448 21.572 154.492 21.56 154.54 21.56H155.46C155.507 21.56 155.549 21.572 155.588 21.596C155.628 21.62 155.66 21.652 155.684 21.692C155.708 21.732 155.72 21.776 155.72 21.824V22.734C155.72 22.7807 155.708 22.8247 155.684 22.866C155.66 22.906 155.628 22.9387 155.588 22.964C155.549 22.988 155.507 23 155.46 23H154.54ZM154.568 22.776H155.454C155.467 22.776 155.479 22.7713 155.488 22.762C155.499 22.7527 155.504 22.7413 155.504 22.728V22.002L154.568 22.776ZM154.496 22.554L155.43 21.78H154.546C154.533 21.78 154.521 21.7853 154.51 21.796C154.501 21.8053 154.496 21.8167 154.496 21.83V22.554Z" fill="#FFD500"/>
<path d="M158.54 21C158.492 21 158.448 20.988 158.408 20.964C158.369 20.9387 158.338 20.906 158.314 20.866C158.291 20.8247 158.28 20.7807 158.28 20.734V19.824C158.28 19.776 158.291 19.732 158.314 19.692C158.338 19.652 158.369 19.62 158.408 19.596C158.448 19.572 158.492 19.56 158.54 19.56H159.46C159.507 19.56 159.549 19.572 159.588 19.596C159.628 19.62 159.66 19.652 159.684 19.692C159.708 19.732 159.72 19.776 159.72 19.824V20.734C159.72 20.7807 159.708 20.8247 159.684 20.866C159.66 20.906 159.628 20.9387 159.588 20.964C159.549 20.988 159.507 21 159.46 21H158.54ZM158.568 20.776H159.454C159.467 20.776 159.479 20.7713 159.488 20.762C159.499 20.7527 159.504 20.7413 159.504 20.728V20.002L158.568 20.776ZM158.496 20.554L159.43 19.78H158.546C158.533 19.78 158.521 19.7853 158.51 19.796C158.501 19.8053 158.496 19.8167 158.496 19.83V20.554Z" fill="#FFD500"/>
<path d="M163.54 17C163.492 17 163.448 16.988 163.408 16.964C163.369 16.9387 163.338 16.906 163.314 16.866C163.291 16.8247 163.28 16.7807 163.28 16.734V15.824C163.28 15.776 163.291 15.732 163.314 15.692C163.338 15.652 163.369 15.62 163.408 15.596C163.448 15.572 163.492 15.56 163.54 15.56H164.46C164.507 15.56 164.549 15.572 164.588 15.596C164.628 15.62 164.66 15.652 164.684 15.692C164.708 15.732 164.72 15.776 164.72 15.824V16.734C164.72 16.7807 164.708 16.8247 164.684 16.866C164.66 16.906 164.628 16.9387 164.588 16.964C164.549 16.988 164.507 17 164.46 17H163.54ZM163.568 16.776H164.454C164.467 16.776 164.479 16.7713 164.488 16.762C164.499 16.7527 164.504 16.7413 164.504 16.728V16.002L163.568 16.776ZM163.496 16.554L164.43 15.78H163.546C163.533 15.78 163.521 15.7853 163.51 15.796C163.501 15.8053 163.496 15.8167 163.496 15.83V16.554Z" fill="#FFD500"/>
<path d="M152.655 25C152.619 25 152.586 24.991 152.556 24.973C152.527 24.954 152.504 24.9295 152.486 24.8995C152.469 24.8685 152.46 24.8355 152.46 24.8005V24.118C152.46 24.082 152.469 24.049 152.486 24.019C152.504 23.989 152.527 23.965 152.556 23.947C152.586 23.929 152.619 23.92 152.655 23.92H153.345C153.38 23.92 153.412 23.929 153.441 23.947C153.471 23.965 153.495 23.989 153.513 24.019C153.531 24.049 153.54 24.082 153.54 24.118V24.8005C153.54 24.8355 153.531 24.8685 153.513 24.8995C153.495 24.9295 153.471 24.954 153.441 24.973C153.412 24.991 153.38 25 153.345 25H152.655ZM152.676 24.832H153.341C153.351 24.832 153.359 24.8285 153.366 24.8215C153.374 24.8145 153.378 24.806 153.378 24.796V24.2515L152.676 24.832ZM152.622 24.6655L153.323 24.085H152.66C152.65 24.085 152.641 24.089 152.633 24.097C152.626 24.104 152.622 24.1125 152.622 24.1225V24.6655Z" fill="#FFD500"/>
<path d="M156.655 21C156.619 21 156.586 20.991 156.556 20.973C156.527 20.954 156.504 20.9295 156.486 20.8995C156.469 20.8685 156.46 20.8355 156.46 20.8005V20.118C156.46 20.082 156.469 20.049 156.486 20.019C156.504 19.989 156.527 19.965 156.556 19.947C156.586 19.929 156.619 19.92 156.655 19.92H157.345C157.38 19.92 157.412 19.929 157.441 19.947C157.471 19.965 157.495 19.989 157.513 20.019C157.531 20.049 157.54 20.082 157.54 20.118V20.8005C157.54 20.8355 157.531 20.8685 157.513 20.8995C157.495 20.9295 157.471 20.954 157.441 20.973C157.412 20.991 157.38 21 157.345 21H156.655ZM156.676 20.832H157.341C157.351 20.832 157.359 20.8285 157.366 20.8215C157.374 20.8145 157.378 20.806 157.378 20.796V20.2515L156.676 20.832ZM156.622 20.6655L157.323 20.085H156.66C156.65 20.085 156.641 20.089 156.633 20.097C156.626 20.104 156.622 20.1125 156.622 20.1225V20.6655Z" fill="#FFD500"/>
<path d="M161.655 18C161.619 18 161.586 17.991 161.556 17.973C161.527 17.954 161.504 17.9295 161.486 17.8995C161.469 17.8685 161.46 17.8355 161.46 17.8005V17.118C161.46 17.082 161.469 17.049 161.486 17.019C161.504 16.989 161.527 16.965 161.556 16.947C161.586 16.929 161.619 16.92 161.655 16.92H162.345C162.38 16.92 162.412 16.929 162.441 16.947C162.471 16.965 162.495 16.989 162.513 17.019C162.531 17.049 162.54 17.082 162.54 17.118V17.8005C162.54 17.8355 162.531 17.8685 162.513 17.8995C162.495 17.9295 162.471 17.954 162.441 17.973C162.412 17.991 162.38 18 162.345 18H161.655ZM161.676 17.832H162.341C162.351 17.832 162.359 17.8285 162.366 17.8215C162.374 17.8145 162.378 17.806 162.378 17.796V17.2515L161.676 17.832ZM161.622 17.6655L162.323 17.085H161.66C161.65 17.085 161.641 17.089 161.633 17.097C161.626 17.104 161.622 17.1125 161.622 17.1225V17.6655Z" fill="#FFD500"/>
<path d="M164.655 15C164.619 15 164.586 14.991 164.556 14.973C164.527 14.954 164.504 14.9295 164.486 14.8995C164.469 14.8685 164.46 14.8355 164.46 14.8005V14.118C164.46 14.082 164.469 14.049 164.486 14.019C164.504 13.989 164.527 13.965 164.556 13.947C164.586 13.929 164.619 13.92 164.655 13.92H165.345C165.38 13.92 165.412 13.929 165.441 13.947C165.471 13.965 165.495 13.989 165.513 14.019C165.531 14.049 165.54 14.082 165.54 14.118V14.8005C165.54 14.8355 165.531 14.8685 165.513 14.8995C165.495 14.9295 165.471 14.954 165.441 14.973C165.412 14.991 165.38 15 165.345 15H164.655ZM164.676 14.832H165.341C165.351 14.832 165.359 14.8285 165.366 14.8215C165.374 14.8145 165.378 14.806 165.378 14.796V14.2515L164.676 14.832ZM164.622 14.6655L165.323 14.085H164.66C164.65 14.085 164.641 14.089 164.633 14.097C164.626 14.104 164.622 14.1125 164.622 14.1225V14.6655Z" fill="#FFD500"/>
<path d="M166.561 13V11.846L166.395 12.046H166.111L166.519 11.56H166.777V13H166.561Z" fill="#FFD500"/>
</svg>
